<svg width="28" height="28" viewBox="0 0 28 28" fill="none" xmlns="http://www.w3.org/2000/svg">
<path d="M20.8879 5.59995H20.2159V4.59195C20.2159 4.08795 19.8799 3.75195 19.3759 3.75195C18.8719 3.75195 18.5359 4.08795 18.5359 4.59195V5.59995H16.6039V4.59195C16.6039 4.08795 16.2679 3.75195 15.7639 3.75195C15.2599 3.75195 14.9239 4.08795 14.9239 4.59195V5.59995H12.9919V4.59195C12.9919 4.08795 12.6559 3.75195 12.1519 3.75195C11.6479 3.75195 11.3119 4.08795 11.3119 4.59195V5.59995H9.46392V4.59195C9.46392 4.08795 9.12792 3.75195 8.62392 3.75195C8.11992 3.75195 7.78392 4.08795 7.78392 4.59195V5.59995H7.11192C5.34792 5.59995 3.91992 7.02795 3.91992 8.79195V21.056C3.91992 22.82 5.34792 24.248 7.11192 24.248H20.8879C22.6519 24.248 24.0799 22.82 24.0799 21.056V8.79195C24.0799 8.11995 23.9119 7.53195 23.4919 7.02795C22.9879 6.10395 21.9799 5.59995 20.8879 5.59995ZM22.3999 21.056C22.3999 21.896 21.7279 22.568 20.8879 22.568H7.11192C6.27192 22.568 5.59992 21.896 5.59992 21.056V11.312H22.3999V21.056Z" fill="#FEDC33"/>
<path d="M8.03591 16.1842H10.2199C10.4719 16.1842 10.7239 15.9322 10.7239 15.6802V13.4962C10.7239 13.2442 10.4719 12.9922 10.2199 12.9922H8.03591C7.78391 12.9922 7.53191 13.2442 7.53191 13.4962V15.6802C7.44791 15.9322 7.69991 16.1842 8.03591 16.1842Z" fill="#FEDC33"/>
<path d="M12.9078 16.1842H15.0918C15.3438 16.1842 15.5958 15.9322 15.5958 15.6802V13.4962C15.5958 13.2442 15.3438 12.9922 15.0918 12.9922H12.9078C12.6558 12.9922 12.4038 13.2442 12.4038 13.4962V15.6802C12.4038 15.9322 12.6558 16.1842 12.9078 16.1842Z" fill="#FEDC33"/>
<path d="M17.7794 16.1837H19.9634C20.2154 16.1837 20.4674 15.9317 20.4674 15.6797V13.4957C20.4674 13.2437 20.2154 12.9917 19.9634 12.9917H17.7794C17.5274 12.9917 17.2754 13.2437 17.2754 13.4957V15.6797C17.2754 15.9317 17.5274 16.1837 17.7794 16.1837Z" fill="#FEDC33"/>
<path d="M8.03591 21.1398H10.2199C10.4719 21.1398 10.7239 20.8878 10.7239 20.6358V18.4518C10.7239 18.1998 10.4719 17.9478 10.2199 17.9478H8.03591C7.78391 17.9478 7.53191 18.1998 7.53191 18.4518V20.6358C7.44791 20.8878 7.69991 21.1398 8.03591 21.1398Z" fill="#FEDC33"/>
<path d="M12.9078 21.1398H15.0918C15.3438 21.1398 15.5958 20.8878 15.5958 20.6358V18.4518C15.5958 18.1998 15.3438 17.9478 15.0918 17.9478H12.9078C12.6558 17.9478 12.4038 18.1998 12.4038 18.4518V20.6358C12.4038 20.8878 12.6558 21.1398 12.9078 21.1398Z" fill="#FEDC33"/>
<path d="M17.7794 21.1398H19.9634C20.2154 21.1398 20.4674 20.8878 20.4674 20.6358V18.4518C20.4674 18.1998 20.2154 17.9478 19.9634 17.9478H17.7794C17.5274 17.9478 17.2754 18.1998 17.2754 18.4518V20.6358C17.2754 20.8878 17.5274 21.1398 17.7794 21.1398Z" fill="#FEDC33"/>
</svg>
