<svg width="28" height="28" viewBox="0 0 28 28" fill="none" xmlns="http://www.w3.org/2000/svg">
<path d="M23.5367 22.5859H4.45436C3.92714 22.5859 3.5 23.0131 3.5 23.5407C3.5 24.0675 3.92714 24.4947 4.45436 24.4947H23.5363C24.0635 24.4947 24.4906 24.0675 24.4906 23.5407C24.4902 23.0131 24.063 22.5859 23.5367 22.5859Z" fill="#9271D9"/>
<path d="M5.64675 20.1054C5.11952 20.1054 4.69238 20.5325 4.69238 21.0598C4.69238 21.587 5.11952 22.0146 5.64675 22.0146H22.3436C22.8708 22.0146 23.298 21.587 23.298 21.0598C23.298 20.5325 22.8708 20.1054 22.3436 20.1054H22.1055V11.5179H22.3436C22.6077 11.5179 22.8204 11.3044 22.8204 11.0412C22.8204 10.778 22.6068 10.5645 22.3436 10.5645H5.64675C5.38313 10.5645 5.17001 10.778 5.17001 11.0412C5.17001 11.3044 5.38358 11.5179 5.64675 11.5179H5.88534V20.105L5.64675 20.1054ZM20.1968 11.5179V20.105H17.3346V11.5179H20.1968ZM15.4258 11.5179V20.105H12.5636V11.5179H15.4258ZM7.79317 11.5179H10.6554V20.105H7.79317V11.5179Z" fill="#9271D9"/>
<path d="M4.45438 9.70623H23.5363C23.5394 9.70623 23.543 9.70623 23.5457 9.70623C24.0733 9.70623 24.5 9.27909 24.5 8.75187C24.5 8.33277 24.2302 7.97756 23.8553 7.84889L14.3876 3.58866C14.1387 3.47696 13.8541 3.47696 13.6048 3.58866L4.06298 7.88195C3.65238 8.06692 3.42674 8.51283 3.52146 8.95248C3.61574 9.39213 4.00445 9.70623 4.45438 9.70623Z" fill="#9271D9"/>
</svg>
