<svg width="22" height="22" viewBox="0 0 22 22" fill="none" xmlns="http://www.w3.org/2000/svg">
<path d="M18.4246 3.57535C16.4414 1.59221 13.8046 0.5 11 0.5C8.19535 0.5 5.55858 1.59221 3.57535 3.57535C1.59221 5.55858 0.5 8.19535 0.5 11C0.5 13.8046 1.59221 16.4414 3.57535 18.4246C5.55858 20.4078 8.19535 21.5 11 21.5C13.8046 21.5 16.4414 20.4078 18.4246 18.4246C20.4078 16.4414 21.5 13.8046 21.5 11C21.5 8.19535 20.4078 5.55858 18.4246 3.57535ZM3.81591 10.311C3.97456 8.64779 4.71358 7.08018 5.89688 5.89688C7.08018 4.71358 8.64779 3.97452 10.311 3.81591C11.9386 3.66062 13.5812 4.06483 14.9421 4.95372L4.95372 14.9421C4.06483 13.5812 3.66066 11.9383 3.81591 10.311ZM18.1758 11.77C18.0017 13.4018 17.2656 14.9406 16.1031 16.1031C14.9406 17.2656 13.4018 18.0017 11.77 18.1758C11.516 18.203 11.2611 18.2164 11.0068 18.2164C9.65264 18.2164 8.31262 17.8358 7.16639 17.116L7.14412 17.102L17.102 7.14412L17.116 7.16639C17.971 8.52787 18.3474 10.1628 18.1758 11.77Z" fill="#FEDC33"/>
</svg>
