<svg width="28" height="28" viewBox="0 0 28 28" fill="none" xmlns="http://www.w3.org/2000/svg">
<path d="M15.9036 18.9945C15.9036 19.3336 15.6286 19.6086 15.2895 19.6086H12.6696C12.3305 19.6086 12.0556 19.3336 12.0556 18.9945V17.8483C11.8555 17.8483 12.4582 17.9728 4.52344 16.1504V21.205C4.52344 22.2659 5.38653 23.129 6.44741 23.129H21.5117C22.5726 23.129 23.4357 22.2659 23.4357 21.205V16.153L15.9036 17.7457V18.9945Z" fill="#9271D9"/>
<path d="M23.1901 8.10547H4.80994C4.08649 8.10547 3.5 8.69195 3.5 9.41541V13.6772C3.5 14.2495 3.89536 14.746 4.45319 14.8741L12.0556 16.6201V15.0645C12.0556 14.7254 12.3305 14.4505 12.6696 14.4505H15.2895C15.6286 14.4505 15.9035 14.7254 15.9035 15.0645V16.4902L23.5468 14.8741C24.1046 14.746 24.5 14.2495 24.5 13.6772V9.41541C24.5 8.69195 23.9135 8.10547 23.1901 8.10547Z" fill="#9271D9"/>
<path d="M13.2832 15.6787H14.675V18.3805H13.2832V15.6787Z" fill="#9271D9"/>
<path d="M12.3013 6.09965H15.658V6.87743H16.8861V5.48562C16.8861 5.14651 16.6112 4.87158 16.2721 4.87158H11.6873C11.3482 4.87158 11.0732 5.14651 11.0732 5.48562V6.87743H12.3013V6.09965Z" fill="#9271D9"/>
</svg>
