<svg width="28" height="28" viewBox="0 0 28 28" fill="none" xmlns="http://www.w3.org/2000/svg">
<path d="M13.995 9.22728C15.0498 9.22728 15.9042 8.37297 15.9042 7.31817C15.9042 6.96021 15.8039 6.62137 15.6321 6.335L13.995 3.5L12.358 6.335C12.1862 6.62137 12.0859 6.96021 12.0859 7.31817C12.0859 8.37297 12.9403 9.22728 13.995 9.22728Z" fill="#9271D9"/>
<path d="M19.7225 12.0907H14.9497V10.1816H13.0406V12.0907H8.26793C6.68815 12.0907 5.4043 13.3746 5.4043 14.9544V16.4244C5.4043 17.4553 6.24428 18.2953 7.27519 18.2953C7.77633 18.2953 8.24404 18.0996 8.59725 17.7464L10.64 15.7084L12.6779 17.7416C13.3843 18.448 14.6157 18.448 15.322 17.7416L17.3647 15.7084L19.4027 17.7416C19.7559 18.0948 20.2236 18.2905 20.7248 18.2905C21.7557 18.2905 22.5957 17.4505 22.5957 16.4196V14.9544C22.5861 13.3746 21.3023 12.0907 19.7225 12.0907Z" fill="#9271D9"/>
<path d="M18.3814 18.7585L17.3552 17.7324L16.3243 18.7585C15.0787 20.0042 12.9023 20.0042 11.6566 18.7585L10.6304 17.7324L9.59953 18.7585C8.98385 19.3838 8.15818 19.7274 7.27519 19.7274C6.58313 19.7274 5.93881 19.5078 5.4043 19.1403V23.5456C5.4043 24.0706 5.83384 24.5001 6.35883 24.5001H21.6316C22.1565 24.5001 22.5861 24.0706 22.5861 23.5456V19.1404C22.0515 19.5079 21.412 19.7274 20.7152 19.7274C19.8322 19.7274 19.0066 19.3838 18.3814 18.7585Z" fill="#9271D9"/>
</svg>
