<svg width="28" height="28" viewBox="0 0 28 28" fill="none" xmlns="http://www.w3.org/2000/svg">
<path fill-rule="evenodd" clip-rule="evenodd" d="M6.74106 3.5C5.5956 3.5 4.66699 4.44979 4.66699 5.62142V23.4128C4.66699 24.328 5.72422 24.8136 6.39299 24.2056L8.73543 22.0759C9.08786 21.7555 9.60729 21.7186 9.99964 21.9861L13.4251 24.3218C13.7734 24.5594 14.2272 24.5594 14.5756 24.3218L18.001 21.9861C18.3934 21.7186 18.9128 21.7555 19.2652 22.0759L21.6076 24.2056C22.2764 24.8136 23.3337 24.328 23.3337 23.4128V5.62142C23.3337 4.44979 22.4051 3.5 21.2596 3.5H6.74106ZM7.7781 7.9625C7.34855 7.9625 7.00033 8.31507 7.00033 8.75C7.00033 9.18492 7.34855 9.5375 7.7781 9.5375H20.2225C20.6521 9.5375 21.0003 9.18492 21.0003 8.75C21.0003 8.31507 20.6521 7.9625 20.2225 7.9625H7.7781ZM7.00033 12.95C7.00033 12.5151 7.34855 12.1625 7.7781 12.1625H20.2225C20.6521 12.1625 21.0003 12.5151 21.0003 12.95C21.0003 13.3849 20.6521 13.7375 20.2225 13.7375H7.7781C7.34855 13.7375 7.00033 13.3849 7.00033 12.95ZM7.7781 16.3625C7.34855 16.3625 7.00033 16.7151 7.00033 17.15C7.00033 17.5849 7.34855 17.9375 7.7781 17.9375H14.0003C14.4299 17.9375 14.7781 17.5849 14.7781 17.15C14.7781 16.7151 14.4299 16.3625 14.0003 16.3625H7.7781Z" fill="#9271D9"/>
</svg>
