<svg width="28" height="28" viewBox="0 0 28 28" fill="none" xmlns="http://www.w3.org/2000/svg">
<path fill-rule="evenodd" clip-rule="evenodd" d="M24.3769 12.3864C24.458 12.9129 24.5 13.4511 24.5 14C24.5 19.795 19.795 24.5 14 24.5C8.20498 24.5 3.5 19.795 3.5 14C3.5 8.20498 8.20498 3.5 14 3.5C14.4483 3.5 14.8898 3.52833 15.3235 3.58302C15.5569 3.61233 15.7611 3.75102 15.8744 3.95712C15.9867 4.16223 15.9945 4.41033 15.8949 4.62228C15.7757 4.87428 15.7093 5.15656 15.7093 5.45349C15.7093 6.08837 16.0131 6.65293 16.4829 7.00944C16.7095 7.18233 16.816 7.47144 16.7544 7.75079C16.7095 7.95493 16.686 8.16591 16.686 8.38372C16.686 10.0012 17.9988 11.314 19.6163 11.314C19.713 11.314 19.8077 11.3091 19.9025 11.3003C20.1467 11.2768 20.386 11.3765 20.5413 11.5669C20.8997 12.0084 21.4457 12.2907 22.0581 12.2907C22.4918 12.2907 22.8933 12.1491 23.2175 11.9098C23.4236 11.7574 23.6942 11.7232 23.9315 11.8209C24.1689 11.9186 24.3369 12.1334 24.3769 12.3864ZM18.6395 15.7093C17.9656 15.7093 17.4186 16.2563 17.4186 16.9302C17.4186 17.6042 17.9656 18.1512 18.6395 18.1512C19.3135 18.1512 19.8605 17.6042 19.8605 16.9302C19.8605 16.2563 19.3135 15.7093 18.6395 15.7093ZM11.314 18.1512C10.64 18.1512 10.093 18.6981 10.093 19.3721C10.093 20.046 10.64 20.593 11.314 20.593C11.9879 20.593 12.5349 20.046 12.5349 19.3721C12.5349 18.6981 11.9879 18.1512 11.314 18.1512ZM11.5484 7.60233C11.144 7.60233 10.8158 7.93051 10.8158 8.33488C10.8158 8.73926 11.144 9.06744 11.5484 9.06744C11.9527 9.06744 12.2809 8.73926 12.2809 8.33488C12.2809 7.93051 11.9527 7.60233 11.5484 7.60233ZM14.2442 15.7093C13.8398 15.7093 13.5116 16.0375 13.5116 16.4419C13.5116 16.8462 13.8398 17.1744 14.2442 17.1744C14.6486 17.1744 14.9767 16.8462 14.9767 16.4419C14.9767 16.0375 14.6486 15.7093 14.2442 15.7093ZM8.62791 12.7791C8.22354 12.7791 7.89535 13.1073 7.89535 13.5116C7.89535 13.916 8.22354 14.2442 8.62791 14.2442C9.03228 14.2442 9.36047 13.916 9.36047 13.5116C9.36047 13.1073 9.03228 12.7791 8.62791 12.7791ZM13.2674 10.5814C12.5935 10.5814 12.0465 11.1284 12.0465 11.8023C12.0465 12.4763 12.5935 13.0233 13.2674 13.0233C13.9414 13.0233 14.4884 12.4763 14.4884 11.8023C14.4884 11.1284 13.9414 10.5814 13.2674 10.5814Z" fill="#64C361"/>
</svg>
