<svg width="28" height="28" viewBox="0 0 28 28" fill="none" xmlns="http://www.w3.org/2000/svg">
<path d="M6.99062 22.5314C7.06855 23.7578 7.88066 24.5002 9.12344 24.5002H18.7867C20.2018 24.5002 20.9482 23.7742 21.0344 22.3674C21.2641 18.5775 21.8219 9.33672 21.8629 8.58203H6.16211C6.16211 8.74609 6.71172 18.0936 6.99062 22.5314Z" fill="#EC1313"/>
<path d="M21.8464 4.84941C20.7348 4.84121 19.6274 4.83301 18.52 4.85352C18.4544 4.09063 17.8145 3.5 17.0475 3.5H10.9526C10.1856 3.5 9.54579 4.09063 9.48426 4.85352C8.34403 4.83301 7.19969 4.84121 6.05946 4.84941C5.46063 4.85762 5.02587 5.18984 4.88231 5.71484C4.63212 6.62949 5.18583 7.38418 6.13329 7.38828C8.76239 7.39648 11.3874 7.39238 14.0124 7.39238H21.8382C22.6872 7.39238 23.1753 6.9166 23.1794 6.125C23.1835 5.3334 22.6913 4.85352 21.8464 4.84941Z" fill="#EC1313"/>
</svg>
