<svg width="20" height="22" viewBox="0 0 20 22" fill="none" xmlns="http://www.w3.org/2000/svg">
<path d="M2.99062 19.5314C3.06855 20.7578 3.88066 21.5002 5.12344 21.5002H14.7867C16.2018 21.5002 16.9482 20.7742 17.0344 19.3674C17.2641 15.5775 17.8219 6.33672 17.8629 5.58203H2.16211C2.16211 5.74609 2.71172 15.0936 2.99062 19.5314Z" fill="#EC1313"/>
<path d="M17.8464 1.84941C16.7348 1.84121 15.6274 1.83301 14.52 1.85352C14.4544 1.09063 13.8145 0.5 13.0475 0.5H6.95262C6.18563 0.5 5.54579 1.09063 5.48426 1.85352C4.34403 1.83301 3.19969 1.84121 2.05946 1.84941C1.46063 1.85762 1.02587 2.18984 0.882311 2.71484C0.632116 3.62949 1.18583 4.38418 2.13329 4.38828C4.76239 4.39648 7.38739 4.39238 10.0124 4.39238H17.8382C18.6872 4.39238 19.1753 3.9166 19.1794 3.125C19.1835 2.3334 18.6913 1.85352 17.8464 1.84941Z" fill="#EC1313"/>
</svg>
