<svg width="28" height="28" viewBox="0 0 28 28" fill="none" xmlns="http://www.w3.org/2000/svg">
<path d="M15.755 16.3664C15.2326 16.7147 14.6257 16.8989 14 16.8989C13.3743 16.8989 12.7675 16.7147 12.245 16.3664L3.63982 10.6294C3.59208 10.5976 3.54557 10.5644 3.5 10.5303V19.931C3.5 21.0088 4.37466 21.8642 5.43319 21.8642H22.5668C23.6446 21.8642 24.5 20.9895 24.5 19.931V10.5303C24.4543 10.5645 24.4077 10.5977 24.3598 10.6296L15.755 16.3664Z" fill="#EC9513"/>
<path d="M4.32236 9.60534L12.9276 15.3424C13.2533 15.5595 13.6266 15.6681 14 15.6681C14.3733 15.6681 14.7467 15.5595 15.0724 15.3424L23.6776 9.60534C24.1926 9.26224 24.5 8.68802 24.5 8.06828C24.5 7.00265 23.6331 6.13574 22.5675 6.13574H5.43253C4.36695 6.13578 3.5 7.00269 3.5 8.0693C3.5 8.68802 3.80745 9.26224 4.32236 9.60534Z" fill="#EC9513"/>
</svg>
