<svg width="60" height="60" viewBox="0 0 60 60" fill="none" xmlns="http://www.w3.org/2000/svg">
<circle cx="30" cy="30" r="30" fill="#FEDC33"/>
<mask id="mask0_3690_6050" style="mask-type:alpha" maskUnits="userSpaceOnUse" x="0" y="0" width="60" height="60">
<circle cx="30" cy="30" r="30" fill="#FEDC33"/>
</mask>
<g mask="url(#mask0_3690_6050)">
<mask id="mask1_3690_6050" style="mask-type:luminance" maskUnits="userSpaceOnUse" x="6" y="12" width="48" height="48">
<path d="M6 12H54V60H6V12Z" fill="white"/>
</mask>
<g mask="url(#mask1_3690_6050)">
<path d="M45.486 48.09L37.824 46.174L37.382 44.404C42.668 43.514 45.388 41.93 45.508 41.86C45.792 41.694 45.968 41.392 45.992 41.064C46.014 40.736 45.868 40.414 45.61 40.208C45.574 40.18 42 37.228 42 27C42 18.374 39.982 14 36 14H35.41C33.974 12.612 32.896 12 30 12C26.242 12 18 15.778 18 27C18 37.228 14.426 40.18 14.4 40.2C14.134 40.4 13.984 40.718 14 41.05C14.018 41.384 14.198 41.684 14.484 41.856C14.604 41.928 17.298 43.52 22.616 44.408L22.174 46.174L14.512 48.09C9.5 49.344 6 53.828 6 59C6 59.552 6.448 60 7 60H53C53.552 60 54 59.548 54 58.996C54 53.828 50.5 49.344 45.486 48.09Z" fill="#171717"/>
</g>
</g>
</svg>
