<svg width="28" height="28" viewBox="0 0 28 28" fill="none" xmlns="http://www.w3.org/2000/svg">
<path d="M16.3445 3.5V6.55004H19.2929L16.2405 9.60333C14.9331 8.7112 13.3543 8.18887 11.6556 8.18887C7.15863 8.18887 3.5 11.8471 3.5 16.3445C3.5 20.8414 7.15863 24.5 11.6555 24.5C16.1525 24.5 19.8111 20.8414 19.8107 16.3445C19.8107 14.6461 19.2886 13.0675 18.397 11.7603L21.45 8.7064V11.6556H24.5V3.5H16.3445ZM11.6555 21.45C8.84028 21.45 6.55004 19.1597 6.55004 16.3445C6.55004 13.5292 8.84032 11.239 11.6555 11.239C14.4708 11.239 16.761 13.5292 16.761 16.3445C16.761 19.1597 14.4708 21.45 11.6555 21.45Z" fill="#64C361"/>
</svg>
