<svg width="14" height="15" viewBox="0 0 14 15" fill="none" xmlns="http://www.w3.org/2000/svg">
<path d="M7.00033 13.3337C10.222 13.3337 12.8337 10.722 12.8337 7.50033C12.8337 4.27866 10.222 1.66699 7.00033 1.66699C3.77866 1.66699 1.16699 4.27866 1.16699 7.50033C1.16699 10.722 3.77866 13.3337 7.00033 13.3337Z" stroke="#95A4B7" stroke-linecap="round" stroke-linejoin="round"/>
<path d="M7.62036 10.3519C7.48608 10.3652 7.35127 10.3329 7.23525 10.2596C7.15049 10.1669 7.10985 10.0383 7.12481 9.90985C7.12794 9.80295 7.13992 9.69654 7.16062 9.59188C7.18066 9.47181 7.20655 9.35294 7.23823 9.23573L7.5905 7.94472C7.62683 7.8173 7.65084 7.68624 7.66216 7.5536C7.66216 7.41052 7.68006 7.31192 7.68006 7.2547C7.68756 6.99966 7.58532 6.75493 7.40242 6.59012C7.17745 6.40616 6.8973 6.31574 6.61429 6.33574C6.41149 6.33899 6.21025 6.37435 6.01722 6.44067C5.80626 6.51063 5.58434 6.59436 5.35149 6.69188L5.25 7.11162C5.31865 7.08618 5.40226 7.05757 5.49778 7.02576C5.58891 6.99701 5.68337 6.98201 5.7784 6.98124C5.9117 6.96586 6.04588 7.00073 6.15753 7.07981C6.23337 7.17619 6.26895 7.3014 6.25604 7.42642C6.25571 7.53335 6.2447 7.63995 6.22321 7.74439C6.2023 7.85569 6.17544 7.97333 6.1426 8.09734L5.78735 9.39469C5.75872 9.51529 5.73581 9.63733 5.7187 9.76038C5.70474 9.86572 5.69776 9.97197 5.69779 10.0783C5.69632 10.3351 5.80656 10.5782 5.99631 10.7366C6.22475 10.9234 6.5089 11.016 6.79637 10.9973C6.99879 11.0017 7.20052 10.9706 7.39344 10.9051C7.56261 10.8436 7.78851 10.7556 8.07113 10.6412L8.16667 10.2405C8.09011 10.2743 8.01127 10.302 7.93082 10.3232C7.82907 10.3479 7.7246 10.3575 7.62036 10.3519Z" fill="#95A4B7"/>
<path d="M7.91195 4.25591C7.74347 4.08557 7.5215 3.99393 7.29283 4.00031C7.06428 3.99463 6.84252 4.08619 6.6737 4.25591C6.36426 4.54967 6.3297 5.06399 6.59656 5.4047C6.62034 5.43507 6.64612 5.46345 6.6737 5.48964C7.02624 5.83679 7.55941 5.83679 7.91192 5.48964C8.22136 5.19298 8.25379 4.67634 7.98433 4.33566C7.96193 4.30728 7.93773 4.28063 7.91195 4.25591Z" fill="#95A4B7"/>
</svg>
