<svg width="28" height="28" viewBox="0 0 28 28" fill="none" xmlns="http://www.w3.org/2000/svg">
<path d="M14 3.5C11.9233 3.5 9.89323 4.11581 8.16652 5.26957C6.4398 6.42332 5.09399 8.0632 4.29927 9.98182C3.50455 11.9004 3.29661 14.0116 3.70176 16.0484C4.1069 18.0852 5.10693 19.9562 6.57538 21.4246C8.04383 22.8931 9.91475 23.8931 11.9516 24.2982C13.9884 24.7034 16.0996 24.4954 18.0182 23.7007C19.9368 22.906 21.5767 21.5602 22.7304 19.8335C23.8842 18.1068 24.5 16.0767 24.5 14C24.5 11.2152 23.3938 8.54451 21.4246 6.57538C19.4555 4.60625 16.7848 3.5 14 3.5ZM14.957 18.2236C14.9571 18.3547 14.9313 18.4845 14.8811 18.6056C14.831 18.7267 14.7575 18.8368 14.6648 18.9295C14.5721 19.0222 14.4621 19.0957 14.341 19.1459C14.2198 19.1961 14.09 19.2219 13.9589 19.2219H13.899C13.6342 19.2219 13.3803 19.1167 13.1931 18.9295C13.0059 18.7423 12.9007 18.4884 12.9007 18.2236V13.8702C12.9007 13.7391 12.9265 13.6093 12.9767 13.4882C13.0269 13.3671 13.1004 13.2571 13.1931 13.1644C13.2858 13.0717 13.3959 12.9982 13.517 12.948C13.6381 12.8979 13.7679 12.8721 13.899 12.8721H13.9589C14.2237 12.8721 14.4775 12.9773 14.6647 13.1645C14.8519 13.3516 14.957 13.6055 14.957 13.8702V18.2236ZM14 10.7872C13.7993 10.7872 13.6032 10.7277 13.4363 10.6162C13.2695 10.5048 13.1394 10.3463 13.0626 10.1609C12.9858 9.97551 12.9657 9.7715 13.0049 9.57469C13.044 9.37787 13.1407 9.19709 13.2826 9.05519C13.4245 8.9133 13.6052 8.81667 13.8021 8.77752C13.9989 8.73837 14.2029 8.75846 14.3883 8.83525C14.5737 8.91205 14.7321 9.04209 14.8436 9.20894C14.9551 9.37579 15.0146 9.57196 15.0146 9.77263C15.0146 9.90587 14.9884 10.0378 14.9374 10.1609C14.8864 10.284 14.8117 10.3958 14.7174 10.4901C14.6232 10.5843 14.5114 10.659 14.3883 10.71C14.2652 10.761 14.1332 10.7872 14 10.7872Z" fill="#FEDC33"/>
</svg>
