<svg width="60" height="60" viewBox="0 0 60 60" fill="none" xmlns="http://www.w3.org/2000/svg">
<circle cx="30" cy="30" r="30" fill="#F7F7F7"/>
<mask id="mask0_3690_6120" style="mask-type:alpha" maskUnits="userSpaceOnUse" x="0" y="0" width="60" height="60">
<circle cx="30" cy="30" r="30" fill="#F7F7F7"/>
</mask>
<g mask="url(#mask0_3690_6120)">
<mask id="mask1_3690_6120" style="mask-type:luminance" maskUnits="userSpaceOnUse" x="6" y="12" width="48" height="48">
<path d="M6 12H54V60H6V12Z" fill="white"/>
</mask>
<g mask="url(#mask1_3690_6120)">
<path d="M45.486 48.09L37.824 46.174L37.172 43.566C39.222 41.536 40.626 38.748 41.042 35.888C42.178 35.568 43.058 34.594 43.21 33.372L43.71 29.372C43.816 28.528 43.556 27.674 42.996 27.034C42.668 26.658 42.254 26.374 41.796 26.2L41.98 22.434L42.728 21.684C43.854 20.486 44.788 18.432 42.836 15.452C41.336 13.162 38.788 12 35.26 12C33.868 12 30.664 12 27.68 14.004C19.16 14.182 18 18.14 18 22C18 22.898 18.218 24.92 18.362 26.14C17.848 26.302 17.38 26.602 17.016 27.014C16.448 27.66 16.182 28.518 16.29 29.372L16.79 33.372C16.954 34.676 17.944 35.702 19.196 35.946C19.61 38.696 20.942 41.394 22.874 43.39L22.178 46.176L14.516 48.092C9.5 49.344 6 53.828 6 59C6 59.552 6.448 60 7 60H53C53.552 60 54 59.548 54 58.996C54 53.828 50.5 49.344 45.486 48.09Z" fill="#95A4B7"/>
</g>
</g>
</svg>
