<svg width="14" height="22" viewBox="0 0 14 22" fill="none" xmlns="http://www.w3.org/2000/svg">
<path d="M12.25 0.5H1.75C1.35218 0.5 0.970644 0.658035 0.68934 0.93934C0.408035 1.22064 0.25 1.60218 0.25 2V20C0.25 20.3978 0.408035 20.7794 0.68934 21.0607C0.970644 21.342 1.35218 21.5 1.75 21.5H12.25C12.6478 21.5 13.0294 21.342 13.3107 21.0607C13.592 20.7794 13.75 20.3978 13.75 20V2C13.75 1.60218 13.592 1.22064 13.3107 0.93934C13.0294 0.658035 12.6478 0.5 12.25 0.5ZM7.75 19.25H6.25C6.05109 19.25 5.86032 19.171 5.71967 19.0303C5.57902 18.8897 5.5 18.6989 5.5 18.5C5.5 18.3011 5.57902 18.1103 5.71967 17.9697C5.86032 17.829 6.05109 17.75 6.25 17.75H7.75C7.94891 17.75 8.13968 17.829 8.28033 17.9697C8.42098 18.1103 8.5 18.3011 8.5 18.5C8.5 18.6989 8.42098 18.8897 8.28033 19.0303C8.13968 19.171 7.94891 19.25 7.75 19.25Z" fill="#171717"/>
</svg>
