<svg width="18" height="18" viewBox="0 0 18 18" fill="none" xmlns="http://www.w3.org/2000/svg">
<path fill-rule="evenodd" clip-rule="evenodd" d="M4.85194 0.0451426C5.1371 0.0104824 5.42388 0 5.70482 0H12.2952C14.0573 0 15.5213 0.441168 16.5394 1.45624C17.5575 2.47133 18 3.93089 18 5.68772V9.79438C18 10.0745 17.9895 10.3604 17.9547 10.6447C17.8223 12.1634 17.2939 13.4097 16.2832 14.2649C15.2794 15.114 13.9119 15.4821 12.2952 15.4821H11.8833C11.8779 15.4821 11.8698 15.4834 11.8605 15.4881C11.8514 15.4927 11.8453 15.4984 11.8421 15.5026L10.6074 17.1439C10.2121 17.6717 9.63772 18 9.00001 18C8.36231 18 7.78845 17.6723 7.39306 17.1446L6.17298 15.5227C6.16417 15.5161 6.1502 15.507 6.1326 15.4981C6.11675 15.4901 6.10321 15.485 6.09409 15.4821H5.70482C4.04969 15.4821 2.55317 15.2912 1.49874 14.3732C0.418356 13.4327 0 11.9139 0 9.79438V5.68772C0 4.07462 0.372316 2.7114 1.22524 1.71116C2.08383 0.704271 3.33313 0.177326 4.85194 0.0451426Z" fill="#FEDC33"/>
</svg>
