<svg width="56" height="56" viewBox="0 0 56 56" fill="none" xmlns="http://www.w3.org/2000/svg">
<rect x="0.5" y="0.5" width="55" height="55" rx="20.5" stroke="#E4E4E4"/>
<path fill-rule="evenodd" clip-rule="evenodd" d="M23.6064 18.0533C23.2737 18.0533 22.9765 18.0663 22.7044 18.1002C22.6911 18.1018 22.6778 18.1032 22.6644 18.1044C21.005 18.2458 19.9044 18.7887 19.2027 19.6115C18.4898 20.4476 18.0595 21.7236 18.0595 23.5836V29.0592C18.0595 31.7087 18.6001 32.9623 19.353 33.6177C20.1404 34.3032 21.4334 34.5895 23.6064 34.5895H24.1556C24.5163 34.5895 24.8526 34.7041 25.1058 34.8316C25.3597 34.9595 25.6428 35.1574 25.8523 35.4305L25.8581 35.4382L27.5071 37.6303C27.7076 37.8981 27.8964 37.9467 28 37.9467C28.1037 37.9467 28.2924 37.8981 28.4929 37.6303L28.4943 37.6284L30.1419 35.4382C30.5422 34.9058 31.177 34.5895 31.8444 34.5895H32.3936C34.2609 34.5895 35.5405 34.1631 36.3783 33.4541C37.2025 32.757 37.7473 31.6606 37.8893 29.9986C37.8904 29.9852 37.8919 29.9719 37.8935 29.9585C37.9276 29.6872 37.9405 29.3909 37.9405 29.0592V23.5836C37.9405 21.5593 37.4321 20.2269 36.5962 19.3936C35.7603 18.5602 34.424 18.0533 32.3936 18.0533H23.6064ZM22.4692 16.0602C22.8495 16.014 23.2318 16 23.6064 16H32.3936C34.7431 16 36.6951 16.5882 38.0525 17.9417C39.41 19.2951 40 21.2412 40 23.5836V29.0592C40 29.4326 39.986 29.8138 39.9396 30.1929C39.763 32.2179 39.0585 33.8796 37.7109 35.0199C36.3725 36.1521 34.5492 36.6428 32.3936 36.6428H31.8444C31.8373 36.6428 31.8264 36.6446 31.8141 36.6507C31.8018 36.6569 31.7937 36.6646 31.7895 36.6702L30.1432 38.8585C29.6162 39.5622 28.8503 40 28 40C27.1497 40 26.3846 39.5631 25.8574 38.8594L24.2306 36.6969C24.2189 36.6881 24.2003 36.6759 24.1768 36.6642C24.1557 36.6535 24.1376 36.6466 24.1255 36.6428H23.6064C21.3996 36.6428 19.4042 36.3883 17.9983 35.1643C16.5578 33.9102 16 31.8852 16 29.0592V23.5836C16 21.4328 16.4964 19.6152 17.6336 18.2816C18.7784 16.939 20.4442 16.2364 22.4692 16.0602Z" fill="#171717"/>
</svg>
