<svg width="35" height="32" viewBox="0 0 35 32" fill="none" xmlns="http://www.w3.org/2000/svg">
<path d="M27.2453 5.03265C26.3879 2.60835 24.2032 0.678501 21.7157 0.359408C19.9663 0.141241 17.5787 -0.0371654 14.3144 0.00667172C11.05 0.0505089 8.65835 0.302318 6.90384 0.567379C4.00447 1.0241 1.41502 3.57379 0.917522 6.49355C0.917522 6.49355 0.149862 10.6132 0 16.1612H28.1027C28.1027 16.1612 28.1027 8.81386 27.2453 5.03265Z" fill="#C8E9CA"/>
<path d="M34.4213 11.9689C34.091 9.38763 31.7921 7.20393 29.1017 6.84712C24.3612 6.37714 17.3585 6.33738 17.3564 6.35471C14.3276 6.32311 7.23618 6.61264 5.61217 6.84712C3.96675 7.05917 2.48036 7.96853 1.48536 9.21432C0.842636 10.005 0.429968 10.9573 0.292585 11.9669C0.0999052 13.5267 -0.0530155 15.6574 0.0244641 18.573C0.101944 21.4887 0.375161 23.6255 0.648379 25.1904C1.11937 27.7809 3.44988 30.0563 6.04341 30.4916C7.61441 30.7914 14.4418 31.2053 17.3595 31.1543C20.2752 31.2073 27.1026 30.7914 28.6756 30.4916C31.2691 30.0563 33.5996 27.7809 34.0706 25.1904C34.3438 23.6255 34.612 21.4897 34.6945 18.573C34.7771 15.6563 34.614 13.5287 34.4213 11.9689Z" fill="#64C361"/>
<path d="M28.654 21.1594C28.1784 21.1596 27.7135 21.0187 27.318 20.7547C26.9226 20.4906 26.6143 20.1152 26.4322 19.6759C26.2501 19.2366 26.2024 18.7531 26.2952 18.2867C26.3879 17.8203 26.6169 17.3919 26.9531 17.0557C27.2894 16.7194 27.7178 16.4904 28.1842 16.3977C28.6506 16.305 29.134 16.3527 29.5733 16.5347C30.0126 16.7168 30.3881 17.0251 30.6521 17.4206C30.9162 17.816 31.057 18.281 31.0568 18.7565C31.0568 19.3938 30.8037 20.005 30.353 20.4556C29.9024 20.9062 29.2912 21.1594 28.654 21.1594Z" fill="white"/>
</svg>
