<svg width="28" height="28" viewBox="0 0 28 28" fill="none" xmlns="http://www.w3.org/2000/svg">
<path d="M14 3.5C8.20123 3.5 3.5 8.20123 3.5 14C3.5 19.7988 8.20123 24.5 14 24.5C19.7988 24.5 24.5 19.7988 24.5 14C24.5 8.20123 19.7988 3.5 14 3.5ZM17.016 18.1395C16.558 18.6969 15.9617 19.0728 15.266 19.263C14.9636 19.3451 14.8253 19.5049 14.8426 19.8204C14.8556 20.1315 14.8426 20.4383 14.8383 20.7494C14.8383 21.0259 14.6957 21.1728 14.4235 21.1815C14.2463 21.1858 14.0691 21.1901 13.892 21.1901C13.7364 21.1901 13.5809 21.1901 13.4253 21.1858C13.1315 21.1815 12.9932 21.013 12.9932 20.7278C12.9889 20.5031 12.9889 20.2741 12.9889 20.0494C12.9846 19.5481 12.9673 19.5309 12.4877 19.4531C11.8741 19.3537 11.2691 19.2154 10.7074 18.9432C10.2667 18.7272 10.2191 18.6191 10.3444 18.1525C10.4395 17.8068 10.5346 17.4611 10.6426 17.1198C10.7204 16.8691 10.7938 16.7568 10.9278 16.7568C11.0056 16.7568 11.1049 16.7957 11.2389 16.8648C11.8611 17.1889 12.5222 17.3704 13.2179 17.4568C13.3346 17.4698 13.4512 17.4784 13.5679 17.4784C13.892 17.4784 14.2074 17.4179 14.5142 17.284C15.2877 16.9469 15.4086 16.0525 14.7562 15.5167C14.5358 15.3352 14.2809 15.2012 14.0173 15.0846C13.3389 14.7864 12.6346 14.5617 11.9951 14.1772C10.958 13.5549 10.3012 12.7037 10.379 11.442C10.4654 10.016 11.2735 9.12593 12.5827 8.65062C13.1228 8.45617 13.1272 8.46049 13.1272 7.89877C13.1272 7.70864 13.1228 7.51852 13.1315 7.32407C13.1444 6.90062 13.2136 6.82716 13.637 6.8142C13.6846 6.8142 13.7364 6.8142 13.784 6.8142C13.866 6.8142 13.9481 6.8142 14.0302 6.8142C14.0648 6.8142 14.0994 6.8142 14.1296 6.8142C14.9333 6.8142 14.9333 6.84877 14.9377 7.71728C14.942 8.35679 14.942 8.35679 15.5772 8.45617C16.0654 8.53395 16.5278 8.67654 16.9772 8.87531C17.2235 8.98333 17.3185 9.15617 17.2407 9.41975C17.1284 9.80864 17.0204 10.2019 16.8994 10.5864C16.8216 10.8198 16.7481 10.9278 16.6099 10.9278C16.5321 10.9278 16.437 10.8975 16.316 10.837C15.6938 10.5346 15.0414 10.3877 14.3586 10.3877C14.2722 10.3877 14.1815 10.392 14.0951 10.3963C13.892 10.4093 13.6932 10.4352 13.5031 10.5173C12.829 10.8111 12.721 11.5543 13.2957 12.0123C13.5852 12.2457 13.9179 12.4099 14.2593 12.5525C14.8556 12.7988 15.4519 13.0364 16.0179 13.3475C17.7981 14.3414 18.2821 16.6012 17.016 18.1395Z" fill="#64C361"/>
</svg>
