<svg width="28" height="28" viewBox="0 0 28 28" fill="none" xmlns="http://www.w3.org/2000/svg">
<path d="M24.2774 12.336L19.6757 16.8217L20.7624 23.1571C20.8097 23.4341 20.6959 23.7141 20.4684 23.8796C20.3399 23.9734 20.1869 24.0207 20.034 24.0207C19.9166 24.0207 19.7984 23.9926 19.6905 23.9358L14.0007 20.9446L8.31169 23.935C8.06347 24.0665 7.76133 24.0451 7.5338 23.8789C7.30626 23.7134 7.1925 23.4334 7.23978 23.1564L8.32647 16.8209L3.72411 12.336C3.52317 12.1395 3.45004 11.8455 3.53721 11.5788C3.62438 11.3122 3.85561 11.1164 4.13411 11.0758L10.4939 10.1523L13.3381 4.38867C13.587 3.88411 14.4144 3.88411 14.6634 4.38867L17.5075 10.1523L23.8674 11.0758C24.1459 11.1164 24.3771 11.3114 24.4643 11.5788C24.5514 11.8463 24.4783 12.1388 24.2774 12.336Z" fill="#FEDC33"/>
</svg>
