<svg width="28" height="28" viewBox="0 0 28 28" fill="none" xmlns="http://www.w3.org/2000/svg">
<path d="M18.9875 13.1923C15.9477 13.1923 13.475 15.7285 13.475 18.8462C13.475 21.9638 15.9477 24.5 18.9875 24.5C22.0272 24.5 24.5 21.9638 24.5 18.8462C24.5 15.7285 22.0272 13.1923 18.9875 13.1923ZM18.9875 21.9423C18.5528 21.9423 18.2 21.5805 18.2 21.1346C18.2 20.6888 18.5528 20.3269 18.9875 20.3269C19.4222 20.3269 19.775 20.6888 19.775 21.1346C19.775 21.5805 19.4222 21.9423 18.9875 21.9423ZM19.775 18.9808C19.775 19.4266 19.4222 19.7885 18.9875 19.7885C18.5528 19.7885 18.2 19.4266 18.2 18.9808V16.8269C18.2 16.3811 18.5528 16.0192 18.9875 16.0192C19.4222 16.0192 19.775 16.3811 19.775 16.8269V18.9808ZM18.725 11.5877V6.46154C18.725 4.82462 17.4335 3.5 15.8375 3.5H6.3875C4.7915 3.5 3.5 4.82462 3.5 6.46154V20.4615C3.5 22.0985 4.7915 23.4231 6.3875 23.4231H13.4855C12.4985 22.1738 11.9 20.58 11.9 18.8462C11.9 14.9262 14.9345 11.7277 18.725 11.5877ZM7.4375 7.80769H14.7875C15.218 7.80769 15.575 8.17385 15.575 8.61539C15.575 9.05692 15.218 9.42308 14.7875 9.42308H7.4375C7.007 9.42308 6.65 9.05692 6.65 8.61539C6.65 8.17385 7.007 7.80769 7.4375 7.80769ZM7.4375 11.0385H14.7875C15.218 11.0385 15.575 11.4046 15.575 11.8462C15.575 12.2877 15.218 12.6538 14.7875 12.6538H7.4375C7.007 12.6538 6.65 12.2877 6.65 11.8462C6.65 11.4046 7.007 11.0385 7.4375 11.0385ZM10.5875 15.8846H7.4375C7.007 15.8846 6.65 15.5185 6.65 15.0769C6.65 14.6354 7.007 14.2692 7.4375 14.2692H10.5875C11.018 14.2692 11.375 14.6354 11.375 15.0769C11.375 15.5185 11.018 15.8846 10.5875 15.8846Z" fill="#FEDC33"/>
</svg>
