<svg width="28" height="28" viewBox="0 0 28 28" fill="none" xmlns="http://www.w3.org/2000/svg">
<path d="M24.5 10.7301C24.5005 10.8222 24.4829 10.9135 24.448 10.9988C24.4132 11.0841 24.3619 11.1617 24.297 11.2271L20.097 15.4271C20.0316 15.4919 19.954 15.5433 19.8687 15.5781C19.7834 15.6129 19.6921 15.6306 19.6 15.6301C19.509 15.6312 19.4186 15.6145 19.334 15.5811C19.2051 15.5281 19.0949 15.4378 19.0176 15.3219C18.9402 15.2059 18.8993 15.0695 18.9 14.9301V12.8301H12.6C12.4144 12.8301 12.2363 12.7563 12.105 12.625C11.9738 12.4938 11.9 12.3157 11.9 12.1301V9.33007C11.9 9.14442 11.9738 8.96637 12.105 8.8351C12.2363 8.70382 12.4144 8.63007 12.6 8.63007H18.9V6.53007C18.9006 6.39163 18.9422 6.25647 19.0196 6.14168C19.097 6.02689 19.2067 5.93763 19.3348 5.88519C19.4629 5.83274 19.6037 5.81946 19.7394 5.84703C19.8751 5.8746 19.9995 5.94178 20.097 6.04007L24.297 10.2401C24.4263 10.3705 24.4992 10.5464 24.5 10.7301ZM15.4 14.2301H9.10001V12.1301C9.09932 11.9919 9.05773 11.857 8.9805 11.7424C8.90327 11.6278 8.79384 11.5386 8.66601 11.4861C8.53853 11.4325 8.39803 11.4178 8.26224 11.444C8.12644 11.4701 8.00144 11.5359 7.90301 11.6331L3.70301 15.8331C3.63813 15.8985 3.58681 15.976 3.55197 16.0613C3.51714 16.1466 3.49948 16.2379 3.50001 16.3301C3.49948 16.4222 3.51714 16.5135 3.55197 16.5988C3.58681 16.6841 3.63813 16.7617 3.70301 16.8271L7.90301 21.0271C7.96841 21.0919 8.04599 21.1433 8.13127 21.1781C8.21656 21.2129 8.30788 21.2306 8.40001 21.2301C8.49183 21.2324 8.58293 21.2132 8.66601 21.1741C8.79384 21.1215 8.90327 21.0324 8.9805 20.9178C9.05773 20.8032 9.09932 20.6683 9.10001 20.5301V18.4301H15.4C15.5857 18.4301 15.7637 18.3563 15.895 18.225C16.0262 18.0938 16.1 17.9157 16.1 17.7301V14.9301C16.1 14.7444 16.0262 14.5664 15.895 14.4351C15.7637 14.3038 15.5857 14.2301 15.4 14.2301Z" fill="#64C361"/>
</svg>
