<svg width="22" height="22" viewBox="0 0 22 22" fill="none" xmlns="http://www.w3.org/2000/svg">
<path fill-rule="evenodd" clip-rule="evenodd" d="M20.8884 4.08106C20.9413 4.08039 20.9938 4.0912 21.0425 4.11283C21.0912 4.13603 21.1347 4.16957 21.1702 4.21131C21.2057 4.25304 21.2325 4.30205 21.2488 4.35518C21.5837 5.46989 21.5837 6.66472 21.2488 7.77943C21.2324 7.83205 21.2055 7.88047 21.17 7.92156C21.1345 7.96264 21.091 7.99546 21.0425 8.01788C20.9943 8.04105 20.9418 8.05305 20.8888 8.05305C20.8357 8.05305 20.7832 8.04105 20.735 8.01788C20.6525 7.96668 20.561 7.93307 20.4659 7.91899C20.3708 7.90491 20.274 7.91064 20.181 7.93585C20.0881 7.96107 20.0008 8.00526 19.9244 8.06587C19.8479 8.12648 19.7838 8.2023 19.7357 8.28894C19.6875 8.37558 19.6564 8.47132 19.644 8.57061C19.6316 8.66989 19.6382 8.77075 19.6635 8.86734C19.6888 8.96393 19.7322 9.05433 19.7913 9.1333C19.8503 9.21227 19.9238 9.27823 20.0075 9.32738C20.0513 9.35924 20.0879 9.40049 20.1151 9.44836C20.1423 9.49623 20.1593 9.54962 20.165 9.60491C20.1708 9.66006 20.1652 9.71587 20.1483 9.76851C20.1315 9.82114 20.1039 9.86935 20.0675 9.90981C19.3116 10.7738 18.3171 11.372 17.2213 11.6219C17.1944 11.6297 17.1667 11.6336 17.1388 11.6337C17.0596 11.6324 16.9825 11.6066 16.9175 11.5594C16.8744 11.5266 16.8387 11.4845 16.8128 11.4359C16.7869 11.3873 16.7714 11.3334 16.7675 11.2779C16.7675 11.0768 16.6909 10.8839 16.5544 10.7417C16.418 10.5995 16.233 10.5196 16.04 10.5196C15.8471 10.5196 15.662 10.5995 15.5256 10.7417C15.3892 10.8839 15.3125 11.0768 15.3125 11.2779C15.3086 11.3334 15.2932 11.3873 15.2673 11.4359C15.2414 11.4845 15.2056 11.5266 15.1625 11.5594C15.1189 11.5914 15.0693 11.6135 15.017 11.6242C14.9647 11.635 14.9108 11.6342 14.8588 11.6219C13.7629 11.372 12.7685 10.7738 12.0125 9.90981C11.9761 9.86935 11.9485 9.82114 11.9317 9.76851C11.9149 9.71587 11.9092 9.66006 11.915 9.60491C11.92 9.5494 11.9367 9.49571 11.9639 9.44772C11.9911 9.39973 12.0282 9.35863 12.0725 9.32738C12.2325 9.22009 12.3488 9.0551 12.3993 8.86397C12.4498 8.67285 12.4309 8.46902 12.3463 8.2915C12.2428 8.12318 12.0824 8.00159 11.8969 7.9509C11.7114 7.9002 11.5144 7.92411 11.345 8.01788C11.2968 8.04105 11.2444 8.05305 11.1913 8.05305C11.1382 8.05305 11.0857 8.04105 11.0375 8.01788C10.9883 7.99669 10.9442 7.96428 10.9085 7.92302C10.8728 7.88176 10.8464 7.8327 10.8313 7.77943C10.4963 6.66472 10.4963 5.46989 10.8313 4.35518C10.8463 4.3014 10.8726 4.25176 10.9083 4.20985C10.944 4.16794 10.9881 4.1348 11.0375 4.11283C11.0863 4.0912 11.1387 4.08039 11.1917 4.08106C11.2446 4.08173 11.2968 4.09388 11.345 4.11674C11.5146 4.20957 11.7113 4.23298 11.8966 4.18235C12.0818 4.13172 12.2422 4.01072 12.3463 3.84311C12.4312 3.66563 12.4502 3.46173 12.3996 3.27055C12.3491 3.07936 12.2326 2.91437 12.0725 2.80723C12.0287 2.77513 11.992 2.73363 11.9648 2.68552C11.9376 2.6374 11.9206 2.58378 11.9149 2.52826C11.9092 2.47273 11.915 2.41658 11.9318 2.36356C11.9487 2.31055 11.9762 2.26191 12.0125 2.22089C12.7695 1.3583 13.7635 0.760368 14.8588 0.508767C14.9111 0.497161 14.9651 0.497078 15.0174 0.508521C15.0697 0.519965 15.1191 0.542684 15.1625 0.575219C15.2052 0.607531 15.2407 0.649047 15.2666 0.69694C15.2924 0.744832 15.3081 0.797977 15.3125 0.852755C15.3116 0.952989 15.3296 1.05243 15.3658 1.14533C15.4019 1.23823 15.4553 1.32274 15.523 1.39398C15.5906 1.46522 15.6712 1.52177 15.7599 1.56037C15.8487 1.59896 15.9439 1.61883 16.04 1.61883C16.1362 1.61883 16.2314 1.59896 16.3201 1.56037C16.4089 1.52177 16.4894 1.46522 16.5571 1.39398C16.6247 1.32274 16.6782 1.23823 16.7143 1.14533C16.7504 1.05243 16.7685 0.952989 16.7675 0.852755C16.7719 0.797977 16.7876 0.744832 16.8135 0.69694C16.8394 0.649047 16.8749 0.607531 16.9175 0.575219C16.9609 0.542684 17.0103 0.519965 17.0627 0.508521C17.115 0.497078 17.169 0.497161 17.2213 0.508767C18.3165 0.760367 19.3105 1.3583 20.0675 2.22089C20.1042 2.26195 20.132 2.31082 20.1488 2.36414C20.1656 2.41745 20.1712 2.47394 20.165 2.5297C20.1584 2.58473 20.141 2.63775 20.1139 2.68549C20.0868 2.73323 20.0506 2.77467 20.0075 2.80723C19.8474 2.91437 19.7309 3.07936 19.6804 3.27055C19.6299 3.46173 19.6489 3.66563 19.7338 3.84311C19.8376 4.01093 19.998 4.1321 20.1834 4.18275C20.3687 4.2334 20.5655 4.20985 20.735 4.11674C20.7832 4.09388 20.8354 4.08173 20.8884 4.08106ZM15.1067 7.52339C15.3829 7.71581 15.7078 7.81852 16.04 7.81852C16.4854 7.81796 16.9124 7.63328 17.2274 7.30499C17.5423 6.97669 17.7195 6.53159 17.72 6.06731C17.72 5.72095 17.6215 5.38237 17.4369 5.09438C17.2523 4.8064 16.9899 4.58194 16.6829 4.4494C16.376 4.31685 16.0382 4.28217 15.7123 4.34974C15.3864 4.41731 15.087 4.5841 14.8521 4.82901C14.6171 5.07392 14.4571 5.38596 14.3923 5.72566C14.3275 6.06536 14.3608 6.41747 14.4879 6.73747C14.6151 7.05746 14.8304 7.33096 15.1067 7.52339Z" fill="#64C361"/>
<path d="M14.1126 13.6352C15.7003 14.4962 17.4506 14.982 19.2388 15.058C19.5587 15.0747 19.8592 15.2226 20.0749 15.4694C20.2906 15.7162 20.4039 16.0418 20.3901 16.3754L20.2251 20.296C20.2078 20.6217 20.0714 20.928 19.844 21.152C19.6166 21.376 19.3155 21.5005 19.0026 21.5H18.9613C3.3614 20.9176 0.890155 6.80622 0.503906 2.49464C0.500783 2.45825 0.499531 2.42172 0.500156 2.38519C0.49971 2.06711 0.613408 1.76036 0.818905 1.52522C0.935722 1.39672 1.07644 1.2944 1.23248 1.2245C1.38851 1.1546 1.55657 1.1186 1.7264 1.11869C2.81765 1.13432 4.65889 1.08742 5.66014 1.06005C5.66577 1.06005 5.67139 1.05908 5.67702 1.0581C5.68264 1.05712 5.68827 1.05614 5.69389 1.05614C5.99514 1.05805 6.28491 1.1768 6.50675 1.38926C6.72859 1.60171 6.8666 1.89265 6.89389 2.20538C7.06639 4.12077 7.97013 6.83359 8.24388 7.61929C8.29132 7.75918 8.30208 7.90974 8.27505 8.05542C8.24802 8.2011 8.18419 8.33661 8.09013 8.44799L7.05139 9.65976C6.98745 9.73519 6.94738 9.82934 6.93665 9.92937C6.92591 10.0294 6.94502 10.1304 6.99139 10.2187C8.27763 12.7987 10.6176 14.3857 11.5664 14.9525C11.6549 15.0034 11.7569 15.0229 11.857 15.0081C11.9571 14.9933 12.0499 14.945 12.1214 14.8704L13.1639 13.772C13.2871 13.6463 13.4458 13.5652 13.6166 13.5405C13.7874 13.5159 13.9613 13.5491 14.1126 13.6352Z" fill="#64C361"/>
</svg>
