<svg width="36" height="36" viewBox="0 0 36 36" fill="none" xmlns="http://www.w3.org/2000/svg">
<g clip-path="url(#clip0_2809_2249)">
<path d="M11.9998 24.0002L17.9998 18.0002M17.9998 18.0002L23.9998 24.0002M17.9998 18.0002V31.5002M5.41481 27.5852C3.9518 26.7876 2.79606 25.5255 2.13 23.9982C1.46394 22.4708 1.32549 20.7651 1.7365 19.1503C2.14751 17.5354 3.08458 16.1035 4.39981 15.0804C5.71503 14.0573 7.33352 13.5013 8.99981 13.5002H10.8898C11.3438 11.7441 12.1901 10.1137 13.3649 8.73171C14.5397 7.3497 16.0125 6.252 17.6727 5.52113C19.3328 4.79027 21.137 4.44526 22.9496 4.51204C24.7623 4.57883 26.5362 5.05567 28.138 5.90672C29.7399 6.75777 31.1279 7.96087 32.1979 9.42559C33.2678 10.8903 33.9918 12.5785 34.3153 14.3633C34.6389 16.1481 34.5537 17.983 34.066 19.7301C33.5783 21.4772 32.701 23.091 31.4998 24.4502" stroke="#171717" stroke-width="3" stroke-linecap="round" stroke-linejoin="round"/>
</g>
<defs>
<clipPath id="clip0_2809_2249">
<rect width="36" height="36" fill="white" transform="matrix(-1 0 0 1 36 0)"/>
</clipPath>
</defs>
</svg>
