<svg width="28" height="28" viewBox="0 0 28 28" fill="none" xmlns="http://www.w3.org/2000/svg">
<path d="M11.7176 12.6304C14.2389 12.6304 16.2828 10.5865 16.2828 8.06522C16.2828 5.54392 14.2389 3.5 11.7176 3.5C9.19626 3.5 7.15234 5.54392 7.15234 8.06522C7.15234 10.5865 9.19626 12.6304 11.7176 12.6304Z" fill="#171717"/>
<path d="M17.0083 14.7289C16.5373 14.5532 16.0279 14.457 15.4964 14.457H7.83696C5.4457 14.457 3.5 16.4027 3.5 18.794V21.9896C3.5 22.3676 3.80678 22.6744 4.18478 22.6744H14.7372C14.2676 21.8338 14 20.865 14 19.8338C14 17.637 15.2143 15.7238 17.0083 14.7289Z" fill="#171717"/>
<path d="M19.8337 15.167C17.2581 15.167 15.167 17.2581 15.167 19.8337C15.167 22.4092 17.2581 24.5003 19.8337 24.5003C22.4092 24.5003 24.5003 22.414 24.5003 19.8337C24.5003 17.2533 22.414 15.167 19.8337 15.167ZM22.7114 18.8361L19.5171 22.0303C19.1862 22.3612 18.649 22.3612 18.3181 22.0303L16.956 20.6682C16.625 20.3373 16.625 19.8001 16.956 19.4692C17.2869 19.1382 17.8241 19.1382 18.155 19.4692L18.9176 20.2317L21.5075 17.637C21.8385 17.3061 22.3756 17.3061 22.7066 17.637C23.0423 17.968 23.0423 18.5051 22.7114 18.8361Z" fill="#171717"/>
</svg>
