<svg width="22" height="22" viewBox="0 0 22 22" fill="none" xmlns="http://www.w3.org/2000/svg">
<path d="M15.9875 10.1923C12.9477 10.1923 10.475 12.7285 10.475 15.8462C10.475 18.9638 12.9477 21.5 15.9875 21.5C19.0272 21.5 21.5 18.9638 21.5 15.8462C21.5 12.7285 19.0272 10.1923 15.9875 10.1923ZM15.9875 18.9423C15.5528 18.9423 15.2 18.5805 15.2 18.1346C15.2 17.6888 15.5528 17.3269 15.9875 17.3269C16.4222 17.3269 16.775 17.6888 16.775 18.1346C16.775 18.5805 16.4222 18.9423 15.9875 18.9423ZM16.775 15.9808C16.775 16.4266 16.4222 16.7885 15.9875 16.7885C15.5528 16.7885 15.2 16.4266 15.2 15.9808V13.8269C15.2 13.3811 15.5528 13.0192 15.9875 13.0192C16.4222 13.0192 16.775 13.3811 16.775 13.8269V15.9808ZM15.725 8.58769V3.46154C15.725 1.82462 14.4335 0.5 12.8375 0.5H3.3875C1.7915 0.5 0.5 1.82462 0.5 3.46154V17.4615C0.5 19.0985 1.7915 20.4231 3.3875 20.4231H10.4855C9.4985 19.1738 8.9 17.58 8.9 15.8462C8.9 11.9262 11.9345 8.72769 15.725 8.58769ZM4.4375 4.80769H11.7875C12.218 4.80769 12.575 5.17385 12.575 5.61539C12.575 6.05692 12.218 6.42308 11.7875 6.42308H4.4375C4.007 6.42308 3.65 6.05692 3.65 5.61539C3.65 5.17385 4.007 4.80769 4.4375 4.80769ZM4.4375 8.03846H11.7875C12.218 8.03846 12.575 8.40462 12.575 8.84615C12.575 9.28769 12.218 9.65385 11.7875 9.65385H4.4375C4.007 9.65385 3.65 9.28769 3.65 8.84615C3.65 8.40462 4.007 8.03846 4.4375 8.03846ZM7.5875 12.8846H4.4375C4.007 12.8846 3.65 12.5185 3.65 12.0769C3.65 11.6354 4.007 11.2692 4.4375 11.2692H7.5875C8.018 11.2692 8.375 11.6354 8.375 12.0769C8.375 12.5185 8.018 12.8846 7.5875 12.8846Z" fill="#EC9513"/>
</svg>
