<svg width="22" height="20" viewBox="0 0 22 20" fill="none" xmlns="http://www.w3.org/2000/svg">
<path d="M19.4 4.3999H4.7C4.31514 4.3999 4 4.08477 4 3.6999C4 3.31504 4.31514 2.9999 4.7 2.9999H18.7C18.7 1.84497 17.7549 0.899902 16.6 0.899902H4C2.06816 0.899902 0.5 2.46807 0.5 4.3999V16.9999C0.5 18.1548 1.44507 19.0999 2.6 19.0999H19.4C20.5549 19.0999 21.5 18.1548 21.5 16.9999V6.4999C21.5 5.34497 20.5549 4.3999 19.4 4.3999ZM17.3 13.1499C16.5279 13.1499 15.9 12.522 15.9 11.7499C15.9 10.9778 16.5279 10.3499 17.3 10.3499C18.0721 10.3499 18.7 10.9778 18.7 11.7499C18.7 12.522 18.0721 13.1499 17.3 13.1499Z" fill="#64C361"/>
</svg>
