<svg width="28" height="28" viewBox="0 0 28 28" fill="none" xmlns="http://www.w3.org/2000/svg">
<path d="M24.5 6.46176V12.9233C24.4972 13.4223 24.2977 13.9 23.9449 14.2528C23.5921 14.6056 23.1143 14.8051 22.6154 14.8079H21.8077V9.69253C21.8077 9.04989 21.5524 8.43357 21.098 7.97916C20.6436 7.52474 20.0273 7.26946 19.3846 7.26946H8.61539C7.97274 7.26946 7.35643 7.52474 6.90201 7.97916C6.4476 8.43357 6.19231 9.04989 6.19231 9.69253V14.8079H5.38462C4.88566 14.8051 4.40794 14.6056 4.05511 14.2528C3.70229 13.9 3.50283 13.4223 3.5 12.9233V6.46176C3.50283 5.9628 3.70229 5.48509 4.05511 5.13226C4.40794 4.77944 4.88566 4.57998 5.38462 4.57715H22.6154C23.1143 4.57998 23.5921 4.77944 23.9449 5.13226C24.2977 5.48509 24.4972 5.9628 24.5 6.46176ZM20.1923 9.69253V21.5387C20.1895 22.0376 19.99 22.5154 19.6372 22.8682C19.2844 23.221 18.8067 23.4205 18.3077 23.4233H9.69231C9.19335 23.4205 8.71563 23.221 8.36281 22.8682C8.00998 22.5154 7.81052 22.0376 7.80769 21.5387V9.69253C7.81048 9.47919 7.89647 9.27536 8.04734 9.12449C8.19822 8.97362 8.40204 8.88763 8.61539 8.88484H19.3846C19.598 8.88763 19.8018 8.97362 19.9527 9.12449C20.1035 9.27536 20.1895 9.47919 20.1923 9.69253ZM16.1538 17.3818C16.1527 16.9905 16.0312 16.609 15.8057 16.2892C15.5803 15.9694 15.262 15.7267 14.8938 15.5941L13.7308 15.1848C13.6769 15.1666 13.6301 15.1318 13.5972 15.0854C13.5643 15.0389 13.547 14.9833 13.5477 14.9264C13.5505 14.854 13.5812 14.7855 13.6334 14.7353C13.6856 14.6851 13.7553 14.6571 13.8277 14.6571H14C14.2953 14.6554 14.5855 14.7335 14.84 14.8833C14.9305 14.9497 15.0339 14.9965 15.1435 15.0207C15.2532 15.0449 15.3667 15.046 15.4767 15.0239C15.5868 15.0018 15.6911 14.957 15.7829 14.8923C15.8747 14.8277 15.952 14.7446 16.0098 14.6484C16.0677 14.5522 16.1049 14.4449 16.119 14.3336C16.1331 14.2222 16.1238 14.1091 16.0918 14.0015C16.0598 13.8939 16.0056 13.7941 15.9329 13.7086C15.8601 13.6231 15.7703 13.5537 15.6692 13.5048C15.3896 13.3345 15.084 13.2108 14.7646 13.1387V12.9233C14.7646 12.7091 14.6795 12.5036 14.528 12.3522C14.3766 12.2007 14.1711 12.1156 13.9569 12.1156C13.7427 12.1156 13.5373 12.2007 13.3858 12.3522C13.2343 12.5036 13.1492 12.7091 13.1492 12.9233V13.1495C12.7713 13.2686 12.4412 13.5051 12.2068 13.8246C11.9725 14.1442 11.8462 14.5301 11.8462 14.9264C11.8473 15.3177 11.9688 15.6991 12.1943 16.0189C12.4197 16.3387 12.738 16.5814 13.1062 16.7141L14.2692 17.1233C14.3231 17.1415 14.3699 17.1763 14.4028 17.2228C14.4357 17.2692 14.453 17.3249 14.4523 17.3818C14.4495 17.4541 14.4188 17.5226 14.3666 17.5728C14.3144 17.623 14.2447 17.651 14.1723 17.651H14C13.7047 17.6528 13.4145 17.5746 13.16 17.4248C13.0695 17.3584 12.9661 17.3116 12.8565 17.2874C12.7468 17.2632 12.6333 17.2621 12.5233 17.2842C12.4132 17.3063 12.3089 17.3512 12.2171 17.4158C12.1253 17.4805 12.0481 17.5636 11.9902 17.6598C11.9323 17.756 11.8951 17.8632 11.881 17.9746C11.8669 18.086 11.8762 18.1991 11.9082 18.3067C11.9403 18.4143 11.9944 18.514 12.0671 18.5995C12.1399 18.685 12.2297 18.7544 12.3308 18.8033C12.6104 18.9737 12.916 19.0973 13.2354 19.1695V19.3848C13.2354 19.5991 13.3205 19.8045 13.472 19.956C13.6234 20.1074 13.8289 20.1925 14.0431 20.1925C14.2573 20.1925 14.4627 20.1074 14.6142 19.956C14.7657 19.8045 14.8508 19.5991 14.8508 19.3848V19.1587C15.2287 19.0396 15.5588 18.8031 15.7932 18.4835C16.0275 18.164 16.1538 17.778 16.1538 17.3818Z" fill="#9271D9"/>
</svg>
