<svg width="90" height="26" viewBox="0 0 90 26" fill="none" xmlns="http://www.w3.org/2000/svg">
<g opacity="0.5">
<path fill-rule="evenodd" clip-rule="evenodd" d="M0 12.7888C0 5.73205 5.7955 -0.0526502 12.9499 0.000361474C19.9693 0.0523692 25.6496 5.65499 25.7023 12.5784C25.7561 19.635 19.8912 25.3513 12.7366 25.3513H1.18995C0.532778 25.3513 0 24.8258 0 24.1776V12.7888ZM5.85382 12.645C5.85382 17.0803 9.08524 20.1007 13.2751 20.1007C15.9315 20.1007 17.821 19.0395 19.1903 17.4069L17.2459 15.6926C16.0958 16.8082 14.9456 17.4069 13.3299 17.4069C11.1939 17.4069 9.5234 16.1007 9.16739 13.7606H19.7927C19.7948 13.7353 19.797 13.7102 19.7991 13.6853C19.8242 13.3877 19.8475 13.1116 19.8475 12.8354C19.8475 8.69938 17.5198 5.10754 12.9191 5.10754C8.78401 5.10754 5.85382 8.48169 5.85382 12.5905V12.645ZM16.5613 11.5837H9.14001C9.44124 9.35244 10.8653 7.80142 12.8917 7.80142C15.0825 7.80142 16.3422 9.46128 16.5613 11.5837Z" fill="white"/>
<path d="M43.0615 14.5984L45.1152 17.521H47.4242L44.2275 13.0783L43.1453 14.4774L43.0615 14.5984Z" fill="white"/>
<path d="M44.2183 12.4986L47.2843 8.28491H45.0277L43.1035 11.0293L43.2036 11.1731L44.2183 12.4986Z" fill="white"/>
<path d="M38.4229 17.521L41.8164 12.833L38.5453 8.28491H40.8543L42.9884 11.3286L44.1079 12.7805L42.9359 14.2849L40.6794 17.521H38.4229Z" fill="white"/>
<path d="M34.5227 17.6865C31.8463 17.6865 29.7822 15.7448 29.7822 12.8935V12.8586C29.7822 10.2172 31.6539 8.0481 34.2953 8.0481C37.2341 8.0481 38.7209 10.3571 38.7209 13.016C38.7209 13.2084 38.7034 13.4008 38.6859 13.6107H31.8988C32.1262 15.1151 33.1933 15.9547 34.5577 15.9547C35.5898 15.9547 36.3244 15.5699 37.0591 14.8527L38.3011 15.9547C37.4265 17.0043 36.2195 17.6865 34.5227 17.6865ZM31.8813 12.2113H36.6218C36.4819 10.8469 35.6772 9.77987 34.2778 9.77987C32.9834 9.77987 32.0738 10.7769 31.8813 12.2113Z" fill="white"/>
<path d="M48.3649 20.2754V8.24052H50.4815V9.77987C51.1637 8.81778 52.1258 8.0481 53.6127 8.0481C55.7993 8.0481 57.9158 9.77986 57.9158 12.8411V12.876C57.9158 15.9372 55.8167 17.669 53.6127 17.669C52.0908 17.669 51.1287 16.8993 50.4815 16.0422V20.2754H48.3649ZM53.1229 15.8323C54.5748 15.8323 55.7643 14.6953 55.7643 12.876V12.8411C55.7643 11.0568 54.5573 9.88482 53.1229 9.88482C51.6885 9.88482 50.429 11.0743 50.429 12.8411V12.876C50.429 14.6603 51.6885 15.8323 53.1229 15.8323Z" fill="white"/>
<path d="M63.2672 17.6865C60.5908 17.6865 58.5267 15.7448 58.5267 12.8935V12.8586C58.5267 10.2172 60.3984 8.0481 63.0398 8.0481C65.9785 8.0481 67.4654 10.3571 67.4654 13.016C67.4654 13.2084 67.4479 13.4008 67.4304 13.6107H60.6433C60.8707 15.1151 61.9378 15.9547 63.3022 15.9547C64.3342 15.9547 65.0689 15.5699 65.8036 14.8527L67.0456 15.9547C66.171 17.0043 64.964 17.6865 63.2672 17.6865ZM60.6258 12.2113H65.3663C65.2264 10.8469 64.4217 9.77987 63.0223 9.77987C61.7279 9.77987 60.8182 10.7769 60.6258 12.2113Z" fill="white"/>
<path d="M68.5415 17.4766V8.24052H70.6581V10.3221C71.2353 8.94022 72.3024 7.99563 73.9292 8.0656V10.3046H73.8067C71.9525 10.3046 70.6581 11.5116 70.6581 13.9606V17.4766H68.5415Z" fill="white"/>
<path d="M78.5137 17.634C76.9569 17.634 75.8549 16.9518 75.8549 14.9227V10.0597H74.6829V8.24052H75.8549V5.7041H77.9715V8.24052H80.4554V10.0597H77.9715V14.5903C77.9715 15.4125 78.3913 15.7448 79.1085 15.7448C79.5808 15.7448 80.0006 15.6399 80.4204 15.43V17.1617C79.8956 17.4591 79.3009 17.634 78.5137 17.634Z" fill="white"/>
<path d="M89.9916 17.4766H87.8925V16.3396C87.2627 17.0918 86.3007 17.669 84.9012 17.669C83.152 17.669 81.6126 16.6719 81.6126 14.8177V14.7827C81.6126 12.7361 83.2045 11.7565 85.3561 11.7565C86.4756 11.7565 87.1928 11.914 87.91 12.1414V11.9664C87.91 10.6895 87.1053 9.98978 85.6359 9.98978C84.6039 9.98978 83.8342 10.2172 82.9946 10.567L82.4173 8.87025C83.4319 8.41545 84.429 8.10058 85.9333 8.10058C88.6621 8.10058 89.9916 9.53497 89.9916 12.0014V17.4766ZM87.945 14.1355V13.6107C87.4027 13.4008 86.6505 13.2434 85.8284 13.2434C84.4989 13.2434 83.7118 13.7857 83.7118 14.6778V14.7128C83.7118 15.5874 84.4989 16.0772 85.496 16.0772C86.8954 16.0772 87.945 15.29 87.945 14.1355Z" fill="white"/>
</g>
</svg>
