<svg width="71" height="58" viewBox="0 0 71 58" fill="none" xmlns="http://www.w3.org/2000/svg">
<path d="M50.0837 55.25V49.4167C50.0837 46.3225 48.8545 43.355 46.6666 41.1671C44.4787 38.9792 41.5112 37.75 38.417 37.75H15.0837C11.9895 37.75 9.022 38.9792 6.83408 41.1671C4.64616 43.355 3.41699 46.3225 3.41699 49.4167V55.25M67.5837 55.25V49.4167C67.5817 46.8317 66.7214 44.3206 65.1376 42.2776C63.5539 40.2346 61.3365 38.7754 58.8337 38.1292M47.167 3.12917C49.6765 3.77171 51.9009 5.23121 53.4893 7.27757C55.0777 9.32393 55.9399 11.8408 55.9399 14.4313C55.9399 17.0217 55.0777 19.5386 53.4893 21.5849C51.9009 23.6313 49.6765 25.0908 47.167 25.7333M38.417 14.4167C38.417 20.86 33.1937 26.0833 26.7503 26.0833C20.307 26.0833 15.0837 20.86 15.0837 14.4167C15.0837 7.97334 20.307 2.75 26.7503 2.75C33.1937 2.75 38.417 7.97334 38.417 14.4167Z" stroke="#817A8A" stroke-width="5" stroke-linecap="round" stroke-linejoin="round"/>
</svg>
