<svg width="24" height="24" viewBox="0 0 24 24" fill="none" xmlns="http://www.w3.org/2000/svg">
<path d="M16.0781 4.54679H20.1677C19.4279 3.80521 16.8895 1.26922 16.0781 0.460938V4.54679Z" fill="#EC1313"/>
<path d="M3.42188 22.5938C3.42188 23.3692 4.05273 24 4.82814 24H19.1721C19.9475 24 20.5783 23.3692 20.5783 22.5938V20.9531H3.42188V22.5938Z" fill="#EC1313"/>
<path fill-rule="evenodd" clip-rule="evenodd" d="M0.703133 10.4531H23.2971C23.6855 10.4531 24.0003 10.7679 24.0003 11.1563V18.8438C24.0003 19.2322 23.6855 19.547 23.2971 19.547H0.703133C0.314816 19.547 0 19.2322 0 18.8438V11.1563C0 10.7679 0.314816 10.4531 0.703133 10.4531ZM9.00459 14.6972C9.16049 14.6972 9.28298 14.7414 9.37207 14.83C9.46672 14.913 9.51405 15.0291 9.51405 15.1785V16.7968C9.51405 17.0181 9.49456 17.1896 9.45559 17.3113C9.42218 17.4331 9.36093 17.5299 9.27184 17.6018C9.18276 17.6737 9.04913 17.7346 8.87096 17.7844C8.65381 17.8508 8.40326 17.9033 8.11929 17.9421C7.8409 17.9808 7.57642 18.0002 7.32587 18.0002C6.70227 18.0002 6.16218 17.8812 5.70562 17.6433C5.24905 17.3999 4.89827 17.0541 4.65329 16.6059C4.4083 16.1523 4.28581 15.6156 4.28581 14.9959C4.28581 14.3874 4.40551 13.859 4.64493 13.4109C4.88992 12.9572 5.23791 12.6086 5.68891 12.3652C6.13991 12.1218 6.66608 12 7.26741 12C8.04134 12 8.68165 12.1992 9.18833 12.5976C9.27184 12.6639 9.33031 12.7303 9.36372 12.7967C9.39712 12.8631 9.41383 12.9461 9.41383 13.0457C9.41383 13.1895 9.37207 13.314 9.28855 13.4191C9.2106 13.5187 9.11594 13.5685 9.00459 13.5685C8.9322 13.5685 8.86539 13.5575 8.80414 13.5353C8.74846 13.5132 8.67887 13.4772 8.59535 13.4274C8.3615 13.2836 8.14713 13.1812 7.95226 13.1204C7.75738 13.0595 7.54302 13.0291 7.30917 13.0291C6.17332 13.0291 5.60539 13.6847 5.60539 14.9959C5.60539 15.6709 5.75294 16.1744 6.04804 16.5064C6.34314 16.8383 6.78857 17.0043 7.38433 17.0043C7.70727 17.0043 8.02742 16.9628 8.34479 16.8798V15.5935H7.57642C7.41496 15.5935 7.28968 15.5547 7.20059 15.4773C7.11151 15.3998 7.06696 15.2892 7.06696 15.1453C7.06696 15.0015 7.11151 14.8908 7.20059 14.8134C7.28968 14.7359 7.41496 14.6972 7.57642 14.6972H9.00459ZM12.7402 18.0002C12.3003 18.0002 11.8911 17.9504 11.5125 17.8508C11.1339 17.7457 10.8248 17.599 10.5854 17.4109C10.5019 17.3501 10.4407 17.2865 10.4017 17.2201C10.3683 17.1481 10.3516 17.0596 10.3516 16.9545C10.3516 16.8162 10.3933 16.6945 10.4769 16.5893C10.5659 16.4842 10.6662 16.4317 10.7775 16.4317C10.8388 16.4317 10.8972 16.4427 10.9529 16.4649C11.0142 16.4815 11.0865 16.5147 11.1701 16.5644C11.4095 16.7138 11.6517 16.8245 11.8967 16.8964C12.1417 16.9628 12.4117 16.996 12.7068 16.996C13.0743 16.996 13.3555 16.9351 13.5503 16.8134C13.7452 16.6917 13.8426 16.5174 13.8426 16.2906C13.8426 16.1191 13.7508 15.9808 13.567 15.8756C13.3889 15.7705 13.0687 15.6709 12.6066 15.5769C12.0888 15.4718 11.674 15.3445 11.3622 15.1951C11.0559 15.0457 10.8304 14.8604 10.6857 14.6391C10.5465 14.4178 10.4769 14.1495 10.4769 13.8341C10.4769 13.4855 10.5771 13.1729 10.7775 12.8963C10.9835 12.6142 11.2647 12.3956 11.6211 12.2407C11.983 12.0803 12.3894 12 12.8404 12C13.6311 12 14.2825 12.1964 14.7948 12.5893C14.8783 12.6556 14.9367 12.7248 14.9701 12.7967C15.0091 12.8631 15.0286 12.9461 15.0286 13.0457C15.0286 13.184 14.9841 13.3057 14.895 13.4109C14.8115 13.516 14.714 13.5685 14.6027 13.5685C14.5414 13.5685 14.4829 13.5602 14.4273 13.5436C14.3772 13.527 14.3048 13.4911 14.2101 13.4357C13.9818 13.2919 13.7703 13.184 13.5754 13.1121C13.3861 13.0402 13.1439 13.0042 12.8488 13.0042C12.5091 13.0042 12.2419 13.0706 12.047 13.2034C11.8521 13.3306 11.7547 13.5077 11.7547 13.7345C11.7547 13.8673 11.7909 13.9779 11.8633 14.0665C11.9412 14.1495 12.0665 14.2241 12.2391 14.2905C12.4173 14.3569 12.6678 14.4261 12.9908 14.498C13.748 14.664 14.2909 14.877 14.6194 15.137C14.9534 15.3971 15.1205 15.7539 15.1205 16.2076C15.1205 16.5617 15.0202 16.8743 14.8198 17.1454C14.6249 17.4165 14.3465 17.6267 13.9846 17.7761C13.6283 17.9255 13.2135 18.0002 12.7402 18.0002ZM17.4733 17.7927C17.5958 17.9089 17.7545 17.967 17.9494 17.967C18.1498 17.967 18.3085 17.9089 18.4254 17.7927C18.5424 17.6765 18.6008 17.5216 18.6008 17.3279V13.1287H19.9538C20.3659 13.1287 20.5719 12.9516 20.5719 12.5976C20.5719 12.249 20.3659 12.0747 19.9538 12.0747H15.945C15.5329 12.0747 15.3269 12.249 15.3269 12.5976C15.3269 12.9516 15.5329 13.1287 15.945 13.1287H17.2979V17.3279C17.2979 17.5216 17.3564 17.6765 17.4733 17.7927Z" fill="#EC1313"/>
<path d="M20.5783 5.9534H15.3751C14.9868 5.9534 14.672 5.63858 14.672 5.25026V0.000297478C13.5995 -0.000311904 11.0269 0.000203727 4.82814 0.000203727C4.05273 0.000203727 3.42188 0.67793 3.42188 1.45335V9.04718H20.5783V5.9534ZM10.5001 7.45341H7.12504C6.73673 7.45341 6.42191 7.1386 6.42191 6.75028C6.42191 6.36196 6.73673 6.04715 7.12504 6.04715H10.5001C10.8884 6.04715 11.2032 6.36196 11.2032 6.75028C11.2032 7.1386 10.8884 7.45341 10.5001 7.45341ZM10.5001 4.45338H7.12504C6.73673 4.45338 6.42191 4.13856 6.42191 3.75025C6.42191 3.36193 6.73673 3.04711 7.12504 3.04711H10.5001C10.8884 3.04711 11.2032 3.36193 11.2032 3.75025C11.2032 4.13856 10.8884 4.45338 10.5001 4.45338Z" fill="#EC1313"/>
</svg>
