<svg width="71" height="70" viewBox="0 0 71 70" fill="none" xmlns="http://www.w3.org/2000/svg">
<path fill-rule="evenodd" clip-rule="evenodd" d="M20.3039 19.6875C19.5971 19.6875 18.9658 19.715 18.3877 19.7873C18.3594 19.7908 18.3311 19.7938 18.3027 19.7962C14.7777 20.0976 12.4396 21.2544 10.9491 23.0075C9.43471 24.7888 8.52051 27.5077 8.52051 31.4708V43.1375C8.52051 48.7827 9.66892 51.4538 11.2682 52.8503C12.941 54.311 15.6877 54.9208 20.3039 54.9208H21.4705C22.2367 54.9208 22.951 55.165 23.489 55.4368C24.0283 55.7092 24.6298 56.131 25.0748 56.7128L25.0872 56.7292L28.5901 61.3999C29.016 61.9704 29.4171 62.074 29.6372 62.074C29.8574 62.074 30.2584 61.9704 30.6843 61.3999L30.6872 61.3958L34.1872 56.7292C35.0377 55.5949 36.3861 54.9208 37.8038 54.9208H38.9705C42.9372 54.9208 45.6555 54.0123 47.4353 52.5018C49.1861 51.0163 50.3435 48.6803 50.6451 45.1392C50.6474 45.1106 50.6506 45.0823 50.6541 45.0537C50.7264 44.4757 50.7538 43.8442 50.7538 43.1375V31.4708C50.7538 27.1577 49.6738 24.3188 47.8981 22.5432C46.1225 20.7675 43.2837 19.6875 38.9705 19.6875H20.3039ZM17.8882 15.4407C18.6959 15.3423 19.5081 15.3125 20.3039 15.3125H38.9705C43.9615 15.3125 48.1081 16.5658 50.9918 19.4496C53.8755 22.3333 55.1288 26.4798 55.1288 31.4708V43.1375C55.1288 43.9332 55.0991 44.7455 55.0005 45.5531C54.6254 49.8677 53.1289 53.4082 50.2662 55.8378C47.423 58.2502 43.5497 59.2958 38.9705 59.2958H37.8038C37.7887 59.2958 37.7656 59.2996 37.7394 59.3127C37.7134 59.3259 37.6962 59.3422 37.6872 59.3542L34.1901 64.0168C34.1898 64.0176 34.1907 64.0162 34.1901 64.0168C33.0704 65.5162 31.4435 66.449 29.6372 66.449C27.831 66.449 26.2056 65.518 25.0857 64.0188C25.0852 64.0182 25.0861 64.0194 25.0857 64.0188L21.6299 59.411C21.6049 59.3924 21.5654 59.3664 21.5155 59.3413C21.4706 59.3186 21.4323 59.304 21.4065 59.2958H20.3039C15.6159 59.2958 11.3771 58.7536 8.39054 56.1455C5.33046 53.4736 4.14551 49.159 4.14551 43.1375V31.4708C4.14551 26.8881 5.20006 23.0154 7.61587 20.1738C10.0478 17.3133 13.5863 15.8163 17.8882 15.4407Z" fill="#817A8A"/>
<path opacity="0.4" fill-rule="evenodd" clip-rule="evenodd" d="M20.6909 15.3125H38.9676C43.9586 15.3125 48.1049 16.5659 50.9886 19.4496C53.8726 22.3334 55.1259 26.4799 55.1259 31.4709V42.7487C57.3093 42.2124 58.8837 41.2429 59.99 39.9438C61.5026 38.1675 62.4176 35.4504 62.4176 31.4709V19.8042C62.4176 15.4911 61.3375 12.6522 59.5619 10.8765C57.7862 9.10089 54.9474 8.02087 50.6342 8.02087H31.9676C28.0043 8.02087 25.2855 8.93507 23.5042 10.4495C22.202 11.5565 21.2288 13.1312 20.6909 15.3125ZM20.6704 7.11624C23.512 4.70042 27.3848 3.64587 31.9676 3.64587H50.6342C55.6252 3.64587 59.7716 4.8992 62.6553 7.78293C65.5393 10.6667 66.7926 14.8132 66.7926 19.8042V31.4709C66.7926 36.0667 65.7388 39.9409 63.3209 42.7803C60.8796 45.6473 57.3251 47.1354 53.0081 47.5047C52.3504 47.561 51.7023 47.3171 51.245 46.8414C50.7874 46.3657 50.5692 45.7086 50.6511 45.0538C50.7232 44.4757 50.7509 43.8442 50.7509 43.1375V31.4709C50.7509 27.1577 49.6709 24.3188 47.8952 22.5432C46.1195 20.7676 43.2807 19.6875 38.9676 19.6875H20.3008C19.594 19.6875 18.9627 19.7151 18.3846 19.7873C17.7297 19.8692 17.0728 19.651 16.597 19.1934C16.1213 18.7359 15.8775 18.088 15.9337 17.4304C16.3032 13.1096 17.8006 9.556 20.6704 7.11624Z" fill="#817A8A"/>
<path opacity="0.4" fill-rule="evenodd" clip-rule="evenodd" d="M36.9463 38.6459C36.9463 37.035 38.2521 35.7292 39.863 35.7292H39.8892C41.5001 35.7292 42.8059 37.035 42.8059 38.6459C42.8059 40.2568 41.5001 41.5626 39.8892 41.5626H39.863C38.2521 41.5626 36.9463 40.2568 36.9463 38.6459Z" fill="#817A8A"/>
<path opacity="0.4" fill-rule="evenodd" clip-rule="evenodd" d="M26.7383 38.6459C26.7383 37.035 28.0441 35.7292 29.6549 35.7292H29.6812C31.2921 35.7292 32.5979 37.035 32.5979 38.6459C32.5979 40.2568 31.2921 41.5626 29.6812 41.5626H29.6549C28.0441 41.5626 26.7383 40.2568 26.7383 38.6459Z" fill="#817A8A"/>
<path opacity="0.4" fill-rule="evenodd" clip-rule="evenodd" d="M16.5303 38.6459C16.5303 37.035 17.8361 35.7292 19.4469 35.7292H19.4732C21.084 35.7292 22.3899 37.035 22.3899 38.6459C22.3899 40.2568 21.084 41.5626 19.4732 41.5626H19.4469C17.8361 41.5626 16.5303 40.2568 16.5303 38.6459Z" fill="#817A8A"/>
</svg>
