<svg width="28" height="28" viewBox="0 0 28 28" fill="none" xmlns="http://www.w3.org/2000/svg">
<path d="M21.4246 6.57535C19.4414 4.59221 16.8046 3.5 14 3.5C11.1954 3.5 8.55858 4.59221 6.57535 6.57535C4.59221 8.55858 3.5 11.1954 3.5 14C3.5 16.8046 4.59221 19.4414 6.57535 21.4246C8.55858 23.4078 11.1954 24.5 14 24.5C16.8046 24.5 19.4414 23.4078 21.4246 21.4246C23.4078 19.4414 24.5 16.8046 24.5 14C24.5 11.1954 23.4078 8.55858 21.4246 6.57535ZM6.81591 13.311C6.97456 11.6478 7.71358 10.0802 8.89688 8.89688C10.0802 7.71358 11.6478 6.97452 13.311 6.81591C14.9386 6.66062 16.5812 7.06483 17.9421 7.95372L7.95372 17.9421C7.06483 16.5812 6.66066 14.9383 6.81591 13.311ZM21.1758 14.77C21.0017 16.4018 20.2656 17.9406 19.1031 19.1031C17.9406 20.2656 16.4018 21.0017 14.77 21.1758C14.516 21.203 14.2611 21.2164 14.0068 21.2164C12.6526 21.2164 11.3126 20.8358 10.1664 20.116L10.1441 20.102L20.102 10.1441L20.116 10.1664C20.971 11.5279 21.3474 13.1628 21.1758 14.77Z" fill="#FEDC33"/>
</svg>
