<svg width="180" height="180" viewBox="0 0 180 180" fill="none" xmlns="http://www.w3.org/2000/svg">
<path d="M75.4431 43.8444C64.7103 33.3 54.1912 24.1719 41.0924 21.3177C36.8052 20.6819 40.124 17.7739 45.6342 15.2368C54.8859 12.2539 69.1253 28.8937 75.4431 43.8444Z" fill="#3E3E7A"/>
<path d="M71.1039 45.4426L62.0966 49.0962C42.8133 46.8125 13.2496 34.3566 29.0337 22.6388C33.4084 19.3889 40.2103 16.7904 45.6337 15.2363C44.9951 15.4456 44.384 15.7502 43.7983 16.156C41.7241 17.5961 40.9162 19.3594 41.0919 21.3173C41.777 28.9926 57.5526 39.6472 71.1039 45.4426Z" fill="#51518E"/>
<path d="M75.6191 43.6015C81.7004 33.075 87.9207 23.6975 97.5038 18.6483C100.705 17.2279 97.4931 15.68 92.6551 14.8936C84.808 14.5678 77.3118 30.597 75.6191 43.6015Z" fill="#3E3E7A"/>
<path d="M79.3428 43.9105L87.1445 44.8116C101.666 38.872 121.997 22.7932 107.178 17.0757C103.071 15.4895 97.2137 14.934 92.6553 14.8945C93.1976 14.9196 93.7391 15.0249 94.2829 15.2147C96.2087 15.8883 97.2182 17.087 97.504 18.6493C98.627 24.773 88.6432 36.4734 79.3428 43.9105Z" fill="#51518E"/>
<path d="M53.2626 117.972C47.9704 116.248 43.3376 114.32 39.5908 112.123C39.2115 102.838 38.8243 90.4972 33.7148 82.8875C34.7108 78.7179 38.2417 74.5439 43.4114 71.0342C45.8832 72.2622 56.5994 105.4 53.2626 117.972Z" fill="#8888E8"/>
<path d="M73.159 123.085C68.2387 122.057 63.5553 120.955 59.2039 119.752C54.4844 94.5031 51.8076 75.1045 51.8076 66.0018C55.7488 63.8474 59.9481 61.7349 64.0247 59.6016C73.0069 65.2342 77.6123 104.863 73.159 123.085Z" fill="#8888E8"/>
<path d="M108.371 117.971C106.12 97.3052 105.539 76.639 105.292 55.9708C108.986 53.9684 115.764 52.3824 123.594 56.4824C121.754 71.0336 124.474 104.498 126.366 111.438C124.402 113.491 117.061 115.883 108.371 117.971Z" fill="#A4A4F7"/>
<path d="M95.1745 120.733C85.4883 122.488 76.5042 123.534 73.1592 123.084C73.3915 101.421 71.5375 83.7017 65.0547 63.0287C66.6153 61.3161 75.393 52.5031 89.2518 55.7341C97.4419 76.6476 100.341 99.0276 95.1745 120.733Z" fill="#A4A4F7"/>
<path d="M44.2339 73.5393C39.78 76.7486 35.8014 80.4194 32.2832 84.4918C29.1085 82.0417 26.8637 76.7455 26.5742 71.9323C30.2701 67.2593 34.4039 62.9504 39.2013 59.0811C43.3438 61.7325 46.6697 69.4965 44.2339 73.5393Z" fill="#A4A4F7"/>
<path d="M65.0541 63.0289C60.5756 64.5216 56.3723 66.319 52.4458 68.4205C50.7808 68.4388 45.9081 57.617 47.9528 52.9854C51.7776 50.6955 55.9705 48.6317 60.599 46.8135C65.8405 65.8941 64.9547 62.6468 65.0541 63.0289Z" fill="#A4A4F7"/>
<path d="M89.6175 57.3047C81.3945 58.4592 73.2056 60.3453 65.0547 63.0283C64.4261 60.744 61.3027 49.372 60.5996 46.8129C68.7781 43.3876 76.9417 41.3008 85.1267 40.1738C88.6872 43.9207 93.4573 53.613 89.6175 57.3047Z" fill="#C5C5FF"/>
<path d="M128.878 41.1046C130.763 46.8136 129.67 53.9212 127.279 56.8402C119.984 56.0492 112.597 55.7375 105.291 55.9712C101.25 55.3616 99.6748 44.0732 102.616 39.0898C111.309 39.1383 120.05 39.9586 128.878 41.1046Z" fill="#C5C5FF"/>
<path d="M59.2034 119.752C57.1439 119.183 55.1606 118.589 53.2618 117.972C52.7367 99.0224 45.7898 76.873 39.2012 59.0812C41.8949 56.9054 44.8 54.8695 47.9527 52.9854C54.8464 74.3691 59.505 97.1053 59.2034 119.752Z" fill="#2C2C61"/>
<path d="M108.371 117.971C104.137 118.99 99.5833 119.936 95.1747 120.733C97.2249 93.5834 92.7144 65.9939 85.127 40.174C90.9438 39.3726 96.771 39.0555 102.617 39.0893C107.297 64.8037 109.335 91.1132 108.371 117.971Z" fill="#3E3E7A"/>
<path d="M141.26 81.8988C135.699 79.42 129.552 79.5005 123.868 81.638C123.382 71.2603 123.462 62.6022 124.095 57.094C126.566 57.3148 127.167 57.4035 127.287 57.4035C127.455 57.4035 127.615 57.3286 127.723 57.1974C130.157 54.2272 131.419 46.9813 129.419 40.9285C129.351 40.7232 129.171 40.5748 128.956 40.5469C118.841 39.2336 109.356 38.4133 99.8496 38.5425C104.487 35.3704 113.5 28.372 112.884 22.2877C112.631 19.7906 110.781 17.8608 107.387 16.552C103.185 14.9278 96.9425 14.3316 92.662 14.3316C88.0296 14.1514 84.0811 19.2032 81.7546 23.2446C78.8587 28.2757 76.495 35.0381 75.3937 41.4094C75.2687 41.439 75.1445 41.4708 75.0195 41.5007C68.7724 28.133 55.2085 11.5915 45.486 14.6966L45.4846 14.6969C42.2085 15.6357 34.0151 18.2452 28.7043 22.1889C24.9771 24.9558 23.4529 27.9536 24.1738 31.0987C25.2565 35.8229 31.2293 39.6664 36.0493 42.0588C41.4736 44.7511 48.3709 47.0683 55.2085 48.5151C43.291 54.063 33.9965 61.6445 26.1401 71.5847C26.0542 71.6931 26.0117 71.8294 26.0199 71.9674C26.3291 77.1498 28.7657 82.4837 31.9454 84.9386C32.1819 85.121 32.5204 85.0875 32.7155 84.8611C33.0211 84.5077 33.3311 84.1586 33.6437 83.8114C38.3201 91.3656 38.6667 103.156 39.0344 112.148C39.042 112.34 39.1468 112.514 39.3124 112.611C48.3391 117.901 62.2023 121.378 72.4176 123.508C73.125 123.656 73.4696 123.727 74.3544 123.763C79.5365 123.979 91.5066 121.971 95.2808 121.287C98.5965 120.687 101.846 120.032 104.957 119.34C108.964 133.978 123.472 140.721 137.183 134.183C143.67 131.09 148.973 125.503 152.117 118.452C158.62 103.865 153.749 87.4673 141.26 81.8988ZM127.035 56.247C119.455 55.445 112.408 55.2057 105.786 55.398C105.067 50.1345 104.237 44.8823 103.296 39.6616C110.661 39.7356 118.686 40.3588 128.456 41.6175C130.11 47.0111 129.07 53.4714 127.035 56.247ZM111.763 22.4009C112.184 26.5538 106.816 32.7485 97.7484 38.5859C93.3567 38.7138 89.1846 39.0522 85.1078 39.6112C89.3682 35.5383 97.6194 26.6127 98.1387 20.2839C98.2921 18.4122 97.7715 16.7302 96.2399 15.592C101.495 15.9364 111.236 17.196 111.763 22.4009ZM72.6071 122.39C67.8392 121.383 63.6286 120.377 59.7764 119.324C59.9406 103.629 57.6988 86.6616 53.0985 68.7043C55.0899 67.5926 58.6523 65.8873 64.695 63.7534C70.4988 82.4507 72.8048 99.5385 72.6071 122.39ZM60.2306 47.5726C60.945 50.1784 63.7043 60.2205 64.379 62.6701C58.4803 64.7505 54.8903 66.4392 52.8068 67.5788C51.5765 62.8664 50.1854 58.0869 48.6327 53.2447C52.2388 51.1136 56.0445 49.2529 60.2306 47.5726ZM65.4432 62.2953C64.7381 59.7323 61.9185 49.4652 61.281 47.1426C68.4517 44.1842 76.1523 42.0143 84.7285 40.8032C84.7285 40.8724 86.77 47.4985 88.9326 56.8367C80.1129 58.1078 71.8097 60.0358 65.4432 62.2953ZM68.0656 43.4543C55.8519 37.6783 43.2741 28.6641 41.7862 22.056C52.9625 24.7325 62.3443 31.9894 72.8068 42.0613C71.2121 42.4857 69.6324 42.9492 68.0656 43.4543ZM97.0303 19.5515C97.1362 24.6953 90.3257 33.3055 83.1558 39.8967C81.3773 40.1724 79.6246 40.4923 77.8934 40.8547C83.6232 31.2676 89.1844 23.9463 97.0303 19.5515ZM92.4528 15.4535C94.0184 15.4535 96.2855 16.3481 96.8642 18.3598C88.4767 22.9174 82.6695 30.6076 76.6603 40.7249C78.9913 28.4334 85.8036 15.4535 92.4528 15.4535ZM44.2016 16.5669C44.5784 16.3419 44.985 16.0426 45.8129 15.7742C53.9329 13.1577 66.8249 26.9875 73.7118 41.3692C62.9401 30.9855 53.2872 23.5312 41.6403 20.8657C41.6223 19.1652 42.4814 17.7203 44.2016 16.5669ZM25.2717 30.8469C24.6598 28.1778 26.0407 25.5691 29.3756 23.0931C33.0566 20.3597 38.2007 18.2748 42.0159 16.9687C40.8969 18.2241 40.3897 19.7174 40.5367 21.3678C41.1824 28.5731 54.2218 37.9709 66.5259 43.9649C63.7601 44.9087 59.8353 46.4572 56.9597 47.7213C42.8173 44.9991 26.9528 38.1821 25.2717 30.8469ZM47.6413 53.8366C55.1195 77.2323 58.8241 99.153 58.6551 119.013C56.994 118.546 55.3723 118.058 53.8199 117.559C53.3308 102.421 48.7674 83.3434 39.877 59.2671C42.32 57.3165 44.9273 55.4926 47.6413 53.8366ZM34.4302 82.9517C35.9522 81.3159 37.5462 79.7562 39.1916 78.2987C39.4244 78.0925 39.4458 77.7363 39.2397 77.5037C39.0333 77.2706 38.6774 77.2492 38.4448 77.4556C36.4942 79.1834 34.3144 81.3303 32.2247 83.7097C29.5271 81.3446 27.4847 76.6973 27.1581 72.1132C30.8328 67.4859 34.6991 63.5222 38.9525 60.0189C47.6325 83.5923 52.1267 102.312 52.6772 117.185C47.6765 115.515 43.465 113.704 40.1473 111.793C39.7719 102.606 39.3726 90.6732 34.4302 82.9517ZM73.7338 122.578C73.9464 99.4943 71.6238 82.2612 65.7591 63.3803C72.0881 61.1273 80.3731 59.2029 89.1858 57.9377C94.2164 80.0755 96.0529 100.984 94.6489 120.256C85.1607 121.958 77.1255 122.847 73.7338 122.578ZM95.7953 120.048C97.6878 93.4446 93.2649 65.9315 85.856 40.6466C91.0355 39.9657 96.3835 39.6407 102.152 39.6529C104.605 53.2196 106.313 67.0055 107.23 80.6373C107.251 80.9476 107.527 81.183 107.829 81.1613C108.14 81.1405 108.374 80.8718 108.353 80.5615C107.816 72.5759 107.007 64.5376 105.938 56.521C111.546 56.3627 117.161 56.5213 122.972 57.0008C122.328 62.6408 122.253 71.496 122.761 82.0824C109.339 87.8257 101.358 103.858 104.682 118.247C101.819 118.883 98.8384 119.489 95.7953 120.048ZM151.088 117.994C148.053 124.8 142.943 130.189 136.698 133.166C130.484 136.13 123.889 136.347 118.129 133.779C106.207 128.464 101.592 112.733 107.843 98.7132C112.683 87.8561 122.642 81.1602 132.426 81.1602C135.276 81.1602 138.111 81.7284 140.801 82.9275C152.724 88.2433 157.338 103.974 151.088 117.994Z" fill="black"/>
<g clip-path="url(#clip0_9701_5984)">
<mask id="mask0_9701_5984" style="mask-type:luminance" maskUnits="userSpaceOnUse" x="99" y="79" width="59" height="59">
<path d="M99.7162 79.7061H157.404V137.394H99.7162V79.7061Z" fill="white"/>
</mask>
<g mask="url(#mask0_9701_5984)">
<path d="M103.177 110.468C103.393 108.391 103.854 106.343 104.541 104.37C105.98 100.18 108.444 96.242 111.679 92.9873C111.923 92.716 112.196 92.4542 112.497 92.1829C112.676 92.0146 112.854 91.8462 113.043 91.6779C114.35 90.4994 115.789 89.4145 117.369 88.4324C117.566 88.3202 117.764 88.1986 117.98 88.077C122.551 85.3554 127.695 83.915 132.83 83.915C133.234 83.915 133.629 83.9244 134.034 83.9431C140.589 84.2237 146.523 86.8986 150.755 91.4814C155.401 96.4946 157.545 103.2 156.784 110.374C155.232 125.011 141.934 136.927 127.131 136.927C118.441 136.927 110.701 132.737 106.441 125.713L106.299 125.488C103.685 121.064 102.603 115.883 103.177 110.468Z" fill="#D45102"/>
<path d="M102.707 110.422C102.933 108.289 103.403 106.213 104.099 104.221C105.585 99.8717 108.096 95.9249 111.331 92.6701C111.594 92.3895 111.876 92.1089 112.168 91.8564C112.347 91.6787 112.535 91.501 112.723 91.3326C114.077 90.1168 115.544 89.0225 117.087 88.0592C117.303 87.9282 117.519 87.7973 117.735 87.6757C122.25 84.9914 127.441 83.4482 132.83 83.4482C133.244 83.4482 133.648 83.4576 134.052 83.4763C140.965 83.7756 146.937 86.6562 151.103 91.1643C155.636 96.0558 158.053 102.874 157.254 110.422C155.674 125.321 142.188 137.395 127.131 137.395C117.914 137.395 110.24 132.878 106.036 125.957C106.027 125.957 106.027 125.947 106.027 125.947C103.365 121.561 102.096 116.202 102.707 110.422ZM106.299 125.489L106.44 125.714C110.701 132.738 118.441 136.928 127.131 136.928C141.934 136.928 155.232 125.012 156.783 110.375C157.545 103.201 155.401 96.4954 150.755 91.4823C146.523 86.8994 140.589 84.2245 134.034 83.9439C133.629 83.9252 133.234 83.9159 132.83 83.9159C127.695 83.9159 122.551 85.3562 117.98 88.0779C117.764 88.1995 117.566 88.3211 117.369 88.4333C115.789 89.4153 114.35 90.5002 113.043 91.6787C112.854 91.847 112.676 92.0154 112.497 92.1837C112.196 92.455 111.923 92.7169 111.679 92.9881C108.444 96.2429 105.98 100.18 104.541 104.37C103.854 106.344 103.393 108.392 103.177 110.468C102.603 115.884 103.685 121.065 106.299 125.489Z" fill="black"/>
<path d="M106.299 125.488L106.441 125.713C110.701 132.737 118.441 136.927 127.131 136.927C141.934 136.927 155.232 125.011 156.784 110.374C157.545 103.2 155.401 96.4946 150.755 91.4814C146.523 86.8986 140.589 84.2237 134.034 83.9431C133.629 83.9244 133.234 83.915 132.83 83.915C127.695 83.915 122.551 85.3554 117.98 88.077C117.764 88.1986 117.566 88.3202 117.369 88.4324C115.789 89.4145 114.35 90.4994 113.043 91.6779C112.854 91.8462 112.676 92.0146 112.497 92.1829C112.196 92.4542 111.923 92.716 111.679 92.9873C108.444 96.242 105.98 100.18 104.541 104.37C103.854 106.343 103.393 108.391 103.177 110.468C102.603 115.883 103.685 121.064 106.299 125.488Z" fill="#D45102"/>
<path d="M101.597 117.743C101.72 118.089 101.842 118.426 101.983 118.744L102.021 118.837C102.237 119.352 102.481 119.885 102.745 120.409C103.008 120.914 103.29 121.409 103.572 121.905C103.76 122.232 103.967 122.541 104.184 122.85C104.569 123.448 105.002 124.028 105.529 124.655C105.792 124.991 106.065 125.31 106.356 125.609L106.61 125.88C106.761 126.039 106.911 126.189 107.061 126.348C111.519 130.753 117.642 133.185 124.3 133.185H124.46C129.774 133.157 135.078 131.585 139.79 128.648C140.636 128.115 141.36 127.62 142.019 127.115C142.555 126.703 143.091 126.273 143.608 125.843C144.172 125.366 144.661 124.917 145.103 124.477C145.414 124.159 145.733 123.832 146.053 123.504L146.382 123.149L146.476 123.037C149.251 119.978 151.31 116.518 152.608 112.73L152.843 111.982C152.984 111.524 153.116 111.084 153.229 110.654C153.342 110.205 153.445 109.765 153.539 109.316C153.737 108.353 153.878 107.474 153.962 106.604C154.066 105.659 154.113 104.677 154.113 103.686C154.113 103.284 154.104 102.891 154.075 102.498C154.075 102.386 154.075 102.292 154.057 102.208C154.038 101.871 154.009 101.563 153.972 101.254C153.944 100.843 153.887 100.468 153.831 100.085C153.784 99.7202 153.718 99.3648 153.643 99.0094C153.614 98.8504 153.577 98.7008 153.539 98.5511C152.994 96.0072 152.044 93.6035 150.699 91.4056C146.918 85.1579 140.41 81.1268 132.849 80.3319C131.974 80.229 131.025 80.1729 130.009 80.1729C122.767 80.1729 115.686 82.9787 110.071 88.076C106.779 91.0595 104.155 94.7165 102.481 98.654C101.362 101.254 100.648 103.976 100.356 106.726C99.9516 110.56 100.365 114.273 101.597 117.743Z" fill="#FFDF0E"/>
<path d="M101.597 117.743C101.72 118.089 101.842 118.426 101.983 118.744L102.021 118.837C102.237 119.352 102.481 119.885 102.745 120.409C103.008 120.914 103.29 121.409 103.572 121.905C103.76 122.232 103.967 122.541 104.184 122.85C104.569 123.448 105.002 124.028 105.529 124.655C105.792 124.991 106.065 125.31 106.356 125.609L106.61 125.88C106.761 126.039 106.911 126.189 107.061 126.348C111.519 130.753 117.642 133.185 124.3 133.185H124.46C129.774 133.157 135.078 131.585 139.79 128.648C140.636 128.115 141.36 127.62 142.019 127.115C142.555 126.703 143.091 126.273 143.608 125.843C144.172 125.366 144.661 124.917 145.103 124.477C145.414 124.159 145.733 123.832 146.053 123.504L146.382 123.149L146.476 123.037C149.251 119.978 151.31 116.518 152.608 112.73L152.843 111.982C152.984 111.524 153.116 111.084 153.229 110.654C153.342 110.205 153.445 109.765 153.539 109.316C153.737 108.353 153.878 107.474 153.962 106.604C154.066 105.659 154.113 104.677 154.113 103.686C154.113 103.284 154.104 102.891 154.075 102.498C154.075 102.386 154.075 102.292 154.057 102.208C154.038 101.871 154.009 101.563 153.972 101.254C153.944 100.843 153.887 100.468 153.831 100.085C153.784 99.7202 153.718 99.3648 153.643 99.0094C153.614 98.8504 153.577 98.7008 153.539 98.5511C152.994 96.0072 152.044 93.6035 150.699 91.4056C146.918 85.1579 140.41 81.1268 132.849 80.3319C131.974 80.229 131.025 80.1729 130.009 80.1729C122.767 80.1729 115.686 82.9787 110.071 88.076C106.779 91.0595 104.155 94.7165 102.481 98.654C101.362 101.254 100.648 103.976 100.356 106.726C99.9516 110.56 100.365 114.273 101.597 117.743Z" fill="#FFDF0E"/>
<path d="M109.695 122.307C113.316 126.31 118.507 128.508 124.3 128.508C136.78 128.508 147.981 118.472 149.288 106.136C149.89 100.402 148.235 95.0432 144.614 91.0402C140.993 87.0465 135.802 84.8486 130.009 84.8486C117.538 84.8486 106.328 94.8842 105.03 107.211C104.419 112.954 106.084 118.313 109.695 122.307Z" fill="#FFDF0E"/>
<path d="M101.578 118.999C101.578 118.999 101.578 119.009 101.588 119.018C102.03 120.103 102.566 121.151 103.168 122.142C103.365 122.479 103.572 122.806 103.798 123.124C104.212 123.76 104.672 124.368 105.161 124.957C105.434 125.303 105.726 125.631 106.027 125.949C106.027 125.949 106.027 125.958 106.036 125.958C106.271 126.201 106.497 126.444 106.732 126.678C111.115 131.018 117.256 133.655 124.3 133.655H124.46C130.056 133.627 135.426 131.925 140.043 129.044C140.814 128.558 141.576 128.034 142.3 127.492C143.401 126.659 144.445 125.771 145.432 124.808C145.752 124.49 146.072 124.162 146.391 123.826C146.542 123.667 146.683 123.508 146.824 123.349C149.749 120.113 151.997 116.278 153.304 112.097C153.436 111.658 153.567 111.209 153.68 110.769C153.802 110.32 153.906 109.871 154 109.413C154.188 108.506 154.338 107.589 154.432 106.654C154.536 105.653 154.583 104.662 154.583 103.689C154.583 103.277 154.573 102.875 154.545 102.473C154.545 102.37 154.545 102.258 154.527 102.164C154.508 101.837 154.479 101.519 154.442 101.201C154.414 100.799 154.357 100.406 154.291 100.013C154.244 99.6486 154.179 99.2839 154.103 98.9191C154.084 98.7508 154.047 98.5824 154.009 98.4141C154.009 98.4234 154.009 98.4328 154.009 98.4421C152.928 100.939 151.517 103.277 149.824 105.391C149.655 105.606 149.486 105.821 149.307 106.027C147.501 108.178 145.413 110.096 143.1 111.695C140.184 113.734 136.911 115.277 133.451 116.194C131.062 116.839 128.579 117.176 126.049 117.176C123.773 117.176 121.601 116.905 119.551 116.39H119.541C119.315 116.325 119.099 116.269 118.883 116.203C113.043 114.566 108.256 110.947 105.18 106.102C105.058 105.906 104.936 105.7 104.814 105.494C104.569 105.083 104.334 104.652 104.108 104.222C103.196 102.436 102.5 100.509 102.058 98.4795C102.058 98.4608 102.058 98.4328 102.039 98.4141C100.929 101.014 100.177 103.783 99.8761 106.654C99.4058 111.106 100.045 115.296 101.588 118.999H101.578Z" fill="#FEBC00"/>
<path fill-rule="evenodd" clip-rule="evenodd" d="M109.751 87.7308L111.331 92.669V92.6971L111.51 93.2115L117.961 113.357L118.723 115.733L118.873 116.201L122.795 128.453L122.955 128.93L124.46 133.653C130.056 133.625 135.426 131.923 140.043 129.042C140.814 128.556 141.576 128.041 142.301 127.49C142.846 127.069 143.391 126.638 143.909 126.199C144.435 125.75 144.943 125.292 145.432 124.805C145.752 124.487 146.072 124.16 146.391 123.823C146.542 123.664 146.673 123.515 146.824 123.356L145.122 118.053L144.953 117.501L143.09 111.693L134.654 85.3551L134.485 84.8314L134.053 83.4752L132.896 79.8651C131.955 79.7528 130.987 79.7061 130.009 79.7061C122.41 79.7061 115.215 82.7738 109.751 87.7308Z" fill="white"/>
<path d="M99.8854 106.68C100.186 103.818 100.929 101.068 102.048 98.4771C103.788 94.3806 106.459 90.7143 109.751 87.7308C115.215 82.7738 122.409 79.7061 130.008 79.7061C130.987 79.7061 131.955 79.7528 132.896 79.8651C140.824 80.6975 147.351 84.9717 151.103 91.1632C152.448 93.3705 153.436 95.8116 154 98.4397C154.037 98.5987 154.075 98.7577 154.103 98.9167C154.178 99.2815 154.244 99.6462 154.291 100.011C154.357 100.404 154.414 100.797 154.442 101.199C154.479 101.517 154.508 101.835 154.526 102.162C154.536 102.256 154.545 102.368 154.545 102.471C154.573 102.873 154.583 103.275 154.583 103.687C154.583 104.659 154.536 105.651 154.432 106.652C154.338 107.587 154.188 108.503 154 109.41C153.906 109.869 153.802 110.318 153.68 110.767C153.567 111.206 153.436 111.655 153.304 112.095C153.219 112.357 153.135 112.619 153.05 112.88C151.724 116.762 149.579 120.316 146.824 123.346C146.673 123.515 146.542 123.664 146.391 123.823C146.072 124.16 145.752 124.487 145.432 124.805C144.943 125.292 144.435 125.75 143.909 126.199C143.391 126.638 142.846 127.069 142.3 127.49C141.576 128.041 140.814 128.556 140.043 129.042C135.426 131.923 130.056 133.625 124.46 133.653H124.3C117.256 133.653 111.115 131.015 106.732 126.676C106.497 126.442 106.271 126.199 106.036 125.956C106.027 125.956 106.027 125.946 106.027 125.946C105.726 125.628 105.434 125.301 105.161 124.955C104.672 124.366 104.212 123.758 103.798 123.122C103.572 122.804 103.365 122.476 103.168 122.14C102.876 121.644 102.594 121.139 102.321 120.615C102.058 120.091 101.813 119.558 101.588 119.016C101.578 119.006 101.578 118.997 101.578 118.997C101.428 118.642 101.287 118.277 101.155 117.903C99.9418 114.48 99.4622 110.682 99.8854 106.68ZM101.597 117.744C101.719 118.09 101.842 118.427 101.983 118.745L102.02 118.838C102.237 119.353 102.481 119.886 102.744 120.41C103.008 120.915 103.29 121.41 103.572 121.906C103.76 122.233 103.967 122.542 104.183 122.851C104.569 123.449 105.002 124.029 105.528 124.656C105.792 124.992 106.064 125.31 106.356 125.61L106.61 125.881C106.76 126.04 106.911 126.189 107.061 126.349C111.519 130.754 117.641 133.185 124.3 133.185H124.46C129.773 133.157 135.078 131.586 139.789 128.649C140.636 128.116 141.36 127.621 142.018 127.115C142.554 126.704 143.09 126.274 143.608 125.843C144.172 125.366 144.661 124.917 145.103 124.478C145.413 124.16 145.733 123.832 146.053 123.505L146.382 123.15L146.476 123.038C149.25 119.979 151.31 116.519 152.608 112.731L152.843 111.983C152.984 111.524 153.116 111.085 153.228 110.654C153.341 110.206 153.445 109.766 153.539 109.317C153.736 108.354 153.877 107.475 153.962 106.605C154.066 105.66 154.113 104.678 154.113 103.687C154.113 103.284 154.103 102.892 154.075 102.499C154.075 102.387 154.075 102.293 154.056 102.209C154.037 101.872 154.009 101.564 153.971 101.255C153.943 100.843 153.887 100.469 153.83 100.086C153.784 99.7211 153.718 99.3656 153.642 99.0102C153.614 98.8512 153.576 98.7016 153.539 98.5519C152.993 96.008 152.044 93.6043 150.699 91.4064C146.918 85.1587 140.41 81.1277 132.849 80.3327C131.974 80.2298 131.024 80.1737 130.008 80.1737C122.767 80.1737 115.685 82.9795 110.071 88.0768C106.779 91.0603 104.155 94.7173 102.481 98.6548C101.362 101.255 100.647 103.977 100.356 106.726C99.9512 110.561 100.365 114.274 101.597 117.744Z" fill="black"/>
<path d="M139.985 111.549L136.072 109.402L135.642 109.161L135.421 109.604C134.567 111.323 133.206 112.358 131.276 112.733C130.067 112.967 128.918 112.923 127.833 112.61C126.732 112.271 125.779 111.703 124.971 110.897C124.173 110.09 123.597 109.097 123.236 107.928C122.883 106.749 122.829 105.682 123.059 104.695C123.308 103.703 123.809 102.882 124.581 102.218L124.59 102.216C125.347 101.526 126.321 101.061 127.53 100.826C129.469 100.45 131.312 100.864 133.092 102.091L133.49 102.366L133.757 101.962L135.984 98.6247L136.235 98.2425L135.868 97.9802C134.479 96.9921 132.931 96.3205 131.218 95.9858C129.532 95.6366 127.761 95.6465 125.915 96.0046C123.717 96.4308 121.853 97.2879 120.348 98.5705C118.851 99.8422 117.834 101.411 117.314 103.275C116.907 104.735 116.86 106.268 117.168 107.857C117.25 108.279 117.361 108.706 117.493 109.137C118.122 111.197 119.193 112.961 120.7 114.413L120.71 114.411C122.223 115.842 124.008 116.848 126.047 117.434C128.103 118.007 130.224 118.072 132.402 117.649C134.249 117.291 135.839 116.649 137.172 115.714C138.513 114.778 139.517 113.583 140.18 112.159L140.361 111.761L139.985 111.549ZM139.759 111.964C139.128 113.306 138.171 114.444 136.905 115.328C135.641 116.221 134.095 116.845 132.313 117.19C130.208 117.599 128.145 117.532 126.172 116.991C124.214 116.427 122.489 115.437 121.027 114.073C119.589 112.685 118.55 110.981 117.946 109.002C117.343 107.032 117.283 105.139 117.759 103.398C118.26 101.634 119.233 100.13 120.648 98.9315C122.086 97.7 123.88 96.8756 126.004 96.4637C127.786 96.1181 129.508 96.108 131.125 96.4422C132.76 96.7729 134.264 97.4148 135.598 98.366L133.362 101.705C131.494 100.42 129.5 99.9681 127.441 100.367C126.167 100.615 125.105 101.116 124.274 101.868C123.437 102.592 122.876 103.501 122.606 104.582C122.346 105.662 122.41 106.831 122.793 108.062C123.166 109.295 123.784 110.356 124.632 111.221C125.498 112.081 126.528 112.701 127.689 113.057C128.865 113.391 130.091 113.439 131.365 113.192C133.424 112.793 134.928 111.653 135.844 109.808L139.757 111.955L139.759 111.964Z" fill="black"/>
<path d="M139.757 111.954C139.128 113.305 138.17 114.443 136.905 115.327C135.641 116.22 134.095 116.844 132.313 117.189C130.208 117.598 128.145 117.531 126.172 116.99C124.214 116.426 122.489 115.436 121.027 114.072C119.589 112.684 118.55 110.98 117.945 109.001C117.343 107.031 117.282 105.138 117.759 103.397C118.26 101.633 119.233 100.129 120.648 98.9306C122.086 97.699 123.88 96.8746 126.004 96.4627C127.785 96.1171 129.508 96.107 131.125 96.4412C132.76 96.7719 134.264 97.4139 135.598 98.365L133.362 101.705C131.494 100.419 129.5 99.9671 127.441 100.366C126.167 100.614 125.105 101.115 124.274 101.867C123.437 102.591 122.876 103.5 122.606 104.581C122.346 105.661 122.41 106.83 122.793 108.061C123.166 109.294 123.784 110.355 124.631 111.22C125.498 112.08 126.528 112.7 127.689 113.056C128.865 113.39 130.091 113.438 131.365 113.191C133.424 112.792 134.927 111.652 135.844 109.807L139.757 111.954Z" fill="#D45102"/>
<path d="M104.56 107.165C105.886 94.6045 117.303 84.3818 130.009 84.3818C135.943 84.3818 141.257 86.6359 144.962 90.7324C148.667 94.8289 150.37 100.319 149.749 106.193C148.423 118.753 137.006 128.976 124.3 128.976C118.366 128.976 113.062 126.722 109.347 122.625C105.641 118.529 103.939 113.039 104.56 107.165ZM109.695 122.307C113.315 126.311 118.507 128.508 124.3 128.508C136.78 128.508 147.981 118.473 149.288 106.136C149.89 100.403 148.235 95.044 144.614 91.041C140.993 87.0474 135.802 84.8495 130.009 84.8495C117.538 84.8495 106.328 94.885 105.03 107.212C104.419 112.955 106.083 118.314 109.695 122.307Z" fill="black"/>
</g>
</g>
<path d="M151.5 76C150.395 85.2477 150.72 87.9699 143 89C150.589 90.2628 150.699 93.1107 151.5 102C152.556 93.0588 152.35 90.3804 160 89C152.29 87.9854 152.55 85.2368 151.5 76Z" fill="white" stroke="black" stroke-width="0.5"/>
<path d="M24.237 41C21.9952 59.2986 22.6561 64.6852 7 66.7235C22.3903 69.2222 22.6118 74.8575 24.237 92.447C26.3777 74.7549 25.9608 69.455 41.474 66.7235C25.8397 64.7158 26.3661 59.2771 24.237 41Z" fill="white" stroke="black" stroke-width="0.5"/>
<defs>
<clipPath id="clip0_9701_5984">
<rect width="57.6881" height="57.6881" fill="white" transform="translate(99.7158 79.7061)"/>
</clipPath>
</defs>
</svg>
