<svg width="20" height="24" viewBox="0 0 20 24" fill="none" xmlns="http://www.w3.org/2000/svg">
<path d="M5.64494 15.127C5.43027 15.127 5.2856 15.148 5.21094 15.169V16.5433C5.2996 16.5643 5.41044 16.5701 5.56327 16.5701C6.1221 16.5701 6.46627 16.2878 6.46627 15.8106C6.46627 15.3836 6.16994 15.127 5.64494 15.127ZM9.71308 15.141C9.47975 15.141 9.32808 15.162 9.23825 15.183V18.228C9.32808 18.249 9.47275 18.249 9.60341 18.249C10.5566 18.256 11.1772 17.731 11.1772 16.6203C11.1842 15.652 10.6184 15.141 9.71308 15.141Z" fill="#95A4B7"/>
<path d="M12.3337 0.333496H3.00033C2.38149 0.333496 1.788 0.579324 1.35041 1.01692C0.912821 1.4545 0.666992 2.04799 0.666992 2.66683V21.3335C0.666992 21.9523 0.912821 22.5458 1.35041 22.9834C1.788 23.421 2.38149 23.6668 3.00033 23.6668H17.0003C17.6191 23.6668 18.2126 23.421 18.6502 22.9834C19.0878 22.5458 19.3337 21.9523 19.3337 21.3335V7.3335L12.3337 0.333496ZM7.08133 16.8885C6.72083 17.2268 6.18883 17.3785 5.56932 17.3785C5.4492 17.3798 5.32914 17.3728 5.20999 17.3575V19.0212H4.16699V14.4292C4.63768 14.3589 5.1133 14.327 5.58916 14.3335C6.23899 14.3335 6.70099 14.4572 7.01249 14.7057C7.30883 14.9413 7.50949 15.3275 7.50949 15.7825C7.50833 16.2398 7.35666 16.626 7.08133 16.8885ZM11.5228 18.4693C11.0328 18.8765 10.2873 19.0702 9.37616 19.0702C8.83016 19.0702 8.44399 19.0352 8.18149 19.0002V14.4303C8.65236 14.3616 9.12778 14.3292 9.60366 14.3335C10.4868 14.3335 11.0608 14.4922 11.5088 14.8305C11.993 15.1898 12.2963 15.7627 12.2963 16.5852C12.2963 17.4753 11.9708 18.0902 11.5228 18.4693ZM15.8337 15.2318H14.0463V16.2947H15.717V17.151H14.0463V19.0223H12.9893V14.3685H15.8337V15.2318ZM12.3337 8.50016H11.167V2.66683L17.0003 8.50016H12.3337Z" fill="#95A4B7"/>
</svg>
