<svg width="375" height="407" viewBox="0 0 375 407" fill="none" xmlns="http://www.w3.org/2000/svg">
<g clip-path="url(#clip0_2842_18260)">
<path d="M170.446 -88.6309H203.922L187.184 233.183L170.446 -88.6309Z" fill="#FEE04C"/>
<path d="M87.7266 -73.3325L120.06 -81.9961L187.184 233.184L87.7266 -73.3325Z" fill="#FEE04C"/>
<path d="M11.7822 -37.1471L40.773 -53.8848L187.185 233.184L11.7822 -37.1471Z" fill="#FEE04C"/>
<path d="M-52.208 17.4628L-28.538 -6.20898L187.185 233.184L-52.208 17.4628Z" fill="#FEE04C"/>
<path d="M-99.8838 86.7701L-83.1461 57.7793L187.185 233.182L-99.8838 86.7701Z" fill="#FEE04C"/>
<path d="M-127.996 166.06L-119.332 133.727L187.184 233.184L-127.996 166.06Z" fill="#FEE04C"/>
<path d="M-134.63 249.921V216.445L187.184 233.183L-134.63 249.921Z" fill="#FEE04C"/>
<path d="M-119.332 332.641L-127.996 300.307L187.184 233.182L-119.332 332.641Z" fill="#FEE04C"/>
<path d="M-83.1461 408.584L-99.8838 379.595L187.185 233.182L-83.1461 408.584Z" fill="#FEE04C"/>
<path d="M-28.538 472.574L-52.208 448.904L187.185 233.182L-28.538 472.574Z" fill="#FEE04C"/>
<path d="M40.773 520.25L11.7822 503.513L187.185 233.182L40.773 520.25Z" fill="#FEE04C"/>
<path d="M120.06 548.364L87.7266 539.7L187.184 233.182L120.06 548.364Z" fill="#FEE04C"/>
<path d="M203.922 554.998H170.446L187.184 233.182L203.922 554.998Z" fill="#FEE04C"/>
<path d="M286.644 539.7L254.31 548.364L187.185 233.182L286.644 539.7Z" fill="#FEE04C"/>
<path d="M362.587 503.513L333.598 520.25L187.185 233.182L362.587 503.513Z" fill="#FEE04C"/>
<path d="M426.577 448.904L402.907 472.574L187.185 233.182L426.577 448.904Z" fill="#FEE04C"/>
<path d="M474.253 379.595L457.515 408.584L187.185 233.182L474.253 379.595Z" fill="#FEE04C"/>
<path d="M502.367 300.307L493.703 332.641L187.185 233.182L502.367 300.307Z" fill="#FEE04C"/>
<path d="M509.001 216.445V249.921L187.185 233.183L509.001 216.445Z" fill="#FEE04C"/>
<path d="M493.703 133.727L502.367 166.06L187.185 233.184L493.703 133.727Z" fill="#FEE04C"/>
<path d="M457.515 57.7793L474.253 86.7701L187.185 233.182L457.515 57.7793Z" fill="#FEE04C"/>
<path d="M402.907 -6.20898L426.577 17.4628L187.185 233.184L402.907 -6.20898Z" fill="#FEE04C"/>
<path d="M333.598 -53.8848L362.587 -37.1471L187.185 233.184L333.598 -53.8848Z" fill="#FEE04C"/>
<path d="M254.31 -81.9961L286.644 -73.3325L187.185 233.184L254.31 -81.9961Z" fill="#FEE04C"/>
</g>
<defs>
<clipPath id="clip0_2842_18260">
<rect width="375" height="407" fill="white"/>
</clipPath>
</defs>
</svg>
