<svg width="28" height="28" viewBox="0 0 28 28" fill="none" xmlns="http://www.w3.org/2000/svg">
<path fill-rule="evenodd" clip-rule="evenodd" d="M20.6959 19.7688L17.8934 18.1509C17.3489 17.8365 16.6462 18.0238 16.332 18.5689L16.2214 18.7607C15.9414 19.2465 15.5106 19.556 14.9614 19.6685C14.4145 19.7806 13.8928 19.6633 13.4462 19.3283C12.5296 18.6406 11.6637 17.8813 10.8536 17.0712C10.0436 16.2612 9.2843 15.3954 8.59684 14.4789C8.26179 14.0322 8.14411 13.5105 8.25617 12.9634C8.36863 12.4143 8.67887 11.9841 9.16429 11.704L9.35596 11.5934C9.62178 11.44 9.80787 11.1946 9.88736 10.8984C9.96648 10.6036 9.92718 10.2965 9.77448 10.032L8.15642 7.22953C7.8691 6.73189 7.27622 6.5344 6.74281 6.73911L6.70799 6.75248C6.15822 6.96338 4.64298 7.51685 4.23577 7.92405C3.0316 9.12827 3.54683 11.3068 4.08406 12.6931C5.02491 15.1209 6.80963 17.4578 8.6386 19.2865C10.4673 21.115 12.804 22.9002 15.2317 23.8411C16.0739 24.1675 17.0218 24.4251 17.9311 24.4251C18.6921 24.4251 19.4495 24.2409 20.0011 23.6893C20.3892 23.3012 20.965 21.7385 21.176 21.2078L21.1895 21.1737C21.4001 20.6439 21.1881 20.0529 20.6959 19.7688ZM19.8327 8.7752C20.0977 8.87016 20.2744 9.12154 20.2744 9.40287V12.5939H20.3986C20.7665 12.5939 21.0653 12.8927 21.0653 13.2607C21.0653 13.629 20.767 13.9274 20.3986 13.9274H20.2744V14.6655C20.2744 15.0339 19.9756 15.3321 19.6076 15.3321C19.2395 15.3321 18.9411 15.0339 18.9411 14.6655V13.9274H16.4327C16.1748 13.9274 15.9399 13.7786 15.8298 13.5457C15.7197 13.3124 15.7539 13.0366 15.9176 12.8374L19.0926 8.97901C19.2713 8.76188 19.5677 8.68029 19.8327 8.7752ZM18.9411 12.594H17.845L18.9411 11.2622V12.594ZM14.4222 11.2775C14.5446 10.8288 14.4727 10.4946 14.2071 10.2845C13.8983 10.0403 13.3841 9.99706 13.0362 10.1866C12.7857 10.323 12.6798 10.5529 12.7118 10.8901C12.7474 11.2567 12.4789 11.5826 12.1123 11.6175C11.7455 11.6531 11.4202 11.3842 11.3848 11.018C11.3005 10.1419 11.6698 9.41185 12.3981 9.01519C13.2191 8.56861 14.3034 8.6602 15.0347 9.23909C15.7277 9.78731 15.9735 10.6587 15.7085 11.6287C15.5281 12.2898 14.9037 12.7765 14.2435 13.2923C13.9616 13.5121 13.662 13.7458 13.3904 13.9988H15.3278C15.6959 13.9988 15.9943 14.2976 15.9943 14.6655C15.9943 15.0339 15.6959 15.3321 15.3278 15.3321H12.0331C11.8035 15.3321 11.5898 15.2141 11.468 15.0195C11.3459 14.8251 11.3331 14.5812 11.4332 14.3746C11.8869 13.44 12.7386 12.7751 13.4229 12.2411C13.8395 11.9156 14.3583 11.5109 14.4222 11.2775ZM24.5 12.2578C24.5 14.5771 23.5966 16.7574 21.9566 18.3976C21.8263 18.5275 21.6558 18.593 21.4851 18.593C21.3146 18.593 21.1436 18.5275 21.0137 18.3976C20.7533 18.1371 20.7533 17.7149 21.0137 17.4545C22.4017 16.0665 23.1665 14.2207 23.1665 12.2578C23.1665 8.20476 19.8695 4.90772 15.8164 4.90772C13.8533 4.90772 12.0077 5.67237 10.6196 7.06034C10.3591 7.32079 9.93707 7.32079 9.67662 7.06034C9.41617 6.79989 9.41617 6.37784 9.67662 6.11739C11.3168 4.47763 13.4971 3.57422 15.8164 3.57422C20.6044 3.57426 24.5 7.46964 24.5 12.2578Z" fill="#EC1313"/>
</svg>
