<svg width="28" height="28" viewBox="0 0 28 28" fill="none" xmlns="http://www.w3.org/2000/svg">
<path d="M11.7176 12.6304C14.2389 12.6304 16.2828 10.5865 16.2828 8.06522C16.2828 5.54392 14.2389 3.5 11.7176 3.5C9.19626 3.5 7.15234 5.54392 7.15234 8.06522C7.15234 10.5865 9.19626 12.6304 11.7176 12.6304Z" fill="#FEDC33"/>
<path d="M14.031 22.4913C13.5553 21.6678 13.6503 20.6534 14.2164 19.9348C13.6503 19.2162 13.5553 18.2028 14.031 17.3783L14.7697 16.1C15.176 15.3961 15.9338 14.9587 16.7473 14.9587C16.8587 14.9587 16.9683 14.9669 17.077 14.9825C17.1071 14.9076 17.1454 14.8373 17.1829 14.7661C16.6898 14.5716 16.1575 14.4565 15.5978 14.4565H7.83696C5.4457 14.4565 3.5 16.4022 3.5 18.7935V21.9892C3.5 22.3672 3.80678 22.6739 4.18478 22.6739H14.136L14.031 22.4913Z" fill="#FEDC33"/>
<path d="M23.3163 20.3631C23.3346 20.2215 23.3592 20.0809 23.3592 19.9348C23.3592 19.7878 23.3337 19.6482 23.3163 19.5066L24.139 18.8839C24.3225 18.7452 24.3736 18.4913 24.2586 18.2914L23.5199 17.0131C23.4049 16.8141 23.1593 16.731 22.9475 16.8205L22.0006 17.2195C21.7696 17.0432 21.524 16.888 21.2528 16.7748L21.1268 15.7695C21.0976 15.5413 20.9041 15.3696 20.674 15.3696H19.1976C18.9675 15.3696 18.773 15.5413 18.7447 15.7695L18.6187 16.7748C18.3475 16.888 18.101 17.0442 17.8709 17.2195L16.9241 16.8205C16.7123 16.731 16.4667 16.8132 16.3516 17.0131L15.613 18.2914C15.4979 18.4904 15.5491 18.7442 15.7326 18.8839L16.5552 19.5066C16.537 19.6482 16.5123 19.7888 16.5123 19.9348C16.5123 20.0818 16.5379 20.2215 16.5552 20.3631L15.7326 20.9858C15.5491 21.1245 15.4979 21.3784 15.613 21.5783L16.3516 22.8575C16.4667 23.0565 16.7123 23.1396 16.9241 23.0502L17.8709 22.6502C18.1019 22.8265 18.3475 22.9817 18.6187 23.0949L18.7447 24.1002C18.773 24.3284 18.9666 24.5001 19.1967 24.5001H20.6731C20.9031 24.5001 21.0976 24.3284 21.1259 24.1002L21.2519 23.0949C21.5231 22.9817 21.7696 22.8255 21.9997 22.6502L22.9465 23.0492C23.1584 23.1387 23.404 23.0565 23.519 22.8566L24.2577 21.5774C24.3727 21.3784 24.3216 21.1245 24.1381 20.9848L23.3163 20.3631ZM19.9353 21.7609C18.9264 21.7609 18.1092 20.9438 18.1092 19.9348C18.1092 18.9259 18.9264 18.1088 19.9353 18.1088C20.9442 18.1088 21.7614 18.9259 21.7614 19.9348C21.7614 20.9438 20.9442 21.7609 19.9353 21.7609Z" fill="#FEDC33"/>
</svg>
