<svg width="18" height="18" viewBox="0 0 18 18" fill="none" xmlns="http://www.w3.org/2000/svg">
<path d="M11.1445 1.09058H1.58203C0.706605 1.09058 0 1.79718 0 2.67261V9.00073C0 9.87609 0.706605 10.5828 1.58203 10.5828H2.10938V12.1648C2.10938 12.5458 2.50386 12.8217 2.88984 12.6289C2.90039 12.6183 2.92152 12.6183 2.93207 12.6077C5.83302 10.6624 5.18288 11.0961 5.83246 10.6671C5.9168 10.6144 6.01172 10.5828 6.11719 10.5828H11.1445C12.02 10.5828 12.7266 9.87609 12.7266 9.00073V2.67261C12.7266 1.79718 12.02 1.09058 11.1445 1.09058ZM6.92578 7.4187H2.63672C1.94157 7.4187 1.93873 6.36401 2.63672 6.36401H6.92578C7.62093 6.36401 7.62377 7.4187 6.92578 7.4187ZM10.0898 5.30933H2.63672C1.94157 5.30933 1.93873 4.25464 2.63672 4.25464H10.0898C10.785 4.25464 10.7878 5.30933 10.0898 5.30933Z" fill="#95A4B7"/>
<path d="M16.418 5.30933H13.7812V9.00073C13.7812 10.4562 12.6 11.6375 11.1445 11.6375H6.27539L5.27344 12.3019V13.2195C5.27344 14.0948 5.98004 14.8015 6.85547 14.8015H12.041L15.0679 16.8265C15.4811 17.0559 15.8906 16.7769 15.8906 16.3835V14.8015H16.418C17.2934 14.8015 18 14.0948 18 13.2195V6.89136C18 6.01597 17.2934 5.30933 16.418 5.30933Z" fill="#95A4B7"/>
</svg>
