<svg width="18" height="18" viewBox="0 0 18 18" fill="none" xmlns="http://www.w3.org/2000/svg">
<path d="M14.0625 9.50006V2.25C14.0625 1.80245 13.8847 1.37322 13.5682 1.05676C13.2518 0.74029 12.8226 0.5625 12.375 0.5625H3.375C2.92745 0.5625 2.49822 0.74029 2.18176 1.05676C1.86529 1.37322 1.6875 1.80245 1.6875 2.25V14.625C1.6875 15.0726 1.86529 15.5018 2.18176 15.8182C2.49822 16.1347 2.92745 16.3125 3.375 16.3125H9.23344C9.67292 16.721 10.1946 17.031 10.7636 17.2215C11.3326 17.4121 11.9357 17.4789 12.5326 17.4174C13.1295 17.356 13.7064 17.1677 14.2246 16.8652C14.7428 16.5627 15.1904 16.1529 15.5375 15.6634C15.8845 15.1738 16.1229 14.6158 16.2367 14.0267C16.3506 13.4375 16.3372 12.8308 16.1975 12.2473C16.0579 11.6637 15.7952 11.1167 15.4269 10.6429C15.0587 10.1691 14.5935 9.77947 14.0625 9.50006ZM5.0625 4.5H10.6875C10.8367 4.5 10.9798 4.55926 11.0852 4.66475C11.1907 4.77024 11.25 4.91332 11.25 5.0625C11.25 5.21168 11.1907 5.35476 11.0852 5.46025C10.9798 5.56574 10.8367 5.625 10.6875 5.625H5.0625C4.91332 5.625 4.77024 5.56574 4.66475 5.46025C4.55926 5.35476 4.5 5.21168 4.5 5.0625C4.5 4.91332 4.55926 4.77024 4.66475 4.66475C4.77024 4.55926 4.91332 4.5 5.0625 4.5ZM5.0625 7.3125H10.6875C10.8367 7.3125 10.9798 7.37176 11.0852 7.47725C11.1907 7.58274 11.25 7.72582 11.25 7.875C11.25 8.02418 11.1907 8.16726 11.0852 8.27275C10.9798 8.37824 10.8367 8.4375 10.6875 8.4375H5.0625C4.91332 8.4375 4.77024 8.37824 4.66475 8.27275C4.55926 8.16726 4.5 8.02418 4.5 7.875C4.5 7.72582 4.55926 7.58274 4.66475 7.47725C4.77024 7.37176 4.91332 7.3125 5.0625 7.3125ZM6.1875 11.25H5.0625C4.91332 11.25 4.77024 11.1907 4.66475 11.0852C4.55926 10.9798 4.5 10.8367 4.5 10.6875C4.5 10.5383 4.55926 10.3952 4.66475 10.2898C4.77024 10.1843 4.91332 10.125 5.0625 10.125H6.1875C6.33668 10.125 6.47976 10.1843 6.58525 10.2898C6.69074 10.3952 6.75 10.5383 6.75 10.6875C6.75 10.8367 6.69074 10.9798 6.58525 11.0852C6.47976 11.1907 6.33668 11.25 6.1875 11.25ZM12.0938 16.3125C11.636 16.3125 11.184 16.211 10.7703 16.0152C10.3565 15.8194 9.99139 15.5342 9.70118 15.1802C9.41098 14.8263 9.20293 14.4123 9.09204 13.9682C8.98116 13.5241 8.97019 13.061 9.05994 12.6121C9.1497 12.1633 9.33792 11.74 9.61106 11.3726C9.88419 11.0053 10.2354 10.7032 10.6394 10.4881C11.0434 10.2729 11.4902 10.1501 11.9474 10.1285C12.4046 10.1068 12.8609 10.1869 13.2834 10.3629C13.9436 10.638 14.4881 11.1333 14.8243 11.7645C15.1605 12.3958 15.2676 13.1241 15.1273 13.8254C14.9871 14.5267 14.6082 15.1578 14.0551 15.6112C13.5021 16.0647 12.8089 16.3125 12.0938 16.3125Z" fill="#95A4B7"/>
<path d="M13.0499 12.0375L11.7517 13.7689L11.0851 13.1023C10.979 12.9999 10.8369 12.9432 10.6894 12.9444C10.542 12.9457 10.4009 13.0049 10.2966 13.1092C10.1923 13.2135 10.1331 13.3545 10.1319 13.502C10.1306 13.6495 10.1873 13.7916 10.2897 13.8977L11.4147 15.0227C11.4722 15.0788 11.5408 15.1221 11.6162 15.1498C11.6916 15.1775 11.772 15.1888 11.8521 15.1831C11.9322 15.1774 12.0102 15.1548 12.0809 15.1168C12.1516 15.0788 12.2135 15.0262 12.2624 14.9625L13.9499 12.7125C14.0394 12.5932 14.0779 12.4431 14.0568 12.2955C14.0357 12.1478 13.9568 12.0145 13.8374 11.925C13.7181 11.8355 13.5681 11.7971 13.4204 11.8182C13.2727 11.8393 13.1394 11.9182 13.0499 12.0375Z" fill="#95A4B7"/>
</svg>
