<svg width="28" height="28" viewBox="0 0 28 28" fill="none" xmlns="http://www.w3.org/2000/svg">
<path fill-rule="evenodd" clip-rule="evenodd" d="M20.6959 19.7693L17.8934 18.1514C17.3489 17.837 16.6462 18.0243 16.332 18.5694L16.2214 18.7612C15.9414 19.247 15.5106 19.5565 14.9614 19.669C14.4145 19.7811 13.8928 19.6638 13.4462 19.3288C12.5296 18.6411 11.6637 17.8818 10.8536 17.0717C10.0436 16.2617 9.2843 15.3959 8.59684 14.4794C8.26179 14.0327 8.14411 13.511 8.25617 12.9638C8.36863 12.4148 8.67887 11.9846 9.16429 11.7045L9.35596 11.5939C9.62178 11.4405 9.80787 11.1951 9.88736 10.8989C9.96648 10.604 9.92718 10.297 9.77448 10.0325L8.15642 7.23002C7.8691 6.73238 7.27622 6.53489 6.74281 6.7396L6.70799 6.75297C6.15822 6.96387 4.64298 7.51733 4.23577 7.92454C3.0316 9.12876 3.54683 11.3073 4.08406 12.6935C5.02491 15.1214 6.80963 17.4583 8.6386 19.287C10.4673 21.1155 12.804 22.9007 15.2317 23.8416C16.0739 24.168 17.0218 24.4256 17.9311 24.4256C18.6921 24.4256 19.4495 24.2414 20.0011 23.6898C20.3892 23.3017 20.965 21.739 21.176 21.2083L21.1895 21.1741C21.4001 20.6444 21.1881 20.0534 20.6959 19.7693ZM19.8327 8.77569C20.0977 8.87064 20.2744 9.12203 20.2744 9.40336V12.5944H20.3986C20.7665 12.5944 21.0653 12.8932 21.0653 13.2612C21.0653 13.6295 20.767 13.9279 20.3986 13.9279H20.2744V14.666C20.2744 15.0344 19.9756 15.3326 19.6076 15.3326C19.2395 15.3326 18.9411 15.0344 18.9411 14.666V13.9279H16.4327C16.1748 13.9279 15.9399 13.7791 15.8298 13.5462C15.7197 13.3128 15.7539 13.0371 15.9176 12.8379L19.0926 8.9795C19.2713 8.76236 19.5677 8.68078 19.8327 8.77569ZM18.9411 12.5945H17.845L18.9411 11.2627V12.5945ZM14.4222 11.278C14.5446 10.8293 14.4727 10.4951 14.2071 10.2849C13.8983 10.0408 13.3841 9.99755 13.0362 10.187C12.7857 10.3235 12.6798 10.5534 12.7118 10.8905C12.7474 11.2571 12.4789 11.583 12.1123 11.618C11.7455 11.6536 11.4202 11.3847 11.3848 11.0185C11.3005 10.1424 11.6698 9.41234 12.3981 9.01568C13.2191 8.5691 14.3034 8.66069 15.0347 9.23958C15.7277 9.7878 15.9735 10.6592 15.7085 11.6292C15.5281 12.2903 14.9037 12.777 14.2435 13.2928C13.9616 13.5125 13.662 13.7463 13.3904 13.9993H15.3278C15.6959 13.9993 15.9943 14.298 15.9943 14.666C15.9943 15.0344 15.6959 15.3326 15.3278 15.3326H12.0331C11.8035 15.3326 11.5898 15.2146 11.468 15.02C11.3459 14.8256 11.3331 14.5817 11.4332 14.3751C11.8869 13.4404 12.7386 12.7756 13.4229 12.2416C13.8395 11.9161 14.3583 11.5114 14.4222 11.278ZM24.5 12.2583C24.5 14.5776 23.5966 16.7579 21.9566 18.3981C21.8263 18.528 21.6558 18.5935 21.4851 18.5935C21.3146 18.5935 21.1436 18.528 21.0137 18.3981C20.7533 18.1376 20.7533 17.7154 21.0137 17.455C22.4017 16.067 23.1665 14.2212 23.1665 12.2583C23.1665 8.20525 19.8695 4.90821 15.8164 4.90821C13.8533 4.90821 12.0077 5.67286 10.6196 7.06083C10.3591 7.32128 9.93707 7.32128 9.67662 7.06083C9.41617 6.80038 9.41617 6.37833 9.67662 6.11788C11.3168 4.47812 13.4971 3.57471 15.8164 3.57471C20.6044 3.57475 24.5 7.47013 24.5 12.2583Z" fill="#64C361"/>
</svg>
