<svg width="28" height="28" viewBox="0 0 28 28" fill="none" xmlns="http://www.w3.org/2000/svg">
<path d="M22.8807 6.31628C22.3676 5.7931 21.7583 5.37807 21.0878 5.09492C20.4172 4.81176 19.6985 4.66602 18.9727 4.66602C18.2468 4.66602 17.5281 4.81176 16.8576 5.09492C16.187 5.37807 15.5778 5.7931 15.0646 6.31628L13.9997 7.40157L12.9348 6.31628C11.8983 5.25999 10.4926 4.66656 9.02679 4.66656C7.56099 4.66656 6.15523 5.25999 5.11876 6.31628C4.08229 7.37258 3.5 8.80523 3.5 10.2991C3.5 11.7929 4.08229 13.2255 5.11876 14.2818L6.18367 15.3671L13.9997 23.3327L21.8158 15.3671L22.8807 14.2818C23.3941 13.7589 23.8013 13.138 24.0791 12.4546C24.357 11.7713 24.5 11.0388 24.5 10.2991C24.5 9.55934 24.357 8.82687 24.0791 8.14349C23.8013 7.46012 23.3941 6.83922 22.8807 6.31628V6.31628Z" stroke="#171717" stroke-width="2" stroke-linecap="round" stroke-linejoin="round"/>
</svg>
