<svg width="32" height="32" viewBox="0 0 32 32" fill="none" xmlns="http://www.w3.org/2000/svg">
<path fill-rule="evenodd" clip-rule="evenodd" d="M11.6064 6.05333C11.2737 6.05333 10.9765 6.06625 10.7044 6.10017C10.6911 6.10183 10.6778 6.10323 10.6644 6.10436C9.005 6.24582 7.90437 6.78871 7.20274 7.61153C6.48985 8.44755 6.0595 9.72361 6.0595 11.5836V17.0592C6.0595 19.7087 6.6001 20.9623 7.35296 21.6177C8.14041 22.3032 9.43339 22.5895 11.6064 22.5895H12.1556C12.5163 22.5895 12.8526 22.7041 13.1058 22.8316C13.3597 22.9595 13.6428 23.1574 13.8523 23.4305L13.8581 23.4382L15.5071 25.6303C15.7076 25.8981 15.8964 25.9467 16 25.9467C16.1037 25.9467 16.2924 25.8981 16.4929 25.6303L16.4943 25.6284L18.1419 23.4382C18.5422 22.9058 19.177 22.5895 19.8444 22.5895H20.3936C22.2609 22.5895 23.5405 22.1631 24.3783 21.4541C25.2025 20.757 25.7473 19.6606 25.8893 17.9986C25.8904 17.9852 25.8919 17.9719 25.8935 17.9585C25.9276 17.6872 25.9405 17.3909 25.9405 17.0592V11.5836C25.9405 9.55933 25.4321 8.22694 24.5962 7.39358C23.7603 6.56021 22.424 6.05333 20.3936 6.05333H11.6064ZM10.4692 4.06019C10.8495 4.01398 11.2318 4 11.6064 4H20.3936C22.7431 4 24.6951 4.58822 26.0525 5.94166C27.41 7.2951 28 9.24119 28 11.5836V17.0592C28 17.4326 27.986 17.8138 27.9396 18.1929C27.763 20.2179 27.0585 21.8796 25.7109 23.0199C24.3725 24.1521 22.5492 24.6428 20.3936 24.6428H19.8444C19.8373 24.6428 19.8264 24.6446 19.8141 24.6507C19.8018 24.6569 19.7937 24.6646 19.7895 24.6702L18.1432 26.8585C17.6162 27.5622 16.8503 28 16 28C15.1497 28 14.3846 27.5631 13.8574 26.8594L12.2306 24.6969C12.2189 24.6881 12.2003 24.6759 12.1768 24.6642C12.1557 24.6535 12.1376 24.6466 12.1255 24.6428H11.6064C9.39959 24.6428 7.40422 24.3883 5.99832 23.1643C4.55781 21.9102 4 19.8852 4 17.0592V11.5836C4 9.43282 4.49642 7.6152 5.63365 6.28155C6.77844 4.93903 8.44417 4.23643 10.4692 4.06019Z" fill="#171717"/>
</svg>
