<svg width="14" height="8" viewBox="0 0 14 8" fill="none" xmlns="http://www.w3.org/2000/svg">
<path d="M7.00019 8.00019C6.86858 8.00095 6.73812 7.97572 6.61628 7.92596C6.49444 7.87619 6.38363 7.80287 6.29019 7.71019L0.290185 1.71019C0.101882 1.52188 -0.00390625 1.26649 -0.00390625 1.00019C-0.00390625 0.733884 0.101882 0.478489 0.290185 0.290185C0.478489 0.101882 0.733884 -0.00390625 1.00019 -0.00390625C1.26649 -0.00390625 1.52188 0.101882 1.71019 0.290185L7.00019 5.59019L12.2902 0.300186C12.4815 0.136359 12.7276 0.0507528 12.9792 0.0604739C13.2309 0.0701951 13.4697 0.174528 13.6477 0.352623C13.8258 0.530717 13.9302 0.769456 13.9399 1.02113C13.9496 1.27281 13.864 1.51888 13.7002 1.71019L7.70019 7.71019C7.51392 7.89493 7.26253 7.99908 7.00019 8.00019Z" fill="black"/>
</svg>
