<svg width="28" height="28" viewBox="0 0 28 28" fill="none" xmlns="http://www.w3.org/2000/svg">
<path fill-rule="evenodd" clip-rule="evenodd" d="M10.161 5.3014C9.86997 5.3014 9.61003 5.31274 9.372 5.3425C9.36037 5.34395 9.34871 5.34517 9.33702 5.34617C7.88559 5.47027 6.92288 5.94655 6.30918 6.66842C5.68563 7.40187 5.30921 8.52137 5.30921 10.1532V14.9569C5.30921 17.2813 5.78207 18.3811 6.44058 18.9561C7.12935 19.5576 8.26029 19.8087 10.161 19.8087H10.6414C10.9569 19.8087 11.251 19.9092 11.4725 20.0211C11.6945 20.1333 11.9422 20.3069 12.1254 20.5465L12.1305 20.5533L13.5728 22.4764C13.7482 22.7113 13.9133 22.754 14.004 22.754C14.0946 22.754 14.2598 22.7113 14.4351 22.4764L14.4363 22.4747L15.8774 20.5533C16.2276 20.0862 16.7828 19.8087 17.3666 19.8087H17.847C19.4802 19.8087 20.5995 19.4346 21.3323 18.8126C22.0532 18.201 22.5298 17.2392 22.6539 15.7811C22.6549 15.7693 22.6562 15.7577 22.6577 15.7459C22.6874 15.5079 22.6987 15.2479 22.6987 14.9569V10.1532C22.6987 8.37724 22.254 7.20833 21.5229 6.47721C20.7918 5.74609 19.6229 5.3014 17.847 5.3014H10.161ZM9.16633 3.55281C9.49891 3.51226 9.83335 3.5 10.161 3.5H17.847C19.902 3.5 21.6094 4.01605 22.7967 5.20343C23.9841 6.39081 24.5001 8.09813 24.5001 10.1532V14.9569C24.5001 15.2845 24.4879 15.619 24.4473 15.9515C24.2928 17.7281 23.6766 19.1859 22.4979 20.1862C21.3273 21.1795 19.7324 21.6101 17.847 21.6101H17.3666C17.3603 21.6101 17.3508 21.6116 17.34 21.617C17.3294 21.6224 17.3223 21.6292 17.3185 21.6341L15.8786 23.5539C15.4176 24.1713 14.7477 24.5554 14.004 24.5554C13.2603 24.5554 12.591 24.172 12.1299 23.5547L10.707 21.6575C10.6967 21.6498 10.6804 21.6391 10.6599 21.6288C10.6414 21.6194 10.6256 21.6134 10.615 21.6101H10.161C8.23072 21.6101 6.48542 21.3868 5.2557 20.3129C3.99572 19.2128 3.50781 17.4362 3.50781 14.9569V10.1532C3.50781 8.26625 3.94202 6.67164 4.93673 5.50162C5.93806 4.32382 7.39504 3.70743 9.16633 3.55281Z" fill="#8B8B8B"/>
</svg>
