<svg width="24" height="24" viewBox="0 0 24 24" fill="none" xmlns="http://www.w3.org/2000/svg">
<path fill-rule="evenodd" clip-rule="evenodd" d="M2.66667 24H21.3333C22.8061 24 24 22.8061 24 21.3333V2.66667C24 1.19391 22.8061 0 21.3333 0H2.66667C1.19391 0 0 1.19391 0 2.66667V21.3333C0 22.8061 1.19391 24 2.66667 24Z" fill="#171717"/>
<path d="M12.004 7.38503C9.44951 7.38503 7.38904 9.4455 7.38904 12C7.38904 14.5545 9.44951 16.615 12.004 16.615C14.5585 16.615 16.619 14.5545 16.619 12C16.619 9.4455 14.5585 7.38503 12.004 7.38503ZM12.004 15.0003C10.3532 15.0003 9.00368 13.6548 9.00368 12C9.00368 10.3452 10.3492 8.99967 12.004 8.99967C13.6588 8.99967 15.0044 10.3452 15.0044 12C15.0044 13.6548 13.6548 15.0003 12.004 15.0003ZM17.8842 7.19625C17.8842 7.79471 17.4022 8.27268 16.8078 8.27268C16.2093 8.27268 15.7313 7.79069 15.7313 7.19625C15.7313 6.60181 16.2133 6.11983 16.8078 6.11983C17.4022 6.11983 17.8842 6.60181 17.8842 7.19625ZM20.9408 8.28874C20.8725 6.84681 20.5431 5.56956 19.4868 4.51724C18.4345 3.46491 17.1572 3.13556 15.7153 3.06326C14.2292 2.97891 9.77485 2.97891 8.28874 3.06326C6.85083 3.13154 5.57358 3.46089 4.51724 4.51322C3.46089 5.56555 3.13556 6.8428 3.06326 8.28473C2.97891 9.77084 2.97891 14.2251 3.06326 15.7113C3.13154 17.1532 3.46089 18.4304 4.51724 19.4828C5.57358 20.5351 6.84681 20.8644 8.28874 20.9367C9.77485 21.0211 14.2292 21.0211 15.7153 20.9367C17.1572 20.8685 18.4345 20.5391 19.4868 19.4828C20.5391 18.4304 20.8685 17.1532 20.9408 15.7113C21.0251 14.2251 21.0251 9.77485 20.9408 8.28874ZM19.0209 17.3058C18.7076 18.093 18.1011 18.6995 17.3098 19.0168C16.125 19.4868 13.3134 19.3783 12.004 19.3783C10.6946 19.3783 7.87906 19.4828 6.6982 19.0168C5.91097 18.7036 5.30447 18.0971 4.98717 17.3058C4.51724 16.1209 4.62568 13.3094 4.62568 12C4.62568 10.6906 4.52125 7.87504 4.98717 6.69419C5.30046 5.90695 5.90695 5.30046 6.6982 4.98315C7.88307 4.51322 10.6946 4.62167 12.004 4.62167C13.3134 4.62167 16.129 4.51724 17.3098 4.98315C18.0971 5.29644 18.7036 5.90293 19.0209 6.69419C19.4908 7.87906 19.3823 10.6906 19.3823 12C19.3823 13.3094 19.4908 16.125 19.0209 17.3058Z" fill="white"/>
</svg>
