<svg width="36" height="36" viewBox="0 0 36 36" fill="none" xmlns="http://www.w3.org/2000/svg">
<g clip-path="url(#clip0_2842_7453)">
<path fill-rule="evenodd" clip-rule="evenodd" d="M14.2383 22.6643V13.3372L21.9876 18.0007L14.2383 22.6643Z" fill="#FEDC33"/>
<path fill-rule="evenodd" clip-rule="evenodd" d="M14.3793 22.4156V13.5858L21.7153 18.0007L14.3793 22.4156ZM23.7859 17.2778L13.9711 11.3703C13.843 11.2932 13.6968 11.2516 13.5473 11.2496C13.3979 11.2476 13.2506 11.2853 13.1205 11.3589C12.9904 11.4325 12.8822 11.5393 12.8069 11.6684C12.7316 11.7975 12.6919 11.9442 12.6919 12.0937V23.9082C12.6919 24.0577 12.7315 24.2045 12.8068 24.3336C12.8822 24.4627 12.9904 24.5695 13.1205 24.643C13.2507 24.7165 13.398 24.7542 13.5474 24.7521C13.6969 24.75 13.8431 24.7083 13.9711 24.6311L23.786 18.7235C23.9108 18.6486 24.0141 18.5426 24.0859 18.416C24.1576 18.2893 24.1953 18.1462 24.1953 18.0007C24.1953 17.8551 24.1576 17.712 24.0859 17.5853C24.0141 17.4587 23.9108 17.3527 23.786 17.2778H23.7859ZM32.9181 29.5538C33.2878 29.5533 33.6421 29.4063 33.9035 29.1449C34.1649 28.8836 34.312 28.5292 34.3125 28.1596V7.84212C34.312 7.47253 34.165 7.11822 33.9036 6.85691C33.6422 6.5956 33.2879 6.44863 32.9183 6.44824H3.08166C2.71208 6.44867 2.35776 6.59565 2.09641 6.85695C1.83506 7.11826 1.688 7.47254 1.6875 7.84212V28.1596C1.68804 28.5292 1.83511 28.8835 2.09646 29.1449C2.35781 29.4062 2.71213 29.5533 3.08173 29.5538H32.9181ZM32.9181 4.76074H3.08166C2.26468 4.76165 1.48142 5.08658 0.903703 5.66425C0.325986 6.24191 0.000986337 7.02514 0 7.84212V28.1596C0.00106049 28.9766 0.326084 29.7598 0.903792 30.3375C1.4815 30.9152 2.26473 31.2402 3.08173 31.2413H32.9181C33.7352 31.2403 34.5185 30.9154 35.0962 30.3376C35.674 29.7599 35.999 28.9767 36 28.1596V7.84212C35.9991 7.02509 35.6741 6.24179 35.0963 5.66411C34.5185 5.08643 33.7352 4.76154 32.9181 4.76074Z" fill="#171717"/>
</g>
<defs>
<clipPath id="clip0_2842_7453">
<rect width="36" height="36" fill="white"/>
</clipPath>
</defs>
</svg>
