<svg width="32" height="32" viewBox="0 0 32 32" fill="none" xmlns="http://www.w3.org/2000/svg">
<path fill-rule="evenodd" clip-rule="evenodd" d="M14.8599 31.375L13.6677 24.2691L13.533 23.4683L11.2122 26.6784L12.2699 28.4589L11.1981 29.6654L12.0449 31.375H14.8599Z" fill="#FEDC33"/>
<path fill-rule="evenodd" clip-rule="evenodd" d="M19.7301 28.4589L20.7878 26.6784L18.467 23.4683L18.3323 24.2691L17.1401 31.375H19.9551L20.802 29.6654L19.7301 28.4589Z" fill="#FEDC33"/>
<path d="M14.86 13.6055H17.14C17.4851 13.6055 17.765 13.3257 17.765 12.9805C17.765 12.6353 17.4851 12.3555 17.14 12.3555H14.86C14.5149 12.3555 14.235 12.6353 14.235 12.9805C14.235 13.3257 14.5148 13.6055 14.86 13.6055Z" fill="#171717"/>
<path d="M17.9805 17.3784C17.7364 17.1343 17.3408 17.1343 17.0966 17.3784C16.8034 17.6715 16.4139 17.833 15.9999 17.833C15.5859 17.833 15.1965 17.6715 14.9032 17.3784C14.6592 17.1343 14.2636 17.1343 14.0193 17.3784C13.7752 17.6224 13.7752 18.0182 14.0193 18.2622C14.5486 18.7915 15.252 19.0831 15.9999 19.0831C16.7477 19.0831 17.4512 18.7915 17.9804 18.2622C18.2247 18.0182 18.2247 17.6225 17.9805 17.3784Z" fill="#171717"/>
<path d="M24.0992 25.1266L19.092 23.0507V21.572C21.4841 20.5095 23.2333 18.2539 23.5789 15.5647H23.8917C25.2523 15.5647 26.3592 14.4578 26.3592 13.0972C26.3592 12.4716 26.1244 11.9 25.7389 11.4649C26.1504 10.5492 26.3592 9.62654 26.3592 8.71598C26.3592 7.37823 26.0357 6.16692 25.3978 5.1156C24.825 4.17179 24.0057 3.39454 23.022 2.8581C22.4042 1.97917 21.3833 1.40317 20.2297 1.40317H10.9039C9.09775 1.40317 7.25488 0.371229 6.99632 0.150042C6.83419 0.0114167 6.61257 -0.0350208 6.40857 0.0269792C6.2045 0.0889167 6.04607 0.250604 5.98838 0.455917C5.55338 2.00379 5.6565 3.66029 6.28669 5.24629C6.32363 5.33929 6.3625 5.43135 6.40269 5.52279C5.8975 6.49979 5.64081 7.5721 5.64081 8.71598C5.64081 9.60354 5.86731 10.507 6.31331 11.408C5.89688 11.8496 5.64081 12.4439 5.64081 13.0972C5.64081 14.4578 6.74775 15.5647 8.10831 15.5647H8.42106C8.76669 18.2535 10.5158 20.5089 12.908 21.5715V23.0507L7.90031 25.1269C5.95856 25.934 4.93219 27.3477 4.93219 29.2153V31.3749C4.93219 31.7201 5.21206 31.9999 5.55719 31.9999H26.4428C26.7879 31.9999 27.0678 31.7201 27.0678 31.3749V29.2153C27.0678 27.3486 26.0415 25.9349 24.0992 25.1266ZM15.3889 30.7499L14.6318 26.2387C15.0483 26.445 15.514 26.5593 15.9992 26.5593C16.485 26.5593 16.9514 26.4449 17.3684 26.2383L16.6111 30.7499H15.3889ZM23.8916 14.3146H23.6414V11.8814H23.8916C24.5629 11.8814 25.1091 12.4268 25.1091 13.0971C25.1092 13.7685 24.563 14.3146 23.8916 14.3146ZM25.1092 8.71592C25.1092 9.38617 24.9649 10.072 24.6808 10.7615C24.4328 10.6776 24.1676 10.6314 23.8917 10.6314H23.6356C23.5708 9.42935 22.9538 8.37217 22.0348 7.70798C22.9837 7.11385 23.6204 6.0666 23.6401 4.87142C24.5874 5.84242 25.1092 7.17848 25.1092 8.71592ZM7.02438 1.62479C7.95925 2.10685 9.44375 2.6531 10.9039 2.6531H20.2298C21.4218 2.6531 22.3915 3.62285 22.3915 4.81485C22.3915 6.00685 21.4218 6.9766 20.2298 6.9766H12.2238C11.2913 6.9766 10.4349 7.30854 9.7665 7.86042C7.79313 6.30385 6.7415 3.88523 7.02438 1.62479ZM8.94219 8.80285C8.60769 9.33929 8.40056 9.96292 8.3645 10.6315H8.10838C7.85463 10.6315 7.60969 10.67 7.37913 10.7415C7.055 10.0525 6.89088 9.37329 6.89088 8.71598C6.89088 8.08335 6.98581 7.47854 7.17306 6.90723C7.65913 7.61604 8.25375 8.25435 8.94219 8.80285ZM6.89081 13.0971C6.89081 12.4267 7.437 11.8814 8.10831 11.8814H8.3585V14.3146H8.10831C7.437 14.3146 6.89081 13.7685 6.89081 13.0971ZM9.6085 14.5853V10.8419C9.6085 9.39979 10.7817 8.22654 12.2238 8.22654H19.7762C21.2183 8.22654 22.3915 9.39973 22.3915 10.8419V14.5853C22.3915 18.1091 19.5247 20.9759 16.0009 20.9759C12.4761 20.9759 9.6085 18.1091 9.6085 14.5853ZM16.0009 22.2259C16.6355 22.2259 17.2521 22.1477 17.842 22.0012V23.416L17.7268 24.1029C17.4584 24.8259 16.77 25.3093 15.9992 25.3093C15.2294 25.3093 14.5416 24.8259 14.2734 24.1029L14.1581 23.416V22.0009C14.7485 22.1475 15.3657 22.2259 16.0009 22.2259ZM6.18219 29.2153C6.18219 27.8556 6.90113 26.8958 8.37956 26.2813L13.0466 24.3464L14.1213 30.7499H6.18219V29.2153ZM25.8178 30.7499H17.8787L18.9534 24.3464L23.6198 26.281C25.0989 26.8965 25.8179 27.8563 25.8179 29.2153V30.7499H25.8178Z" fill="#171717"/>
<path fill-rule="evenodd" clip-rule="evenodd" d="M13.0122 15.2959C14.0008 15.2959 14.8104 14.4863 14.8104 13.4959V12.9804C14.8104 12.2753 14.2328 11.6978 13.5278 11.6978H13.0122C12.0219 11.6978 11.2123 12.5074 11.2123 13.4959C11.2122 14.4863 12.0218 15.2959 13.0122 15.2959Z" fill="#FEDC33"/>
<path fill-rule="evenodd" clip-rule="evenodd" d="M18.9878 15.2959C19.9781 15.2959 20.7878 14.4863 20.7878 13.4959C20.7878 12.5074 19.9781 11.6978 18.9878 11.6978H18.4723C17.7654 11.6978 17.1896 12.2753 17.1896 12.9804V13.4959C17.1896 14.4863 17.9993 15.2959 18.9878 15.2959Z" fill="#FEDC33"/>
</svg>
