<svg width="35" height="32" viewBox="0 0 35 32" fill="none" xmlns="http://www.w3.org/2000/svg">
<path d="M27.4677 5.07374C26.6034 2.62965 24.4008 0.684041 21.893 0.362342C20.1293 0.142395 17.7222 -0.0374689 14.4312 0.0067262C11.1402 0.0509212 8.72904 0.304786 6.96021 0.572012C4.03717 1.03246 1.42658 3.60297 0.925013 6.54657C0.925013 6.54657 0.151085 10.6999 0 16.2931H28.3321C28.3321 16.2931 28.3321 8.88582 27.4677 5.07374Z" fill="#C8E9CA"/>
<path d="M34.7024 12.0666C34.3694 9.46428 32.0517 7.26275 29.3393 6.90302C24.5601 6.42921 17.5002 6.38912 17.4982 6.4066C14.4446 6.37474 7.29526 6.66663 5.65799 6.90302C3.99914 7.1168 2.50061 8.03359 1.49749 9.28955C0.849516 10.0866 0.433478 11.0467 0.294974 12.0646C0.100721 13.6371 -0.0534484 15.7852 0.0246638 18.7247C0.102776 21.6642 0.378225 23.8184 0.653673 25.3961C1.12851 28.0077 3.47804 30.3017 6.09275 30.7406C7.67657 31.0428 14.5597 31.46 17.5012 31.4087C20.4407 31.4621 27.3238 31.0428 28.9097 30.7406C31.5244 30.3017 33.874 28.0077 34.3488 25.3961C34.6243 23.8184 34.8946 21.6652 34.9778 18.7247C35.0611 15.7842 34.8966 13.6392 34.7024 12.0666Z" fill="#64C361"/>
<path d="M28.8881 21.3321C28.4087 21.3323 27.94 21.1903 27.5413 20.9241C27.1426 20.6579 26.8318 20.2794 26.6483 19.8365C26.4647 19.3936 26.4166 18.9063 26.5101 18.436C26.6036 17.9658 26.8344 17.5339 27.1734 17.1949C27.5124 16.8559 27.9443 16.6251 28.4146 16.5316C28.8848 16.4381 29.3722 16.4862 29.815 16.6697C30.2579 16.8533 30.6364 17.1641 30.9026 17.5628C31.1689 17.9615 31.3109 18.4302 31.3107 18.9096C31.3107 19.5521 31.0554 20.1683 30.6011 20.6226C30.1468 21.0769 29.5306 21.3321 28.8881 21.3321Z" fill="white"/>
</svg>
