<svg width="44" height="44" viewBox="0 0 44 44" fill="none" xmlns="http://www.w3.org/2000/svg">
<g clip-path="url(#clip0_495_7106)">
<rect x="0.5" y="0.5" width="57" height="57" rx="9.5" fill="#EEEEEE" stroke="#EEEEEE"/>
<mask id="path-3-inside-1_495_7106" fill="white">
<path d="M9 19C9 13.4772 13.4772 9 19 9H57V43C57 50.732 50.732 57 43 57H9V19Z"/>
</mask>
<path d="M9 19C9 13.4772 13.4772 9 19 9H57V43C57 50.732 50.732 57 43 57H9V19Z" fill="white"/>
<path d="M8 19C8 12.9249 12.9249 8 19 8H57V10H19C14.0294 10 10 14.0294 10 19H8ZM57 57H9H57ZM8 57V19C8 12.9249 12.9249 8 19 8V10C14.0294 10 10 14.0294 10 19V57H8ZM57 9V57V9Z" fill="#DEDEDE" mask="url(#path-3-inside-1_495_7106)"/>
<path d="M20.0538 21.8702L19.6478 20.6522H16.9508L16.5448 21.8702H15.1045L17.4728 15.1035H19.1258L21.5038 21.8702H20.0538ZM17.3762 19.4052H19.2322L18.3042 16.6405L17.3762 19.4052Z" fill="#121214"/>
<path d="M25.644 17.0368H26.891V21.8702H25.644V21.2998C25.2703 21.7703 24.745 22.0055 24.0684 22.0055C23.4239 22.0055 22.8697 21.7606 22.4057 21.2708C21.9481 20.7746 21.7194 20.1688 21.7194 19.4535C21.7194 18.7382 21.9481 18.1356 22.4057 17.6458C22.8697 17.1496 23.4239 16.9015 24.0684 16.9015C24.745 16.9015 25.2703 17.1367 25.644 17.6072V17.0368ZM23.3434 20.4395C23.5947 20.6908 23.9137 20.8165 24.3004 20.8165C24.687 20.8165 25.006 20.6908 25.2574 20.4395C25.5151 20.1817 25.644 19.8531 25.644 19.4535C25.644 19.054 25.5151 18.7285 25.2574 18.4772C25.006 18.2194 24.687 18.0905 24.3004 18.0905C23.9137 18.0905 23.5947 18.2194 23.3434 18.4772C23.092 18.7285 22.9664 19.054 22.9664 19.4535C22.9664 19.8531 23.092 20.1817 23.3434 20.4395Z" fill="#121214"/>
<rect x="0.5" y="0.5" width="57" height="57" rx="9.5" stroke="#EEEEEE"/>
</g>
<defs>
<clipPath id="clip0_495_7106">
<rect width="44" height="44" rx="22" fill="white"/>
</clipPath>
</defs>
</svg>
