<svg width="14" height="14" viewBox="0 0 14 14" fill="none" xmlns="http://www.w3.org/2000/svg">
<path d="M7.00002 12.8327C10.2217 12.8327 12.8334 10.221 12.8334 6.99935C12.8334 3.77769 10.2217 1.16602 7.00002 1.16602C3.77836 1.16602 1.16669 3.77769 1.16669 6.99935C1.16669 10.221 3.77836 12.8327 7.00002 12.8327Z" stroke="#95A4B7" stroke-linecap="round" stroke-linejoin="round"/>
<path d="M7.62036 9.85283C7.48608 9.86617 7.35127 9.8339 7.23525 9.76061C7.15049 9.66792 7.10985 9.53924 7.12481 9.41083C7.12794 9.30393 7.13992 9.19752 7.16062 9.09286C7.18066 8.97278 7.20655 8.85391 7.23823 8.73671L7.5905 7.4457C7.62683 7.31828 7.65084 7.18722 7.66216 7.05457C7.66216 6.91149 7.68006 6.8129 7.68006 6.75568C7.68756 6.50064 7.58532 6.2559 7.40242 6.0911C7.17745 5.90713 6.8973 5.81671 6.61429 5.83671C6.41149 5.83997 6.21025 5.87533 6.01722 5.94165C5.80626 6.0116 5.58434 6.09533 5.35149 6.19286L5.25 6.6126C5.31865 6.58715 5.40226 6.55854 5.49778 6.52674C5.58891 6.49799 5.68337 6.48299 5.7784 6.48222C5.9117 6.46684 6.04588 6.50171 6.15753 6.58079C6.23337 6.67717 6.26895 6.80238 6.25604 6.9274C6.25571 7.03433 6.2447 7.14093 6.22321 7.24537C6.2023 7.35667 6.17544 7.47431 6.1426 7.59832L5.78735 8.89567C5.75872 9.01626 5.73581 9.1383 5.7187 9.26135C5.70474 9.3667 5.69776 9.47294 5.69779 9.57932C5.69632 9.83611 5.80656 10.0792 5.99631 10.2375C6.22475 10.4244 6.5089 10.517 6.79637 10.4983C6.99879 10.5027 7.20052 10.4716 7.39344 10.4061C7.56261 10.3446 7.78851 10.2566 8.07113 10.1421L8.16667 9.74148C8.09011 9.77531 8.01127 9.80294 7.93082 9.82414C7.82907 9.8489 7.7246 9.85852 7.62036 9.85283Z" fill="#95A4B7"/>
<path d="M7.91164 3.75591C7.74317 3.58557 7.5212 3.49393 7.29252 3.50031C7.06398 3.49463 6.84222 3.58619 6.6734 3.75591C6.36396 4.04967 6.3294 4.56399 6.59625 4.9047C6.62003 4.93507 6.64581 4.96345 6.6734 4.98964C7.02594 5.33679 7.55911 5.33679 7.91162 4.98964C8.22106 4.69298 8.25349 4.17634 7.98403 3.83566C7.96163 3.80728 7.93742 3.78063 7.91164 3.75591Z" fill="#95A4B7"/>
</svg>
