<svg width="36" height="36" viewBox="0 0 36 36" fill="none" xmlns="http://www.w3.org/2000/svg">
<path d="M18 29.6681C17.6117 29.6681 17.2969 29.3533 17.2969 28.965V14.9756C17.2969 14.5872 17.6117 14.2725 18 14.2725C18.3883 14.2725 18.7031 14.5872 18.7031 14.9756V28.965C18.7031 29.3533 18.3883 29.6681 18 29.6681Z" fill="#171717"/>
<path d="M12.7931 29.6681C12.4463 29.6681 12.1446 29.4116 12.0972 29.0585L10.689 18.569C10.6373 18.1841 10.9074 17.8302 11.2923 17.7786C11.6769 17.7269 12.031 17.9969 12.0828 18.3819L13.491 28.8714C13.5427 29.2563 13.2725 29.6102 12.8876 29.6619C12.8558 29.6661 12.8243 29.6681 12.7931 29.6681Z" fill="#171717"/>
<path d="M23.2061 29.668C23.1748 29.668 23.1433 29.6659 23.1116 29.6616C22.7267 29.6099 22.4567 29.2561 22.5083 28.8712L23.9165 18.3817C23.9682 17.9968 24.3218 17.7266 24.7069 17.7783C25.0918 17.83 25.3619 18.1839 25.3103 18.5688L23.9021 29.0583C23.8546 29.4114 23.5528 29.668 23.2061 29.668Z" fill="#171717"/>
<path fill-rule="evenodd" clip-rule="evenodd" d="M8.35589 35.2968H27.6439H27.6499C28.1652 35.2928 28.5847 34.8723 28.5847 34.3581V28.9648H23.2053H17.9999H12.7944H7.41504V34.3581C7.41504 34.8723 7.83452 35.2928 8.34984 35.2968H8.35589Z" fill="#FEDC33"/>
<path d="M26.2698 5.21719C24.7967 2.13504 21.6437 0 18 0C14.3563 0 11.2032 2.13518 9.73007 5.2174C5.14134 5.73138 1.60645 9.63914 1.60645 14.2959C1.60645 17.3315 3.12224 20.1682 5.66137 21.8841C6.28827 22.3076 6.49633 22.4994 6.58893 22.7396C6.71155 23.0572 6.71099 23.6369 6.71008 24.5984L6.71205 34.3581C6.71205 35.2635 7.44948 36 8.35595 36H27.6439C28.5504 36 29.2878 35.2635 29.2878 34.3581L29.2898 24.5974C29.2889 23.6369 29.2883 23.0572 29.411 22.7396C29.5036 22.4994 29.7116 22.3076 30.3387 21.8841C32.8776 20.1682 34.3934 17.3315 34.3934 14.2959C34.3936 9.63851 30.8586 5.73033 26.2698 5.21719ZM29.5516 20.7188C27.9324 21.8126 27.8816 22.2832 27.8837 24.5978L27.8817 28.9645V28.9647V28.9648V34.3581C27.8817 34.4858 27.7729 34.5937 27.6441 34.5937H8.35602C8.22714 34.5937 8.11837 34.4858 8.11837 34.3581V28.9647C8.11837 28.9646 8.1164 24.5987 8.1164 24.5987C8.11851 22.2831 8.06774 21.8126 6.44866 20.7189C4.29716 19.2649 3.01277 16.8637 3.01277 14.2958C3.01277 10.6033 5.6402 7.46754 9.16666 6.73024C8.95642 7.49763 8.8435 8.30468 8.8435 9.13774C8.8435 9.52608 9.15829 9.84087 9.54663 9.84087C9.93496 9.84087 10.2498 9.52608 10.2498 9.13774C10.2497 4.87462 13.7265 1.40625 18 1.40625C22.2735 1.40625 25.7504 4.87463 25.7504 9.13781C25.7504 9.52615 26.0651 9.84094 26.4535 9.84094C26.8418 9.84094 27.1566 9.52615 27.1566 9.13781C27.1566 8.30468 27.0437 7.49749 26.8334 6.72996C30.3598 7.46662 32.9874 10.6028 32.9874 14.2959C32.9873 16.8638 31.7029 19.265 29.5516 20.7188Z" fill="#171717"/>
<path d="M21.1723 32.833H14.8281C14.4398 32.833 14.125 32.5182 14.125 32.1299C14.125 31.7415 14.4398 31.4268 14.8281 31.4268H21.1723C21.5606 31.4268 21.8754 31.7415 21.8754 32.1299C21.8754 32.5182 21.5606 32.833 21.1723 32.833Z" fill="#171717"/>
</svg>
