<svg width="24" height="24" viewBox="0 0 24 24" fill="none" xmlns="http://www.w3.org/2000/svg">
<g clip-path="url(#clip0_500_6844)">
<path d="M12 9.54961C10.4 9.54961 8.85 9.79961 7.4 10.2496V13.3496C7.4 13.7496 7.15 14.0996 6.85 14.2496C5.9 14.7496 5 15.3496 4.2 16.0996C4 16.2496 3.75 16.3996 3.5 16.3996C3.25 16.3996 3 16.2996 2.8 16.0996L0.35 13.5996C0.1 13.4496 0 13.1996 0 12.9496C0 12.6996 0.1 12.4496 0.3 12.2496C3.35 9.34961 7.45 7.59961 12 7.59961C16.55 7.59961 20.65 9.34961 23.7 12.2496C23.9 12.4496 24 12.6996 24 12.9496C24 13.1996 23.9 13.4496 23.7 13.6496L21.2 16.0996C21 16.2996 20.75 16.3996 20.5 16.3996C20.25 16.3996 20 16.2996 19.8 16.0996C19 15.3496 18.1 14.7496 17.15 14.2496C16.8 14.0996 16.6 13.7496 16.6 13.3496V10.2496C15.15 9.79961 13.6 9.54961 12 9.54961Z" fill="white"/>
</g>
<defs>
<clipPath id="clip0_500_6844">
<rect width="24" height="24" fill="white"/>
</clipPath>
</defs>
</svg>
