<svg width="24" height="24" viewBox="0 0 24 24" fill="none" xmlns="http://www.w3.org/2000/svg">
<g clip-path="url(#clip0_495_6672)">
<path d="M16 15.9995L12 11.9995M12 11.9995L7.99996 15.9995M12 11.9995V20.9995M20.39 18.3895C21.3653 17.8578 22.1358 17.0164 22.5798 15.9981C23.0239 14.9799 23.1162 13.8427 22.8422 12.7662C22.5682 11.6896 21.9434 10.735 21.0666 10.0529C20.1898 9.37088 19.1108 9.00023 18 8.9995H16.74C16.4373 7.82874 15.8731 6.74183 15.0899 5.82049C14.3067 4.89915 13.3248 4.16735 12.2181 3.6801C11.1113 3.19286 9.90851 2.96285 8.70008 3.00738C7.49164 3.0519 6.30903 3.3698 5.24114 3.93716C4.17325 4.50453 3.24787 5.3066 2.53458 6.28308C1.82129 7.25956 1.33865 8.38503 1.12294 9.57489C0.90723 10.7647 0.964065 11.988 1.28917 13.1528C1.61428 14.3175 2.1992 15.3934 2.99996 16.2995" stroke="#95A4B7" stroke-width="2" stroke-linecap="round" stroke-linejoin="round"/>
</g>
<defs>
<clipPath id="clip0_495_6672">
<rect width="24" height="24" fill="white"/>
</clipPath>
</defs>
</svg>
