<svg width="70" height="58" viewBox="0 0 70 58" fill="none" xmlns="http://www.w3.org/2000/svg">
<path d="M49.5942 55.4783V49.5942C49.5942 46.4731 48.3544 43.4798 46.1474 41.2729C43.9405 39.0659 40.9472 37.8261 37.8261 37.8261H14.2899C11.1688 37.8261 8.17549 39.0659 5.96854 41.2729C3.76159 43.4798 2.52174 46.4731 2.52174 49.5942V55.4783M67.2464 55.4783V49.5942C67.2444 46.9868 66.3766 44.4538 64.7791 42.393C63.1816 40.3323 60.9449 38.8604 58.4203 38.2086M46.6522 2.9042C49.1835 3.55234 51.4272 5.02453 53.0294 7.08868C54.6317 9.15284 55.5013 11.6915 55.5013 14.3046C55.5013 16.9176 54.6317 19.4563 53.0294 21.5204C51.4272 23.5846 49.1835 25.0568 46.6522 25.7049M37.8261 14.2899C37.8261 20.7892 32.5573 26.058 26.058 26.058C19.5586 26.058 14.2899 20.7892 14.2899 14.2899C14.2899 7.7905 19.5586 2.52174 26.058 2.52174C32.5573 2.52174 37.8261 7.7905 37.8261 14.2899Z" stroke="#817A8A" stroke-width="5" stroke-linecap="round" stroke-linejoin="round"/>
</svg>
