<svg width="22" height="22" viewBox="0 0 22 22" fill="none" xmlns="http://www.w3.org/2000/svg">
<path d="M19.4219 9.1731C19.1242 9.00003 18.8567 8.77958 18.6299 8.52044C18.6528 8.15965 18.7388 7.80566 18.8838 7.47452C19.1506 6.72194 19.4521 5.86944 18.9681 5.20669C18.4841 4.54394 17.5702 4.56502 16.7681 4.58335C16.4137 4.61982 16.0557 4.59564 15.7094 4.51185C15.5249 4.21165 15.3931 3.88209 15.3198 3.53744C15.0925 2.76285 14.8331 1.88744 14.0365 1.62527C13.2683 1.37777 12.557 1.92227 11.9281 2.40077C11.6568 2.64856 11.3424 2.8446 11.0005 2.97919C10.655 2.84569 10.3371 2.64961 10.0627 2.40077C9.43572 1.92502 8.72714 1.37502 7.95531 1.62619C7.16056 1.88469 6.90114 2.76285 6.67197 3.53744C6.59876 3.88097 6.4683 4.20975 6.28605 4.51002C5.93911 4.59358 5.58061 4.61837 5.22547 4.58335C4.42064 4.56135 3.51405 4.53752 3.02547 5.20669C2.53689 5.87585 2.84214 6.72194 3.1098 7.4736C3.25688 7.80425 3.34409 8.15839 3.36739 8.51952C3.14104 8.77901 2.87383 8.99977 2.5763 9.1731C1.9053 9.63144 1.14355 10.153 1.14355 11C1.14355 11.847 1.9053 12.3668 2.5763 12.8269C2.87376 13 3.14097 13.2204 3.36739 13.4796C3.34654 13.8406 3.26181 14.195 3.11714 14.5264C2.85131 15.2781 2.55064 16.1306 3.03372 16.7934C3.5168 17.4561 4.42797 17.435 5.23372 17.4167C5.58844 17.3802 5.94679 17.4044 6.29339 17.4882C6.47707 17.7887 6.60849 18.1182 6.68205 18.4626C6.90939 19.2372 7.16881 20.1126 7.96539 20.3748C8.0931 20.4157 8.22636 20.4367 8.36047 20.4371C9.00508 20.3446 9.60419 20.0515 10.0728 19.5993C10.3441 19.3515 10.6585 19.1554 11.0005 19.0209C11.346 19.1543 11.6639 19.3504 11.9382 19.5993C12.5661 20.0787 13.2775 20.6259 14.0466 20.3739C14.8413 20.1154 15.1007 19.2372 15.3299 18.4635C15.4034 18.1193 15.5348 17.7902 15.7186 17.49C16.0642 17.4059 16.4216 17.3811 16.7755 17.4167C17.5803 17.4359 18.4869 17.4625 18.9755 16.7934C19.4641 16.1242 19.1588 15.2781 18.8911 14.5255C18.7451 14.1952 18.6579 13.8418 18.6336 13.4814C18.86 13.2217 19.1276 13.0009 19.4256 12.8279C20.0966 12.3695 20.8583 11.847 20.8583 11C20.8583 10.153 20.0938 9.63235 19.4219 9.1731Z" fill="#9271D9"/>
<path d="M9.88791 13.7501C9.77929 13.7503 9.67171 13.7267 9.57138 13.6805C9.47106 13.6344 9.38 13.5666 9.30345 13.4812L7.09795 11.0368C6.95186 10.863 6.87232 10.6332 6.87611 10.3957C6.87989 10.1582 6.96669 9.93165 7.11822 9.7637C7.26975 9.59575 7.47418 9.49954 7.68845 9.49535C7.90272 9.49116 8.11008 9.57932 8.26687 9.74124L9.9651 11.6235L13.8027 8.43346C13.9782 8.28759 14.1987 8.22496 14.4159 8.25934C14.633 8.29372 14.829 8.4223 14.9606 8.61679C15.0922 8.81128 15.1487 9.05576 15.1177 9.29643C15.0866 9.5371 14.9706 9.75426 14.7951 9.90012L10.3841 13.5668C10.2409 13.6857 10.0668 13.75 9.88791 13.7501Z" fill="white"/>
</svg>
