<svg width="28" height="28" viewBox="0 0 28 28" fill="none" xmlns="http://www.w3.org/2000/svg">
<path d="M22.8807 6.31689C22.3676 5.79371 21.7583 5.37869 21.0878 5.09553C20.4172 4.81237 19.6985 4.66663 18.9727 4.66663C18.2468 4.66663 17.5281 4.81237 16.8576 5.09553C16.187 5.37869 15.5778 5.79371 15.0646 6.31689L13.9997 7.40218L12.9348 6.31689C11.8983 5.2606 10.4926 4.66717 9.02679 4.66717C7.56099 4.66717 6.15523 5.2606 5.11876 6.31689C4.08229 7.37319 3.5 8.80584 3.5 10.2997C3.5 11.7935 4.08229 13.2262 5.11876 14.2825L6.18367 15.3677L13.9997 23.3333L21.8158 15.3677L22.8807 14.2825C23.3941 13.7595 23.8013 13.1386 24.0791 12.4552C24.357 11.7719 24.5 11.0394 24.5 10.2997C24.5 9.55995 24.357 8.82748 24.0791 8.1441C23.8013 7.46073 23.3941 6.83983 22.8807 6.31689V6.31689Z" stroke="#95A4B7" stroke-width="2" stroke-linecap="round" stroke-linejoin="round"/>
</svg>
