<svg width="36" height="36" viewBox="0 0 36 36" fill="none" xmlns="http://www.w3.org/2000/svg">
<g clip-path="url(#clip0_2842_7505)">
<path d="M12.0077 26.9884L9.01078 23.9915C7.91047 22.8912 7.91047 21.1007 9.01078 20.0002L19.9995 9.01139C21.1 7.91108 22.8903 7.91108 23.9909 9.01139L26.9878 12.0084C28.0881 13.1087 28.0881 14.8992 26.9878 15.9996L15.9991 26.9884C14.8985 28.0887 13.1083 28.0889 12.0077 26.9884Z" fill="#FEDC33"/>
<path d="M23.492 12.5079C23.2174 12.2334 22.7723 12.2334 22.4976 12.5079L21.9958 13.0097L21.494 12.5079C21.2193 12.2334 20.7742 12.2334 20.4996 12.5079C20.225 12.7824 20.225 13.2277 20.4996 13.5023L21.0014 14.0041L19.9979 15.0077L19.4961 14.5059C19.2215 14.2314 18.7764 14.2314 18.5017 14.5059C18.2271 14.7805 18.2271 15.2257 18.5017 15.5003L19.0034 16.0021L17.9999 17.0057L17.4981 16.5038C17.2234 16.2293 16.7784 16.2293 16.5036 16.5038C16.2291 16.7784 16.2291 17.2236 16.5036 17.4983L17.0055 18.0001L16.0019 19.0036L15.5002 18.5019C15.2255 18.2274 14.7804 18.2274 14.5057 18.5019C14.2312 18.7765 14.2312 19.2217 14.5057 19.4963L15.0075 19.9981L14.0039 21.0016L13.5021 20.4998C13.2275 20.2253 12.7824 20.2253 12.5077 20.4998C12.2331 20.7744 12.2331 21.2196 12.5077 21.4942L13.0095 21.996L12.5077 22.4978C12.2331 22.7724 12.2331 23.2176 12.5077 23.4923C12.7825 23.7668 13.2274 23.7668 13.5021 23.4923L14.0039 22.9905L14.5057 23.4923C14.7804 23.7668 15.2254 23.7668 15.5002 23.4923C15.7747 23.2177 15.7747 22.7725 15.5002 22.4978L14.9983 21.996L16.0019 20.9925L16.5036 21.4942C16.7784 21.7688 17.2234 21.7687 17.4981 21.4942C17.7726 21.2196 17.7726 20.7744 17.4981 20.4998L16.9963 19.9981L17.9999 18.9945L18.5017 19.4963C18.7765 19.7709 19.2214 19.7708 19.4961 19.4963C19.7707 19.2217 19.7707 18.7765 19.4961 18.5019L18.9943 18.0001L19.9979 16.9965L20.4996 17.4983C20.7743 17.7729 21.2193 17.7728 21.494 17.4983C21.7685 17.2237 21.7685 16.7785 21.494 16.5038L20.9922 16.0021L21.9958 14.9985L22.4976 15.5003C22.7723 15.775 23.2173 15.7748 23.492 15.5003C23.7666 15.2258 23.7666 14.7806 23.492 14.5059L22.9902 14.0041L23.492 13.5023C23.7666 13.2277 23.7666 12.7824 23.492 12.5079Z" fill="#171717"/>
<path d="M35.1889 4.62612C34.7027 2.75878 33.2406 1.29671 31.3733 0.810438C23.0327 -1.36192 13.8256 0.841446 7.33343 7.33362C0.838095 13.829 -1.36112 23.0369 0.810181 31.3736C1.29646 33.2409 2.75852 34.703 4.62579 35.1893C12.9668 37.3617 22.1735 35.1583 28.6657 28.6661C35.014 22.3177 37.4104 13.1554 35.1889 4.62612ZM31.0188 2.17125C32.3937 2.52935 33.47 3.60568 33.8281 4.98056C34.4041 7.19215 34.6456 9.44874 34.5731 11.6812L24.3189 1.427C26.6458 1.35149 28.8863 1.61586 31.0188 2.17125ZM4.98023 33.8284C3.60536 33.4703 2.52902 32.394 2.17093 31.0191C1.59493 28.8075 1.35341 26.551 1.42597 24.3185L11.6802 34.5727C9.35405 34.6481 7.11286 34.3838 4.98023 33.8284ZM27.6713 27.6717C23.8288 31.5142 18.8056 33.8535 13.5357 34.4395L1.55914 22.4629C2.78587 11.4362 11.3963 2.79105 22.4635 1.56031L34.44 13.5368C33.8537 18.8063 31.5135 23.8295 27.6713 27.6717Z" fill="#171717"/>
</g>
<defs>
<clipPath id="clip0_2842_7505">
<rect width="36" height="36" fill="white"/>
</clipPath>
</defs>
</svg>
