<svg width="63" height="63" viewBox="0 0 63 63" fill="none" xmlns="http://www.w3.org/2000/svg">
<path fill-rule="evenodd" clip-rule="evenodd" d="M16.2089 16.0921C15.4999 16.0921 14.8666 16.1198 14.2867 16.1923C14.2583 16.1958 14.2299 16.1988 14.2015 16.2012C10.6654 16.5036 8.31999 17.6639 6.82486 19.4225C5.30573 21.2094 4.38867 23.9368 4.38867 27.9123V39.6154C4.38867 45.2783 5.54067 47.9577 7.14497 49.3586C8.82299 50.8238 11.5783 51.4356 16.2089 51.4356H17.3791C18.1478 51.4356 18.8643 51.6805 19.4039 51.9532C19.945 52.2264 20.5483 52.6495 20.9947 53.2332L21.0071 53.2496L24.521 57.9349C24.9482 58.5072 25.3506 58.6111 25.5714 58.6111C25.7922 58.6111 26.1945 58.5072 26.6217 57.9349L26.6246 57.9308L30.1356 53.2496C30.9887 52.1117 32.3413 51.4356 33.7635 51.4356H34.9338C38.9129 51.4356 41.6397 50.5242 43.425 49.0089C45.1814 47.5188 46.3423 45.1756 46.6449 41.6234C46.6472 41.5947 46.6504 41.5663 46.6539 41.5377C46.7265 40.9578 46.754 40.3243 46.754 39.6154V27.9123C46.754 23.5857 45.6706 20.7379 43.8894 18.9567C42.1082 17.1755 39.2605 16.0921 34.9338 16.0921H16.2089ZM13.7856 11.8321C14.5959 11.7333 15.4107 11.7035 16.2089 11.7035H34.9338C39.9404 11.7035 44.1 12.9607 46.9927 15.8534C49.8855 18.7462 51.1427 22.9057 51.1427 27.9123V39.6154C51.1427 40.4136 51.1128 41.2284 51.0139 42.0386C50.6377 46.3667 49.1365 49.9183 46.2648 52.3554C43.4128 54.7754 39.5273 55.8243 34.9338 55.8243H33.7635C33.7483 55.8243 33.7252 55.8281 33.6989 55.8412C33.6728 55.8544 33.6556 55.8708 33.6465 55.8828L30.1385 60.5599C30.1382 60.5608 30.1391 60.5593 30.1385 60.5599C29.0153 62.0641 27.3833 62.9997 25.5714 62.9997C23.7595 62.9997 22.129 62.0658 21.0056 60.562C21.0051 60.5614 21.0061 60.5626 21.0056 60.562L17.539 55.9398C17.514 55.9211 17.4743 55.8951 17.4243 55.8699C17.3793 55.8471 17.3408 55.8324 17.3149 55.8243H16.2089C11.5062 55.8243 7.25421 55.2804 4.2583 52.6641C1.18866 49.9838 0 45.6557 0 39.6154V27.9123C0 23.3153 1.05785 19.4304 3.48121 16.5799C5.9207 13.7105 9.47029 12.2088 13.7856 11.8321Z" fill="#817A8A"/>
<path opacity="0.4" fill-rule="evenodd" clip-rule="evenodd" d="M16.5974 11.7031H34.9313C39.9379 11.7031 44.0972 12.9604 46.9899 15.8531C49.8829 18.7459 51.1401 22.9054 51.1401 27.912V39.2251C53.3303 38.687 54.9097 37.7145 56.0194 36.4114C57.5367 34.6296 58.4545 31.9039 58.4545 27.912V16.2089C58.4545 11.8822 57.3711 9.03444 55.5899 7.25325C53.8087 5.47206 50.961 4.38867 46.6344 4.38867H27.9094C23.9338 4.38867 21.2064 5.30573 19.4195 6.82486C18.1133 7.9354 17.1371 9.51497 16.5974 11.7031ZM16.5769 3.48121C19.4274 1.05785 23.3122 0 27.9094 0H46.6344C51.641 0 55.8003 1.25724 58.693 4.14999C61.586 7.04277 62.8432 11.2022 62.8432 16.2089V27.912C62.8432 32.5221 61.7861 36.4084 59.3607 39.2567C56.9118 42.1327 53.3461 43.6255 49.0157 43.9959C48.3559 44.0523 47.7058 43.8077 47.247 43.3306C46.788 42.8534 46.5691 42.1942 46.6514 41.5373C46.7236 40.9574 46.7514 40.324 46.7514 39.6151V27.912C46.7514 23.5853 45.668 20.7376 43.8868 18.9564C42.1056 17.1752 39.2579 16.0918 34.9313 16.0918H16.2062C15.4972 16.0918 14.8639 16.1194 14.284 16.1919C13.627 16.2741 12.968 16.0551 12.4908 15.5961C12.0135 15.1372 11.769 14.4873 11.8254 13.8276C12.1961 9.49329 13.6982 5.9286 16.5769 3.48121Z" fill="#817A8A"/>
<path opacity="0.4" fill-rule="evenodd" clip-rule="evenodd" d="M32.9037 35.1091C32.9037 33.4932 34.2135 32.1833 35.8294 32.1833H35.8558C37.4717 32.1833 38.7816 33.4932 38.7816 35.1091C38.7816 36.725 37.4717 38.0348 35.8558 38.0348H35.8294C34.2135 38.0348 32.9037 36.725 32.9037 35.1091Z" fill="#817A8A"/>
<path opacity="0.4" fill-rule="evenodd" clip-rule="evenodd" d="M22.6634 35.1091C22.6634 33.4932 23.9733 32.1833 25.5892 32.1833H25.6155C27.2314 32.1833 28.5413 33.4932 28.5413 35.1091C28.5413 36.725 27.2314 38.0348 25.6155 38.0348H25.5892C23.9733 38.0348 22.6634 36.725 22.6634 35.1091Z" fill="#817A8A"/>
<path opacity="0.4" fill-rule="evenodd" clip-rule="evenodd" d="M12.4231 35.1091C12.4231 33.4932 13.733 32.1833 15.3489 32.1833H15.3752C16.9911 32.1833 18.301 33.4932 18.301 35.1091C18.301 36.725 16.9911 38.0348 15.3752 38.0348H15.3489C13.733 38.0348 12.4231 36.725 12.4231 35.1091Z" fill="#817A8A"/>
</svg>
