<svg width="14" height="14" viewBox="0 0 14 14" fill="none" xmlns="http://www.w3.org/2000/svg">
<g clip-path="url(#clip0_2721_2095)">
<path d="M13.1603 7.46527C13.1078 6.96137 12.996 6.46429 12.8293 5.98537C12.4801 4.96851 11.8822 4.01293 11.097 3.22305C11.0377 3.15722 10.9715 3.09367 10.8985 3.02785C10.8551 2.98699 10.8117 2.94614 10.7661 2.90528C10.4488 2.61929 10.0996 2.35599 9.7162 2.11767C9.66827 2.09043 9.62034 2.06092 9.56785 2.03141C8.45862 1.37091 7.21017 1.02136 5.964 1.02136C5.86586 1.02136 5.77 1.02363 5.67186 1.02817C4.08105 1.09627 2.64088 1.74542 1.61382 2.85761C0.486335 4.07422 -0.0340433 5.70165 0.150828 7.44257C0.527417 10.9948 3.75467 13.8865 7.34711 13.8865C9.45601 13.8865 11.3344 12.8696 12.3683 11.165L12.4025 11.1105C13.037 10.0369 13.2995 8.77947 13.1603 7.46527Z" fill="#D45102"/>
<path d="M13.2744 7.454C13.2196 6.93649 13.1055 6.4326 12.9366 5.94914C12.576 4.89369 11.9666 3.93584 11.1815 3.14596C11.1176 3.07787 11.0491 3.00977 10.9783 2.94849C10.935 2.90536 10.8893 2.86224 10.8437 2.82138C10.515 2.52631 10.159 2.26075 9.78465 2.02696C9.73216 1.99518 9.67967 1.96341 9.62717 1.9339C8.53164 1.28247 7.27177 0.907959 5.96398 0.907959C5.86356 0.907959 5.76542 0.910229 5.66728 0.914768C3.98974 0.987401 2.54044 1.68649 1.52936 2.78053C0.429258 3.96762 -0.157309 5.62229 0.0366919 7.454C0.420129 11.0698 3.69303 14 7.34709 14C9.58381 14 11.4462 12.9037 12.4664 11.2241C12.4687 11.2241 12.4687 11.2218 12.4687 11.2218C13.1146 10.1573 13.4227 8.85673 13.2744 7.454ZM12.4025 11.1106L12.3683 11.1651C11.3344 12.8697 9.45599 13.8866 7.34709 13.8866C3.75466 13.8866 0.527399 10.9949 0.15081 7.44265C-0.0340612 5.70173 0.486317 4.0743 1.6138 2.8577C2.64087 1.74551 4.08104 1.09635 5.67184 1.02826C5.76998 1.02372 5.86584 1.02145 5.96398 1.02145C7.21015 1.02145 8.4586 1.37099 9.56783 2.0315C9.62032 2.06101 9.66825 2.09051 9.71618 2.11775C10.0996 2.35608 10.4488 2.61937 10.7661 2.90537C10.8117 2.94622 10.8551 2.98708 10.8984 3.02793C10.9715 3.09376 11.0377 3.15731 11.097 3.22313C11.8821 4.01302 12.4801 4.9686 12.8293 5.98546C12.9959 6.46438 13.1078 6.96146 13.1603 7.46535C13.2995 8.77955 13.037 10.037 12.4025 11.1106Z" fill="black"/>
<path d="M12.4025 11.1105L12.3683 11.165C11.3344 12.8696 9.45601 13.8865 7.34711 13.8865C3.75467 13.8865 0.527417 10.9948 0.150828 7.44257C-0.0340433 5.70165 0.486335 4.07422 1.61382 2.85761C2.64088 1.74542 4.08105 1.09627 5.67186 1.02817C5.77 1.02363 5.86586 1.02136 5.964 1.02136C7.21017 1.02136 8.45862 1.37091 9.56785 2.03141C9.62034 2.06092 9.66827 2.09043 9.7162 2.11767C10.0996 2.35599 10.4488 2.61929 10.7661 2.90528C10.8117 2.94614 10.8551 2.98699 10.8985 3.02785C10.9715 3.09367 11.0377 3.15722 11.097 3.22305C11.8822 4.01293 12.4801 4.96851 12.8293 5.98537C12.996 6.46429 13.1078 6.96137 13.1603 7.46527C13.2995 8.77947 13.037 10.0369 12.4025 11.1105Z" fill="#D45102"/>
<path d="M13.5435 9.23123C13.5139 9.31521 13.4842 9.39692 13.45 9.4741L13.4408 9.49679C13.3883 9.62163 13.329 9.75101 13.2651 9.87812C13.2012 10.0007 13.1327 10.121 13.0642 10.2413C13.0186 10.3207 12.9684 10.3956 12.9159 10.4705C12.8223 10.6158 12.7173 10.7565 12.5895 10.9086C12.5256 10.9903 12.4594 11.0675 12.3887 11.1401L12.327 11.2059C12.2905 11.2445 12.254 11.2808 12.2175 11.3194C11.1356 12.3885 9.64982 12.9786 8.03391 12.9786H7.99511C6.70558 12.9718 5.41833 12.5905 4.27486 11.8778C4.06945 11.7484 3.89371 11.6281 3.73394 11.5055C3.60385 11.4057 3.47375 11.3013 3.34822 11.1969C3.21128 11.0811 3.0926 10.9721 2.98533 10.8655C2.91001 10.7883 2.83241 10.7089 2.75481 10.6294L2.67493 10.5432L2.6521 10.5159C1.97881 9.77371 1.47897 8.93389 1.16401 8.01463L1.10695 7.83304C1.07271 7.72183 1.04076 7.61515 1.01337 7.51074C0.985982 7.40179 0.960876 7.29511 0.938052 7.18616C0.890123 6.95237 0.855887 6.73901 0.835346 6.52792C0.81024 6.29867 0.798828 6.06035 0.798828 5.81975C0.798828 5.72215 0.80111 5.62682 0.807958 5.53149C0.807958 5.50425 0.807958 5.48155 0.812522 5.46113C0.817087 5.37941 0.823934 5.30451 0.833064 5.22961C0.839911 5.12974 0.853605 5.03895 0.867299 4.94589C0.878711 4.85736 0.894687 4.77111 0.912946 4.68486C0.919793 4.64627 0.928923 4.60996 0.938052 4.57364C1.07043 3.95626 1.30095 3.37293 1.62733 2.83953C2.54483 1.32332 4.12423 0.345043 5.95925 0.152112C6.17151 0.127144 6.40202 0.113525 6.64852 0.113525C8.40594 0.113525 10.1246 0.794459 11.4871 2.03149C12.2859 2.75555 12.9227 3.64303 13.329 4.59861C13.6006 5.22961 13.774 5.89011 13.8448 6.55743C13.9429 7.48804 13.8425 8.38914 13.5435 9.23123Z" fill="#FFDF0E"/>
<path d="M13.5435 9.23123C13.5139 9.31521 13.4842 9.39692 13.45 9.4741L13.4408 9.49679C13.3883 9.62163 13.329 9.75101 13.2651 9.87812C13.2012 10.0007 13.1327 10.121 13.0642 10.2413C13.0186 10.3207 12.9684 10.3956 12.9159 10.4705C12.8223 10.6158 12.7173 10.7565 12.5895 10.9086C12.5256 10.9903 12.4594 11.0675 12.3887 11.1401L12.327 11.2059C12.2905 11.2445 12.254 11.2808 12.2175 11.3194C11.1356 12.3885 9.64982 12.9786 8.03391 12.9786H7.99511C6.70558 12.9718 5.41833 12.5905 4.27486 11.8778C4.06945 11.7484 3.89371 11.6281 3.73394 11.5055C3.60385 11.4057 3.47375 11.3013 3.34822 11.1969C3.21128 11.0811 3.0926 10.9721 2.98533 10.8655C2.91001 10.7883 2.83241 10.7089 2.75481 10.6294L2.67493 10.5432L2.6521 10.5159C1.97881 9.77371 1.47897 8.93389 1.16401 8.01463L1.10695 7.83304C1.07271 7.72183 1.04076 7.61515 1.01337 7.51074C0.985982 7.40179 0.960876 7.29511 0.938052 7.18616C0.890123 6.95237 0.855887 6.73901 0.835346 6.52792C0.81024 6.29867 0.798828 6.06035 0.798828 5.81975C0.798828 5.72215 0.80111 5.62682 0.807958 5.53149C0.807958 5.50425 0.807958 5.48155 0.812522 5.46113C0.817087 5.37941 0.823934 5.30451 0.833064 5.22961C0.839911 5.12974 0.853605 5.03895 0.867299 4.94589C0.878711 4.85736 0.894687 4.77111 0.912946 4.68486C0.919793 4.64627 0.928923 4.60996 0.938052 4.57364C1.07043 3.95626 1.30095 3.37293 1.62733 2.83953C2.54483 1.32332 4.12423 0.345043 5.95925 0.152112C6.17151 0.127144 6.40202 0.113525 6.64852 0.113525C8.40594 0.113525 10.1246 0.794459 11.4871 2.03149C12.2859 2.75555 12.9227 3.64303 13.329 4.59861C13.6006 5.22961 13.774 5.89011 13.8448 6.55743C13.9429 7.48804 13.8425 8.38914 13.5435 9.23123Z" fill="#FFDF0E"/>
<path d="M11.5786 10.3389C10.6998 11.3103 9.43998 11.8437 8.03405 11.8437C5.00535 11.8437 2.28706 9.40827 1.96981 6.41443C1.82374 5.02306 2.22544 3.72247 3.10415 2.75101C3.98286 1.78181 5.24272 1.24841 6.64865 1.24841C9.67506 1.24841 12.3956 3.68389 12.7106 6.67546C12.859 8.0691 12.455 9.36968 11.5786 10.3389Z" fill="#FFDF0E"/>
<path d="M13.548 9.53534C13.548 9.53534 13.548 9.53761 13.5457 9.53988C13.4384 9.80317 13.3083 10.0574 13.1622 10.298C13.1143 10.3797 13.0641 10.4591 13.0093 10.5363C12.9089 10.6907 12.7971 10.8382 12.6784 10.9812C12.6122 11.0652 12.5414 11.1446 12.4684 11.2218C12.4684 11.2218 12.4684 11.2241 12.4661 11.2241C12.4091 11.2831 12.3543 11.3421 12.2972 11.3988C11.2336 12.452 9.74326 13.0921 8.03377 13.0921H7.99497C6.63697 13.0853 5.33374 12.6722 4.2131 11.9731C4.02595 11.8551 3.84107 11.7279 3.66533 11.5963C3.3983 11.3943 3.14495 11.1787 2.90531 10.9449C2.82771 10.8677 2.75011 10.7883 2.67251 10.7065C2.63599 10.668 2.60175 10.6294 2.56752 10.5908C1.8577 9.80544 1.31222 8.87483 0.994971 7.86024C0.963018 7.75356 0.931065 7.64461 0.903677 7.53793C0.874006 7.42898 0.8489 7.32003 0.826077 7.20881C0.780429 6.98864 0.743912 6.7662 0.721088 6.53923C0.695982 6.29636 0.68457 6.05576 0.68457 5.81971C0.68457 5.71984 0.686853 5.62224 0.6937 5.52464C0.6937 5.49967 0.6937 5.47243 0.698264 5.44973C0.702829 5.37029 0.709676 5.29312 0.718806 5.21595C0.725653 5.11834 0.739347 5.02301 0.755323 4.92768C0.766735 4.83916 0.782712 4.75064 0.800971 4.66212C0.805535 4.62126 0.814665 4.58041 0.823794 4.53955C0.823794 4.54182 0.823794 4.54409 0.823794 4.54636C1.08627 5.15239 1.42862 5.71984 1.83944 6.23281C1.88053 6.28501 1.92161 6.33722 1.96497 6.38715C2.40319 6.9092 2.90987 7.37451 3.47133 7.76264C4.17886 8.25745 4.97313 8.63196 5.81303 8.8544C6.39275 9.01102 6.9953 9.09273 7.60925 9.09273C8.16158 9.09273 8.68881 9.02691 9.18636 8.90207H9.18865C9.24342 8.88618 9.29592 8.87256 9.34841 8.85667C10.7658 8.45946 11.9275 7.58106 12.6738 6.40531C12.7035 6.35764 12.7332 6.30771 12.7628 6.25777C12.8222 6.1579 12.8792 6.05349 12.934 5.94908C13.1554 5.51556 13.3243 5.04798 13.4316 4.55544C13.4316 4.5509 13.4316 4.54409 13.4361 4.53955C13.7054 5.17055 13.888 5.8424 13.9611 6.53923C14.0752 7.61964 13.92 8.6365 13.5457 9.53534H13.548Z" fill="#FEBC00"/>
<path fill-rule="evenodd" clip-rule="evenodd" d="M11.5644 1.94747L11.181 3.14591V3.15272L11.1376 3.27756L9.57195 8.16667L9.38708 8.74319L9.35056 8.85668L8.39881 11.8301L8.36001 11.9459L7.99484 13.0921C6.63683 13.0853 5.3336 12.6722 4.21296 11.9731C4.02581 11.8551 3.84094 11.7302 3.6652 11.5963C3.53282 11.4942 3.40044 11.3898 3.27491 11.2831C3.1471 11.1741 3.02385 11.0629 2.90517 10.9449C2.82757 10.8677 2.74997 10.7883 2.67237 10.7065C2.63585 10.668 2.6039 10.6316 2.56738 10.5931L2.98049 9.3061L3.02157 9.17218L3.47348 7.76265L5.52076 1.37095L5.56184 1.24384L5.66683 0.914721L5.94756 0.0385863C6.17579 0.0113489 6.41088 0 6.64824 0C8.49239 0 10.2384 0.744488 11.5644 1.94747Z" fill="white"/>
<path d="M13.9588 6.54604C13.8857 5.85149 13.7054 5.18418 13.4338 4.55545C13.0116 3.56128 12.3634 2.67153 11.5646 1.94747C10.2385 0.744488 8.49253 0 6.64838 0C6.41101 0 6.17593 0.0113489 5.94769 0.0385863C4.02366 0.240597 2.43971 1.27789 1.52904 2.78048C1.20267 3.31615 0.963018 3.90856 0.826077 4.54637C0.816947 4.58495 0.807818 4.62354 0.800971 4.66213C0.782712 4.75065 0.766735 4.83917 0.755323 4.92769C0.739347 5.02302 0.725653 5.11835 0.718806 5.21595C0.709676 5.29313 0.702829 5.3703 0.698264 5.44974C0.695982 5.47244 0.6937 5.49968 0.6937 5.52464C0.686853 5.62224 0.68457 5.71984 0.68457 5.81971C0.68457 6.05577 0.695982 6.29637 0.721088 6.53924C0.743912 6.76621 0.780429 6.98865 0.826077 7.20882C0.8489 7.32004 0.874006 7.42899 0.903677 7.53794C0.931065 7.64462 0.963018 7.75357 0.994971 7.86025C1.01551 7.9238 1.03605 7.98735 1.0566 8.05091C1.37841 8.99287 1.89879 9.85538 2.56752 10.5908C2.60404 10.6316 2.63599 10.668 2.67251 10.7065C2.75011 10.7883 2.82771 10.8677 2.90531 10.9449C3.02399 11.0629 3.14724 11.1741 3.27505 11.2831C3.40058 11.3898 3.53296 11.4942 3.66533 11.5963C3.84107 11.7302 4.02595 11.8551 4.2131 11.9731C5.33374 12.6722 6.63697 13.0853 7.99497 13.0921H8.03377C9.74326 13.0921 11.2336 12.452 12.2972 11.3988C12.3543 11.3421 12.4091 11.2831 12.4661 11.2241C12.4684 11.2241 12.4684 11.2218 12.4684 11.2218C12.5414 11.1446 12.6122 11.0652 12.6784 10.9812C12.7971 10.8382 12.9089 10.6907 13.0093 10.5363C13.0641 10.4591 13.1143 10.3797 13.1622 10.298C13.233 10.1777 13.3015 10.0551 13.3676 9.92802C13.4316 9.80091 13.4909 9.67153 13.5457 9.53988C13.548 9.53761 13.548 9.53534 13.548 9.53534C13.5845 9.44909 13.6187 9.36057 13.6507 9.26978C13.9451 8.43904 14.0615 7.51751 13.9588 6.54604ZM13.5434 9.23119C13.5137 9.31518 13.484 9.39689 13.4498 9.47406L13.4407 9.49676C13.3882 9.6216 13.3288 9.75097 13.2649 9.87808C13.201 10.0006 13.1326 10.1209 13.0641 10.2412C13.0184 10.3207 12.9682 10.3956 12.9157 10.4705C12.8222 10.6158 12.7172 10.7565 12.5894 10.9086C12.5255 10.9903 12.4593 11.0674 12.3885 11.1401L12.3269 11.2059C12.2904 11.2445 12.2539 11.2808 12.2173 11.3194C11.1355 12.3885 9.64968 12.9786 8.03377 12.9786H7.99497C6.70544 12.9718 5.41819 12.5905 4.27472 11.8778C4.06931 11.7484 3.89357 11.6281 3.7338 11.5055C3.60371 11.4056 3.47361 11.3012 3.34809 11.1968C3.21114 11.0811 3.09246 10.9721 2.98519 10.8654C2.90987 10.7883 2.83227 10.7088 2.75467 10.6294L2.67479 10.5431L2.65197 10.5159C1.97867 9.77367 1.47883 8.93385 1.16387 8.01459L1.10681 7.83301C1.07257 7.72179 1.04062 7.61511 1.01323 7.5107C0.985842 7.40175 0.960736 7.29507 0.937912 7.18612C0.889983 6.95233 0.855747 6.73898 0.835206 6.52789C0.8101 6.29864 0.798688 6.06031 0.798688 5.81971C0.798688 5.72211 0.800971 5.62678 0.807818 5.53145C0.807818 5.50422 0.807818 5.48152 0.812382 5.46109C0.816947 5.37938 0.823794 5.30448 0.832924 5.22957C0.839771 5.1297 0.853465 5.03891 0.867159 4.94585C0.878571 4.85733 0.894547 4.77108 0.912806 4.68482C0.919653 4.64624 0.928783 4.60992 0.937912 4.57361C1.07029 3.95623 1.30081 3.37289 1.62719 2.83949C2.54469 1.32328 4.12409 0.345006 5.95911 0.152075C6.17137 0.127108 6.40188 0.113489 6.64838 0.113489C8.4058 0.113489 10.1244 0.794423 11.487 2.03145C12.2858 2.75551 12.9226 3.643 13.3288 4.59857C13.6004 5.22957 13.7739 5.89008 13.8447 6.55739C13.9428 7.488 13.8424 8.3891 13.5434 9.23119Z" fill="black"/>
<path d="M9.67459 8.25065L8.84152 7.55837L8.75023 7.4812L8.67719 7.57653C8.39418 7.9465 8.02216 8.13036 7.54514 8.13036C7.24615 8.13036 6.97455 8.0668 6.73034 7.94196C6.48385 7.81032 6.283 7.631 6.1278 7.40176C5.97488 7.17251 5.88358 6.90921 5.85163 6.61414C5.82196 6.3168 5.85848 6.06032 5.9589 5.83561C6.06389 5.6109 6.22137 5.4384 6.43592 5.31583H6.4382C6.65046 5.18645 6.9038 5.12063 7.20279 5.12063C7.68208 5.12063 8.10204 5.30448 8.4695 5.67899L8.55166 5.76298L8.63383 5.67899L9.31854 4.98671L9.39614 4.90727L9.32082 4.82783C9.03552 4.52822 8.69774 4.2967 8.30517 4.13781C7.91945 3.97666 7.49721 3.89722 7.04074 3.89722C6.49754 3.89722 6.01368 4.01525 5.59601 4.2513C5.18062 4.48509 4.86565 4.81194 4.65567 5.23185C4.49134 5.56096 4.40918 5.92413 4.40918 6.3168C4.40918 6.42121 4.41603 6.52789 4.42744 6.63684C4.48222 7.15662 4.65567 7.62646 4.94782 8.04183H4.9501C5.24452 8.45266 5.6234 8.77497 6.08215 9.00876C6.54547 9.24028 7.04759 9.35377 7.58623 9.35377C8.0427 9.35377 8.45124 9.27432 8.81185 9.11317C9.17475 8.95202 9.46917 8.71369 9.69284 8.405L9.75447 8.31875L9.67459 8.25065ZM9.60155 8.33918C9.38929 8.62971 9.10856 8.85668 8.76621 9.00876C8.42385 9.16311 8.02672 9.24028 7.58623 9.24028C7.06585 9.24028 6.57742 9.12906 6.13236 8.90889C5.69187 8.68418 5.32669 8.36868 5.04139 7.97601C4.76295 7.5788 4.59405 7.12484 4.54156 6.62549C4.48906 6.12841 4.5621 5.67445 4.7561 5.28178C4.95695 4.88457 5.25822 4.57134 5.65078 4.35117C6.0502 4.12419 6.5158 4.01071 7.04074 4.01071C7.48124 4.01071 7.89206 4.08788 8.2618 4.24222C8.63611 4.39657 8.96477 4.61901 9.23865 4.90727L8.55166 5.59955C8.16595 5.20688 7.71176 5.00714 7.20279 5.00714C6.88782 5.00714 6.61166 5.0775 6.37886 5.21823C6.14606 5.35215 5.97031 5.54281 5.8562 5.78794C5.74436 6.03308 5.70556 6.31453 5.7398 6.62549C5.77175 6.93645 5.86989 7.2179 6.03194 7.46304C6.19855 7.70818 6.41537 7.90338 6.67556 8.04183C6.94032 8.17575 7.23018 8.24384 7.54514 8.24384C8.05411 8.24384 8.46493 8.04183 8.76849 7.64462L9.60155 8.33691V8.33918Z" fill="black"/>
<path d="M9.60189 8.33694C9.38963 8.62974 9.1089 8.85672 8.76655 9.0088C8.42419 9.16314 8.02706 9.24031 7.58657 9.24031C7.06619 9.24031 6.57776 9.1291 6.1327 8.90893C5.69221 8.68422 5.32703 8.36872 5.04173 7.97605C4.76329 7.57884 4.59439 7.12488 4.5419 6.62553C4.4894 6.12845 4.56244 5.67449 4.75644 5.28182C4.95729 4.88461 5.25856 4.57138 5.65112 4.35121C6.05054 4.12423 6.51614 4.01074 7.04108 4.01074C7.48158 4.01074 7.8924 4.08791 8.26215 4.24226C8.63645 4.3966 8.96511 4.61904 9.239 4.90731L8.552 5.59959C8.16629 5.20692 7.7121 5.00718 7.20313 5.00718C6.88816 5.00718 6.612 5.07754 6.3792 5.21826C6.1464 5.35218 5.97065 5.54284 5.85654 5.78798C5.7447 6.03312 5.7059 6.31457 5.74014 6.62553C5.77209 6.93649 5.87023 7.21794 6.03228 7.46308C6.19889 7.70821 6.41571 7.90341 6.6759 8.04187C6.94066 8.17579 7.23052 8.24388 7.54548 8.24388C8.05445 8.24388 8.46527 8.04187 8.76883 7.64466L9.60189 8.33694Z" fill="#D45102"/>
<path d="M12.8243 6.66407C12.5025 3.61576 9.73167 1.13489 6.6482 1.13489C5.20803 1.13489 3.9185 1.6819 3.01925 2.67607C2.12 3.67023 1.70689 5.00259 1.85752 6.42801C2.17934 9.47633 4.95012 11.9572 8.03359 11.9572C9.47376 11.9572 10.761 11.4102 11.6625 10.416C12.5618 9.42185 12.9749 8.08949 12.8243 6.66407ZM11.5781 10.3388C10.6994 11.3103 9.43953 11.8437 8.03359 11.8437C5.0049 11.8437 2.28661 9.40823 1.96936 6.41439C1.82329 5.02302 2.22498 3.72244 3.10369 2.75097C3.9824 1.78177 5.24226 1.24838 6.6482 1.24838C9.67461 1.24838 12.3952 3.68385 12.7101 6.67542C12.8585 8.06906 12.4545 9.36965 11.5781 10.3388Z" fill="black"/>
</g>
<defs>
<clipPath id="clip0_2721_2095">
<rect width="14" height="14" fill="white"/>
</clipPath>
</defs>
</svg>
