<svg width="36" height="36" viewBox="0 0 36 36" fill="none" xmlns="http://www.w3.org/2000/svg">
<path d="M35.5923 14.307L18.2954 6.29866C18.1081 6.21197 17.8919 6.21197 17.7045 6.29866L0.407672 14.307C0.159117 14.4221 0 14.6711 0 14.9451C0 15.219 0.159117 15.468 0.407672 15.5831L2.75822 16.6714V23.7432H2.53533C2.34802 23.7432 2.16844 23.8179 2.03646 23.9508L1.09385 24.8999C0.96307 25.0316 0.889594 25.2097 0.889594 25.3954V29.0633C0.889594 29.4517 1.20438 29.7664 1.59272 29.7664H5.32997C5.7183 29.7664 6.03309 29.4517 6.03309 29.0633V25.3954C6.03309 25.2098 5.95969 25.0317 5.82884 24.8999L4.88623 23.9508C4.75425 23.8179 4.57467 23.7432 4.38736 23.7432H4.16447V17.3225L10.2765 20.1524C10.3721 20.1967 10.4726 20.2177 10.5715 20.2177C10.8369 20.2177 11.0911 20.0666 11.21 19.8098C11.3731 19.4574 11.2198 19.0394 10.8674 18.8763L2.37656 14.9451L18 7.71159L33.6234 14.9451L25.7374 18.5962C25.385 18.7593 25.2316 19.1773 25.3948 19.5296C25.5579 19.882 25.976 20.0354 26.3282 19.8723L35.5923 15.5831C35.8409 15.468 36 15.2189 36 14.945C36 14.6711 35.8409 14.4221 35.5923 14.307ZM4.62691 25.6852V28.3601H2.29584V25.6852L2.82797 25.1494H4.09472L4.62691 25.6852Z" fill="#171717"/>
<path d="M17.9998 14.5095C23.0927 14.5095 27.2213 15.5549 27.2213 16.8444V26.7285C27.2213 25.439 23.0927 24.3936 17.9998 24.3936C12.9069 24.3936 8.77832 25.439 8.77832 26.7285V16.8444C8.77832 15.5549 12.9069 14.5095 17.9998 14.5095Z" fill="#FEDC33"/>
<path d="M17.9997 29.7664C14.3136 29.7664 8.0752 29.1266 8.0752 26.7284C8.0752 24.3303 14.3136 23.6904 17.9997 23.6904C21.6859 23.6904 27.9243 24.3303 27.9243 26.7284C27.9243 29.1266 21.6859 29.7664 17.9997 29.7664ZM9.48967 26.7284C9.58684 26.8929 10.1759 27.3574 11.9234 27.7637C13.5775 28.1483 15.7355 28.3602 17.9997 28.3602C20.2639 28.3602 22.422 28.1483 24.0761 27.7637C25.8236 27.3574 26.4126 26.8929 26.5097 26.7284C26.4126 26.564 25.8235 26.0995 24.0761 25.6931C22.422 25.3085 20.264 25.0967 17.9997 25.0967C15.7355 25.0967 13.5775 25.3085 11.9234 25.6931C10.1759 26.0995 9.58691 26.564 9.48967 26.7284Z" fill="#171717"/>
</svg>
