<svg width="134" height="131" viewBox="0 0 134 131" fill="none" xmlns="http://www.w3.org/2000/svg">
<path d="M51.443 33.8444C40.7102 23.3 30.1911 14.1719 17.0923 11.3177C12.8051 10.6819 16.1239 7.77392 21.6341 5.23679C30.8857 2.2539 45.1252 18.8937 51.443 33.8444Z" fill="#3E3E7A"/>
<path d="M47.1043 35.4426L38.097 39.0962C18.8137 36.8125 -10.75 24.3566 5.03402 12.6388C9.40881 9.38895 16.2106 6.79043 21.6341 5.23633C20.9954 5.44555 20.3844 5.75023 19.7987 6.156C17.7245 7.59606 16.9166 9.35938 17.0923 11.3173C17.7774 18.9926 33.553 29.6472 47.1043 35.4426Z" fill="#51518E"/>
<path d="M51.6196 33.6015C57.7008 23.075 63.9211 13.6975 73.5042 8.64829C76.7051 7.22795 73.4935 5.68004 68.6555 4.89356C60.8084 4.56776 53.3122 20.597 51.6196 33.6015Z" fill="#3E3E7A"/>
<path d="M55.343 33.9105L63.1448 34.8116C77.6664 28.872 97.9973 12.7932 83.1786 7.07573C79.071 5.48953 73.2139 4.93395 68.6555 4.89453C69.1979 4.91959 69.7393 5.02491 70.2831 5.2147C72.2089 5.88827 73.2184 7.087 73.5042 8.64926C74.6272 14.773 64.6434 26.4734 55.343 33.9105Z" fill="#51518E"/>
<path d="M29.263 107.971C23.9707 106.247 19.338 104.319 15.5912 102.122C15.2119 92.8366 14.8247 80.4962 9.71521 72.8865C10.7112 68.717 14.2421 64.543 19.4118 61.0332C21.8836 62.2612 32.5998 95.3986 29.263 107.971Z" fill="#8888E8"/>
<path d="M49.1593 113.085C44.2391 112.057 39.5557 110.955 35.2042 109.752C30.4848 84.5031 27.808 65.1045 27.808 56.0018C31.7491 53.8474 35.9485 51.7349 40.0251 49.6016C49.0073 55.2342 53.6127 94.8628 49.1593 113.085Z" fill="#8888E8"/>
<path d="M84.3705 107.97C82.1195 87.3042 81.5388 66.638 81.2919 45.9698C84.9858 43.9674 91.764 42.3815 99.5941 46.4814C97.7542 61.0326 100.474 94.4969 102.366 101.437C100.402 103.49 93.0607 105.882 84.3705 107.97Z" fill="#A4A4F7"/>
<path d="M71.1746 110.732C61.4884 112.487 52.5043 113.533 49.1593 113.083C49.3916 91.4204 47.5376 73.7007 41.0548 53.0277C42.6154 51.3151 51.3931 42.5021 65.2519 45.7331C73.442 66.6466 76.341 89.0266 71.1746 110.732Z" fill="#A4A4F7"/>
<path d="M20.2343 63.5384C15.7804 66.7477 11.8018 70.4185 8.28356 74.4908C5.1089 72.0407 2.86406 66.7446 2.57458 61.9313C6.27046 57.2583 10.4042 52.9494 15.2017 49.0801C19.3442 51.7315 22.67 59.4956 20.2343 63.5384Z" fill="#A4A4F7"/>
<path d="M41.0548 53.0279C36.5764 54.5206 32.3731 56.318 28.4466 58.4195C26.7815 58.4378 21.9089 47.616 23.9535 42.9844C27.7783 40.6945 31.9712 38.6307 36.5997 36.8125C41.8413 55.8931 40.9554 52.6458 41.0548 53.0279Z" fill="#A4A4F7"/>
<path d="M65.618 47.3047C57.395 48.4592 49.2061 50.3453 41.0551 53.0283C40.4266 50.744 37.3032 39.372 36.6001 36.8129C44.7786 33.3876 52.9422 31.3008 61.1272 30.1738C64.6877 33.9207 69.4578 43.613 65.618 47.3047Z" fill="#C5C5FF"/>
<path d="M104.878 31.1046C106.764 36.8136 105.671 43.9212 103.28 46.8402C95.985 46.0492 88.5978 45.7375 81.2919 45.9712C77.2511 45.3616 75.6756 34.0732 78.6171 29.0898C87.3095 29.1383 96.0506 29.9586 104.878 31.1046Z" fill="#C5C5FF"/>
<path d="M35.2042 109.751C33.1446 109.182 31.1614 108.588 29.2626 107.971C28.7375 89.0214 21.7906 66.872 15.202 49.0803C17.8957 46.9044 20.8008 44.8685 23.9535 42.9844C30.8472 64.3681 35.5058 87.1043 35.2042 109.751Z" fill="#2C2C61"/>
<path d="M84.3705 107.97C80.1374 108.989 75.5832 109.935 71.1746 110.732C73.2249 83.5824 68.7144 55.993 61.1269 30.1731C66.9437 29.3716 72.771 29.0546 78.6173 29.0884C83.2965 54.8027 85.335 81.1123 84.3705 107.97Z" fill="#3E3E7A"/>
<path d="M117.26 71.8988C111.699 69.42 105.552 69.5005 99.8682 71.638C99.3816 61.2603 99.4616 52.6022 100.095 47.094C102.566 47.3148 103.167 47.4035 103.287 47.4035C103.455 47.4035 103.615 47.3286 103.723 47.1974C106.157 44.2272 107.419 36.9813 105.419 30.9285C105.351 30.7232 105.171 30.5748 104.956 30.5469C94.8407 29.2336 85.3564 28.4133 75.8496 28.5425C80.4869 25.3704 89.5 18.372 88.8836 12.2877C88.6307 9.79057 86.7812 7.86083 83.387 6.55199C79.1853 4.92778 72.9425 4.33165 68.662 4.33165C64.0296 4.15143 60.0811 9.20317 57.7546 13.2446C54.8587 18.2757 52.495 25.0381 51.3937 31.4094C51.2687 31.439 51.1445 31.4708 51.0195 31.5007C44.7724 18.133 31.2085 1.59149 21.486 4.69659L21.4846 4.69687C18.2085 5.63569 10.0151 8.2452 4.70429 12.1889C0.977149 14.9558 -0.547102 17.9536 0.17377 21.0987C1.25649 25.8229 7.22931 29.6664 12.0493 32.0588C17.4736 34.7511 24.3709 37.0683 31.2085 38.5151C19.291 44.063 9.9965 51.6445 2.14012 61.5847C2.05423 61.6931 2.01171 61.8294 2.01988 61.9674C2.32907 67.1498 4.76567 72.4837 7.9454 74.9386C8.18193 75.121 8.5204 75.0875 8.71555 74.8611C9.02107 74.5077 9.33111 74.1586 9.64367 73.8114C14.3201 81.3656 14.6667 93.1561 15.0344 102.148C15.042 102.34 15.1468 102.514 15.3124 102.611C24.3391 107.901 38.2023 111.378 48.4176 113.508C49.125 113.656 49.4696 113.727 50.3544 113.763C55.5365 113.979 67.5066 111.971 71.2808 111.287C74.5965 110.687 77.8458 110.032 80.9571 109.34C84.9641 123.978 99.472 130.721 113.183 124.183C119.67 121.09 124.973 115.503 128.117 108.452C134.62 93.8651 129.749 77.4673 117.26 71.8988ZM103.035 46.247C95.4545 45.445 88.408 45.2057 81.7858 45.398C81.0675 40.1345 80.2371 34.8823 79.2963 29.6616C86.6607 29.7356 94.6861 30.3588 104.456 31.6175C106.11 37.0111 105.07 43.4714 103.035 46.247ZM87.7634 12.4009C88.1841 16.5538 82.8165 22.7485 73.7484 28.5859C69.3567 28.7138 65.1846 29.0522 61.1078 29.6112C65.3682 25.5383 73.6194 16.6127 74.1387 10.2839C74.2921 8.41218 73.7715 6.73024 72.2399 5.59205C77.4947 5.93643 87.2357 7.19599 87.7634 12.4009ZM48.6071 112.39C43.8392 111.383 39.6286 110.377 35.7764 109.324C35.9406 93.6294 33.6988 76.6616 29.0985 58.7043C31.0899 57.5926 34.6523 55.8873 40.695 53.7534C46.4988 72.4507 48.8048 89.5385 48.6071 112.39ZM36.2306 37.5726C36.945 40.1784 39.7043 50.2205 40.379 52.6701C34.4803 54.7505 30.8903 56.4392 28.8068 57.5788C27.5765 52.8664 26.1854 48.0869 24.6327 43.2447C28.2388 41.1136 32.0445 39.2529 36.2306 37.5726ZM41.4432 52.2953C40.7381 49.7323 37.9185 39.4652 37.281 37.1426C44.4517 34.1842 52.1523 32.0143 60.7285 30.8032C60.7285 30.8724 62.77 37.4985 64.9326 46.8367C56.1129 48.1078 47.8097 50.0358 41.4432 52.2953ZM44.0656 33.4543C31.8519 27.6783 19.2741 18.6641 17.7861 12.056C28.9625 14.7325 38.3443 21.9894 48.8068 32.0613C47.2121 32.4857 45.6324 32.9492 44.0656 33.4543ZM73.0303 9.5515C73.1362 14.6953 66.3257 23.3055 59.1558 29.8967C57.3773 30.1724 55.6246 30.4923 53.8934 30.8547C59.6232 21.2676 65.1844 13.9463 73.0303 9.5515ZM68.4528 5.45351C70.0184 5.45351 72.2855 6.34812 72.8642 8.3598C64.4767 12.9174 58.6695 20.6076 52.6603 30.7249C54.9913 18.4334 61.8036 5.45351 68.4528 5.45351ZM20.2016 6.56692C20.5784 6.34192 20.985 6.04259 21.8129 5.77424C29.9329 3.1577 42.8249 16.9875 49.7118 31.3692C38.9401 20.9855 29.2872 13.5312 17.6403 10.8657C17.6223 9.16515 18.4814 7.72031 20.2016 6.56692ZM1.27169 20.8469C0.659796 18.1777 2.04072 15.5691 5.3756 13.0931C9.05655 10.3597 14.2007 8.27476 18.0159 6.96875C16.8969 8.22408 16.3897 9.71735 16.5367 11.3678C17.1824 18.5731 30.2218 27.9709 42.5259 33.9649C39.7601 34.9087 35.8353 36.4572 32.9597 37.7213C18.8173 34.9991 2.95279 28.1821 1.27169 20.8469ZM23.6413 43.8366C31.1195 67.2323 34.8241 89.153 34.6551 109.013C32.994 108.546 31.3723 108.058 29.8199 107.559C29.3308 92.4209 24.7674 73.3434 15.877 49.2671C18.32 47.3165 20.9273 45.4926 23.6413 43.8366ZM10.4302 72.9517C11.9522 71.3159 13.5462 69.7562 15.1916 68.2987C15.4244 68.0925 15.4458 67.7363 15.2397 67.5037C15.0333 67.2706 14.6774 67.2492 14.4448 67.4556C12.4942 69.1834 10.3144 71.3303 8.22473 73.7097C5.52709 71.3446 3.48472 66.6973 3.15807 62.1132C6.83283 57.4859 10.6991 53.5222 14.9525 50.0189C23.6325 73.5923 28.1267 92.3116 28.6772 107.185C23.6765 105.515 19.465 103.704 16.1473 101.793C15.7719 92.6064 15.3726 80.6732 10.4302 72.9517ZM49.7338 112.578C49.9464 89.4943 47.6238 72.2612 41.7591 53.3803C48.0881 51.1273 56.3731 49.2029 65.1858 47.9377C70.2164 70.0755 72.0529 90.9842 70.6489 110.256C61.1607 111.958 53.1255 112.847 49.7338 112.578ZM71.7953 110.048C73.6878 83.4446 69.2649 55.9315 61.856 30.6466C67.0355 29.9657 72.3835 29.6407 78.1522 29.6529C80.6051 43.2196 82.313 57.0055 83.2298 70.6373C83.2507 70.9476 83.5275 71.183 83.8293 71.1613C84.1399 71.1405 84.3745 70.8718 84.3534 70.5615C83.8164 62.5759 83.0068 54.5376 81.9376 46.521C87.546 46.3627 93.1613 46.5213 98.9716 47.0008C98.3276 52.6408 98.2527 61.496 98.7613 72.0824C85.3392 77.8257 77.3581 93.8584 80.6823 108.247C77.8188 108.883 74.8384 109.489 71.7953 110.048ZM127.088 107.994C124.053 114.8 118.943 120.189 112.698 123.166C106.484 126.13 99.889 126.347 94.1294 123.779C82.2065 118.464 77.5918 102.733 83.8429 88.7132C88.6831 77.8561 98.6419 71.1602 108.426 71.1602C111.276 71.1602 114.111 71.7284 116.801 72.9275C128.724 78.2433 133.338 93.9738 127.088 107.994Z" fill="black"/>
<g clip-path="url(#clip0_542_6902)">
<mask id="mask0_542_6902" style="mask-type:luminance" maskUnits="userSpaceOnUse" x="75" y="69" width="59" height="59">
<path d="M75.7156 69.707H133.404V127.395H75.7156V69.707Z" fill="white"/>
</mask>
<g mask="url(#mask0_542_6902)">
<path d="M79.1765 100.469C79.3928 98.3923 79.8536 96.344 80.5402 94.3706C81.9791 90.1805 84.4431 86.243 87.6783 82.9882C87.9228 82.717 88.1956 82.4551 88.4965 82.1839C88.6752 82.0155 88.8539 81.8472 89.042 81.6788C90.3492 80.5004 91.7881 79.4155 93.3681 78.4334C93.5656 78.3212 93.7631 78.1996 93.9794 78.078C98.55 75.3563 103.694 73.916 108.829 73.916C109.234 73.916 109.629 73.9254 110.033 73.9441C116.588 74.2246 122.522 76.8996 126.755 81.4824C131.4 86.4955 133.545 93.2014 132.783 100.375C131.231 115.012 117.933 126.928 103.13 126.928C94.4402 126.928 86.7002 122.738 82.4399 115.714L82.2988 115.489C79.6844 111.065 78.6028 105.884 79.1765 100.469Z" fill="#D45102"/>
<path d="M78.7063 100.423C78.932 98.2903 79.4022 96.2139 80.0982 94.2218C81.5841 89.8727 84.0951 85.9259 87.3303 82.6711C87.5937 82.3905 87.8758 82.1099 88.1674 81.8574C88.346 81.6797 88.5341 81.502 88.7222 81.3336C90.0765 80.1178 91.5436 79.0235 93.086 78.0601C93.3023 77.9292 93.5186 77.7983 93.7349 77.6767C98.2492 74.9924 103.44 73.4492 108.829 73.4492C109.243 73.4492 109.647 73.4586 110.052 73.4773C116.964 73.7766 122.936 76.6572 127.103 81.1653C131.636 86.0568 134.053 92.875 133.253 100.423C131.673 115.322 118.187 127.396 103.13 127.396C93.9136 127.396 86.2394 122.879 82.0355 115.958C82.0261 115.958 82.0261 115.948 82.0261 115.948C79.3646 111.562 78.095 106.203 78.7063 100.423ZM82.2989 115.49L82.4399 115.715C86.7002 122.739 94.4403 126.929 103.13 126.929C117.933 126.929 131.231 115.013 132.783 100.376C133.545 93.2024 131.4 86.4964 126.755 81.4833C122.522 76.9004 116.588 74.2255 110.033 73.9449C109.629 73.9262 109.234 73.9168 108.829 73.9168C103.694 73.9168 98.5502 75.3572 93.9794 78.0789C93.7631 78.2004 93.5656 78.322 93.3681 78.4343C91.7882 79.4163 90.3492 80.5012 89.042 81.6797C88.8539 81.848 88.6752 82.0164 88.4965 82.1847C88.1956 82.456 87.9228 82.7178 87.6783 82.9891C84.4431 86.2438 81.9791 90.1814 80.5402 94.3714C79.8537 96.3448 79.3928 98.3931 79.1765 100.469C78.6028 105.885 79.6844 111.066 82.2989 115.49Z" fill="black"/>
<path d="M82.2988 115.489L82.4399 115.714C86.7002 122.738 94.4402 126.928 103.13 126.928C117.933 126.928 131.231 115.012 132.783 100.375C133.545 93.2014 131.4 86.4955 126.755 81.4824C122.522 76.8996 116.588 74.2246 110.033 73.9441C109.629 73.9254 109.234 73.916 108.829 73.916C103.694 73.916 98.55 75.3563 93.9794 78.078C93.7631 78.1996 93.5656 78.3212 93.3681 78.4334C91.7881 79.4155 90.3492 80.5004 89.042 81.6788C88.8539 81.8472 88.6752 82.0155 88.4965 82.1839C88.1956 82.4551 87.9228 82.717 87.6783 82.9882C84.4431 86.243 81.9791 90.1805 80.5402 94.3706C79.8536 96.344 79.3928 98.3923 79.1765 100.469C78.6028 105.884 79.6844 111.065 82.2988 115.489Z" fill="#D45102"/>
<path d="M77.5965 107.744C77.7188 108.09 77.841 108.427 77.9821 108.745L78.0197 108.838C78.236 109.353 78.4806 109.886 78.7439 110.409C79.0072 110.915 79.2894 111.41 79.5715 111.906C79.7596 112.233 79.9665 112.542 80.1828 112.851C80.5684 113.449 81.001 114.029 81.5277 114.656C81.791 114.992 82.0637 115.31 82.3553 115.61L82.6092 115.881C82.7597 116.04 82.9102 116.19 83.0606 116.349C87.5184 120.754 93.6408 123.186 100.299 123.186H100.459C105.773 123.158 111.077 121.586 115.789 118.649C116.635 118.116 117.359 117.62 118.018 117.116C118.554 116.704 119.09 116.274 119.607 115.843C120.171 115.367 120.66 114.918 121.102 114.478C121.413 114.16 121.733 113.833 122.052 113.505L122.381 113.15L122.475 113.038C125.25 109.979 127.31 106.519 128.607 102.731L128.842 101.983C128.984 101.524 129.115 101.085 129.228 100.655C129.341 100.206 129.444 99.766 129.538 99.3171C129.736 98.3539 129.877 97.4746 129.962 96.6049C130.065 95.6603 130.112 94.6782 130.112 93.6867C130.112 93.2846 130.103 92.8919 130.074 92.499C130.074 92.3867 130.074 92.2932 130.056 92.2091C130.037 91.8722 130.009 91.5636 129.971 91.255C129.943 90.8435 129.886 90.4694 129.83 90.0859C129.783 89.7212 129.717 89.3658 129.642 89.0104C129.614 88.8514 129.576 88.7017 129.538 88.5521C128.993 86.0081 128.043 83.6045 126.698 81.4065C122.917 75.1589 116.409 71.1278 108.848 70.3328C107.974 70.2299 107.024 70.1738 106.008 70.1738C98.7663 70.1738 91.6847 72.9797 86.0701 78.0769C82.7785 81.0605 80.1546 84.7174 78.4806 88.655C77.3614 91.255 76.6467 93.9766 76.3551 96.7265C75.9507 100.561 76.3645 104.274 77.5965 107.744Z" fill="#FFDF0E"/>
<path d="M77.5965 107.744C77.7188 108.09 77.841 108.427 77.9821 108.745L78.0197 108.838C78.236 109.353 78.4806 109.886 78.7439 110.409C79.0072 110.915 79.2894 111.41 79.5715 111.906C79.7596 112.233 79.9665 112.542 80.1828 112.851C80.5684 113.449 81.001 114.029 81.5277 114.656C81.791 114.992 82.0637 115.31 82.3553 115.61L82.6092 115.881C82.7597 116.04 82.9102 116.19 83.0606 116.349C87.5184 120.754 93.6408 123.186 100.299 123.186H100.459C105.773 123.158 111.077 121.586 115.789 118.649C116.635 118.116 117.359 117.62 118.018 117.116C118.554 116.704 119.09 116.274 119.607 115.843C120.171 115.367 120.66 114.918 121.102 114.478C121.413 114.16 121.733 113.833 122.052 113.505L122.381 113.15L122.475 113.038C125.25 109.979 127.31 106.519 128.607 102.731L128.842 101.983C128.984 101.524 129.115 101.085 129.228 100.655C129.341 100.206 129.444 99.766 129.538 99.3171C129.736 98.3539 129.877 97.4746 129.962 96.6049C130.065 95.6603 130.112 94.6782 130.112 93.6867C130.112 93.2846 130.103 92.8919 130.074 92.499C130.074 92.3867 130.074 92.2932 130.056 92.2091C130.037 91.8722 130.009 91.5636 129.971 91.255C129.943 90.8435 129.886 90.4694 129.83 90.0859C129.783 89.7212 129.717 89.3658 129.642 89.0104C129.614 88.8514 129.576 88.7017 129.538 88.5521C128.993 86.0081 128.043 83.6045 126.698 81.4065C122.917 75.1589 116.409 71.1278 108.848 70.3328C107.974 70.2299 107.024 70.1738 106.008 70.1738C98.7663 70.1738 91.6847 72.9797 86.0701 78.0769C82.7785 81.0605 80.1546 84.7174 78.4806 88.655C77.3614 91.255 76.6467 93.9766 76.3551 96.7265C75.9507 100.561 76.3645 104.274 77.5965 107.744Z" fill="#FFDF0E"/>
<path d="M85.6939 112.308C89.3147 116.311 94.506 118.509 100.299 118.509C112.779 118.509 123.98 108.473 125.287 96.1365C125.889 90.4034 124.234 85.0442 120.613 81.0412C116.992 77.0475 111.801 74.8496 106.008 74.8496C93.5373 74.8496 82.327 84.8852 81.0292 97.2122C80.4179 102.955 82.0825 108.314 85.6939 112.308Z" fill="#FFDF0E"/>
<path d="M77.5776 108.999C77.5776 108.999 77.5776 109.009 77.587 109.018C78.0291 110.103 78.5651 111.151 79.167 112.142C79.3645 112.479 79.5714 112.806 79.7971 113.124C80.2109 113.76 80.6718 114.368 81.1608 114.957C81.4335 115.303 81.7251 115.631 82.026 115.949C82.026 115.949 82.026 115.958 82.0354 115.958C82.2706 116.201 82.4963 116.444 82.7314 116.678C87.1139 121.018 93.2552 123.655 100.299 123.655H100.459C106.055 123.627 111.425 121.925 116.043 119.044C116.814 118.558 117.575 118.034 118.3 117.492C119.4 116.659 120.444 115.771 121.432 114.808C121.751 114.49 122.071 114.162 122.391 113.826C122.541 113.667 122.682 113.508 122.823 113.349C125.748 110.113 127.996 106.278 129.303 102.097C129.435 101.658 129.567 101.209 129.679 100.769C129.802 100.32 129.905 99.8712 129.999 99.413C130.187 98.5058 130.338 97.5892 130.432 96.6538C130.535 95.6531 130.582 94.6617 130.582 93.6891C130.582 93.2774 130.573 92.8752 130.545 92.4731C130.545 92.3703 130.545 92.258 130.526 92.1644C130.507 91.8373 130.479 91.5192 130.441 91.2013C130.413 90.7991 130.356 90.4062 130.291 90.0134C130.244 89.6486 130.178 89.2839 130.103 88.9191C130.084 88.7508 130.046 88.5824 130.009 88.4141C130.009 88.4234 130.009 88.4328 130.009 88.4421C128.927 90.9394 127.516 93.2774 125.823 95.3913C125.654 95.6064 125.485 95.8215 125.306 96.0273C123.5 98.1784 121.413 100.096 119.099 101.695C116.184 103.734 112.911 105.277 109.45 106.194C107.061 106.839 104.578 107.176 102.049 107.176C99.7725 107.176 97.6002 106.905 95.5499 106.39H95.5405C95.3148 106.325 95.0985 106.269 94.8822 106.203C89.0419 104.566 84.2549 100.947 81.1796 96.1021C81.0574 95.9057 80.9351 95.6999 80.8128 95.4941C80.5683 95.0826 80.3332 94.6525 80.1075 94.2221C79.1952 92.4358 78.4993 90.509 78.0573 88.4795C78.0573 88.4608 78.0573 88.4328 78.0385 88.4141C76.9287 91.0142 76.1764 93.7826 75.8754 96.6538C75.4052 101.106 76.0447 105.296 77.587 108.999H77.5776Z" fill="#FEBC00"/>
<path fill-rule="evenodd" clip-rule="evenodd" d="M85.7504 77.7317L87.3303 82.67V82.6981L87.509 83.2125L93.9606 103.358L94.7224 105.734L94.8728 106.202L98.7945 118.454L98.9544 118.931L100.459 123.654C106.055 123.626 111.425 121.924 116.043 119.043C116.814 118.557 117.576 118.042 118.3 117.49C118.845 117.07 119.391 116.639 119.908 116.2C120.435 115.751 120.942 115.293 121.432 114.806C121.751 114.488 122.071 114.161 122.391 113.824C122.541 113.665 122.673 113.516 122.823 113.357L121.121 108.054L120.952 107.502L119.09 101.694L110.654 75.3561L110.485 74.8324L110.052 73.4762L108.895 69.866C107.955 69.7538 106.986 69.707 106.008 69.707C98.4091 69.707 91.2145 72.7748 85.7504 77.7317Z" fill="white"/>
<path d="M75.8848 96.6805C76.1858 93.8186 76.9287 91.0689 78.0479 88.4781C79.7877 84.3816 82.4587 80.7153 85.7503 77.7317C91.2144 72.7748 98.4088 69.707 106.008 69.707C106.986 69.707 107.955 69.7538 108.895 69.866C116.823 70.6984 123.35 74.9727 127.102 81.1642C128.447 83.3715 129.435 85.8126 129.999 88.4407C130.037 88.5997 130.074 88.7587 130.103 88.9177C130.178 89.2824 130.244 89.6472 130.291 90.012C130.356 90.4047 130.413 90.7976 130.441 91.1998C130.479 91.5179 130.507 91.8358 130.526 92.1631C130.535 92.2567 130.545 92.369 130.545 92.4718C130.573 92.8739 130.582 93.2761 130.582 93.6876C130.582 94.6602 130.535 95.6516 130.432 96.6525C130.338 97.5877 130.187 98.5043 129.999 99.4114C129.905 99.8699 129.802 100.319 129.679 100.768C129.567 101.207 129.435 101.656 129.303 102.096C129.219 102.358 129.134 102.62 129.049 102.881C127.723 106.763 125.579 110.317 122.823 113.347C122.673 113.516 122.541 113.665 122.391 113.824C122.071 114.161 121.751 114.488 121.432 114.806C120.942 115.293 120.435 115.751 119.908 116.2C119.391 116.639 118.845 117.07 118.3 117.49C117.575 118.042 116.814 118.557 116.043 119.043C111.425 121.924 106.055 123.626 100.459 123.654H100.299C93.2552 123.654 87.1139 121.016 82.7314 116.677C82.4963 116.443 82.2706 116.2 82.0354 115.957C82.026 115.957 82.026 115.947 82.026 115.947C81.7251 115.629 81.4335 115.302 81.1608 114.956C80.6718 114.367 80.2109 113.759 79.7971 113.123C79.5714 112.805 79.3645 112.477 79.167 112.141C78.8755 111.645 78.5934 111.14 78.3206 110.616C78.0573 110.092 77.8127 109.559 77.587 109.017C77.5776 109.007 77.5776 108.998 77.5776 108.998C77.4272 108.643 77.2861 108.278 77.1544 107.904C75.9412 104.481 75.4616 100.683 75.8848 96.6805ZM77.5964 107.745C77.7187 108.091 77.841 108.428 77.982 108.746L78.0197 108.839C78.236 109.354 78.4805 109.887 78.7438 110.411C79.0071 110.915 79.2893 111.411 79.5714 111.907C79.7595 112.234 79.9664 112.543 80.1827 112.852C80.5683 113.45 81.0009 114.03 81.5276 114.657C81.7909 114.993 82.0637 115.311 82.3552 115.611L82.6091 115.882C82.7596 116.041 82.9101 116.19 83.0606 116.349C87.5184 120.755 93.6408 123.186 100.299 123.186H100.459C105.773 123.158 111.077 121.587 115.789 118.65C116.635 118.117 117.359 117.622 118.018 117.116C118.554 116.705 119.09 116.275 119.607 115.844C120.171 115.367 120.66 114.918 121.102 114.479C121.413 114.161 121.733 113.833 122.052 113.506L122.381 113.151L122.475 113.039C125.25 109.98 127.309 106.52 128.607 102.732L128.842 101.984C128.984 101.525 129.115 101.086 129.228 100.655C129.341 100.207 129.444 99.7668 129.538 99.3179C129.736 98.3547 129.877 97.4756 129.962 96.6057C130.065 95.6611 130.112 94.679 130.112 93.6876C130.112 93.2854 130.103 92.8927 130.074 92.4998C130.074 92.3875 130.074 92.294 130.055 92.2099C130.037 91.8733 130.009 91.5646 129.971 91.2558C129.943 90.8444 129.886 90.4702 129.83 90.0868C129.783 89.722 129.717 89.3666 129.642 89.0112C129.614 88.8522 129.576 88.7026 129.538 88.5529C128.993 86.009 128.043 83.6053 126.698 81.4074C122.917 75.1597 116.409 71.1287 108.848 70.3337C107.974 70.2308 107.024 70.1747 106.008 70.1747C98.7663 70.1747 91.6846 72.9805 86.07 78.0778C82.7784 81.0613 80.1545 84.7183 78.4805 88.6558C77.3613 91.2558 76.6466 93.9776 76.355 96.7273C75.9506 100.562 76.3644 104.275 77.5964 107.745Z" fill="black"/>
<path d="M115.984 101.55L112.071 99.4027L111.642 99.1623L111.421 99.6051C110.566 101.324 109.206 102.359 107.276 102.734C106.066 102.968 104.918 102.924 103.832 102.611C102.732 102.272 101.779 101.704 100.971 100.898C100.173 100.091 99.5966 99.0976 99.2359 97.9291C98.8824 96.7496 98.829 95.6833 99.0589 94.6956C99.3073 93.7042 99.8089 92.8829 100.581 92.2186L100.59 92.2168C101.347 91.527 102.32 91.0619 103.53 90.8273C105.469 90.4512 107.312 90.8655 109.092 92.0923L109.49 92.3674L109.757 91.9633L111.983 88.6257L112.235 88.2434L111.868 87.9812C110.479 86.993 108.931 86.3215 107.218 85.9868C105.531 85.6375 103.761 85.6475 101.914 86.0056C99.717 86.4318 97.8523 87.2889 96.3478 88.5715C94.8509 89.8431 93.8333 91.4124 93.3134 93.2758C92.9068 94.736 92.8594 96.2695 93.1675 97.858C93.2494 98.2803 93.3608 98.7066 93.4925 99.1384C94.1218 101.198 95.1922 102.962 96.6998 104.414L96.7091 104.412C98.2223 105.843 100.008 106.849 102.047 107.435C104.103 108.008 106.223 108.073 108.402 107.65C110.249 107.292 111.839 106.65 113.171 105.715C114.513 104.779 115.517 103.584 116.179 102.16L116.361 101.762L115.984 101.55ZM115.758 101.965C115.128 103.307 114.17 104.445 112.905 105.329C111.641 106.222 110.095 106.846 108.313 107.191C106.208 107.6 104.145 107.533 102.172 106.992C100.214 106.428 98.489 105.438 97.0267 104.074C95.5887 102.685 94.5493 100.982 93.9452 99.0029C93.3428 97.0332 93.2821 95.1396 93.7588 93.3991C94.2596 91.6346 95.2325 90.1311 96.6479 88.9325C98.0854 87.701 99.8798 86.8766 102.003 86.4647C103.785 86.1191 105.508 86.1089 107.124 86.4432C108.76 86.7739 110.264 87.4158 111.598 88.367L109.362 91.7064C107.493 90.4205 105.499 89.9691 103.441 90.3684C102.166 90.6155 101.105 91.1168 100.273 91.8686C99.4366 92.5931 98.8753 93.5022 98.606 94.5834C98.3459 95.6626 98.4098 96.8318 98.7923 98.0628C99.1655 99.2956 99.7834 100.357 100.631 101.222C101.497 102.082 102.528 102.702 103.689 103.058C104.865 103.392 106.091 103.44 107.365 103.193C109.424 102.794 110.927 101.654 111.844 99.8089L115.757 101.956L115.758 101.965Z" fill="black"/>
<path d="M115.757 101.955C115.128 103.306 114.17 104.444 112.905 105.328C111.641 106.221 110.095 106.845 108.313 107.19C106.208 107.599 104.145 107.532 102.172 106.991C100.214 106.427 98.4888 105.437 97.0267 104.073C95.5887 102.685 94.5493 100.981 93.9452 99.002C93.3428 97.0323 93.2821 95.1387 93.7587 93.3979C94.2596 91.6336 95.2325 90.1302 96.6477 88.9315C98.0855 87.7 99.8799 86.8756 102.003 86.4637C103.785 86.1181 105.508 86.1079 107.124 86.4422C108.76 86.7729 110.264 87.4148 111.598 88.366L109.362 91.7055C107.494 90.4196 105.5 89.9681 103.441 90.3674C102.166 90.6146 101.105 91.1158 100.273 91.8676C99.4367 92.5921 98.8753 93.5012 98.6061 94.5824C98.3459 95.6617 98.4098 96.8306 98.7924 98.0618C99.1656 99.2946 99.7832 100.356 100.631 101.221C101.498 102.081 102.528 102.701 103.689 103.057C104.865 103.391 106.091 103.439 107.365 103.192C109.424 102.793 110.927 101.653 111.843 99.808L115.757 101.955Z" fill="#D45102"/>
<path d="M80.5591 97.1662C81.8851 84.6054 93.3023 74.3828 106.008 74.3828C111.942 74.3828 117.256 76.6368 120.961 80.7334C124.667 84.8299 126.369 90.3199 125.748 96.1936C124.422 108.754 113.005 118.977 100.299 118.977C94.3651 118.977 89.0608 116.723 85.346 112.626C81.6406 108.53 79.9384 103.04 80.5591 97.1662ZM85.694 112.308C89.3148 116.311 94.5061 118.509 100.299 118.509C112.779 118.509 123.98 108.474 125.288 96.1373C125.889 90.4042 124.234 85.045 120.613 81.042C116.993 77.0484 111.801 74.8505 106.008 74.8505C93.5375 74.8505 82.3271 84.886 81.0293 97.213C80.418 102.956 82.0826 108.315 85.694 112.308Z" fill="black"/>
</g>
</g>
<defs>
<clipPath id="clip0_542_6902">
<rect width="57.6881" height="57.6881" fill="white" transform="translate(75.7156 69.707)"/>
</clipPath>
</defs>
</svg>
