<svg width="36" height="36" viewBox="0 0 36 36" fill="none" xmlns="http://www.w3.org/2000/svg">
<g clip-path="url(#clip0_2842_7429)">
<path fill-rule="evenodd" clip-rule="evenodd" d="M13.6254 10.2653C16.8873 10.3141 20.1492 9.80161 23.5046 8.69123C25.5849 8.00181 26.7583 9.21183 26.5163 10.9526L25.2697 19.8638C24.9524 22.1394 24.1879 24.5919 23.0409 26.8004L23.0775 26.8024C29.4813 26.8024 33.8352 19.091 34.7219 12.7482L35.9685 3.83703C36.2125 2.09629 35.0371 0.886268 32.9567 1.57569C29.6013 2.686 26.3394 3.19851 23.0775 3.14972C19.8177 3.19851 16.5538 2.68607 13.1984 1.57569C11.118 0.886268 9.94462 2.09629 10.1866 3.83703L11.0753 10.1879C11.9273 10.2531 12.7753 10.2775 13.6254 10.2653Z" fill="#FEDC33"/>
<path d="M13.6252 34.6212C10.4653 34.6212 7.54074 32.9146 5.1676 29.686C3.1871 26.9916 1.77176 23.447 1.28449 19.9612L0.0379146 11.05C-0.116212 9.9417 0.204064 8.96597 0.916617 8.37252C1.66967 7.74533 2.75312 7.62144 3.96715 8.02384C7.24099 9.10708 10.3972 9.61081 13.6147 9.56215C13.6217 9.56208 13.6287 9.56208 13.6357 9.56215C16.8557 9.61046 20.0096 9.10708 23.2835 8.0237C24.4975 7.62144 25.5807 7.74533 26.3337 8.37245C27.0463 8.9659 27.3666 9.94156 27.2125 11.0494L25.9659 19.9612C25.4786 23.4469 24.0632 26.9915 22.0827 29.6859C19.7097 32.9146 16.7851 34.6212 13.6252 34.6212ZM2.63493 9.19751C2.30003 9.19751 2.02088 9.28308 1.81662 9.45317C1.48573 9.72872 1.34503 10.24 1.43068 10.8558L2.67711 19.7665C3.12649 22.9807 4.481 26.3775 6.30056 28.853C7.76321 30.8429 10.2212 33.2149 13.6251 33.2149C17.0291 33.2149 19.4871 30.8429 20.9497 28.853C22.7693 26.3775 24.1239 22.9807 24.5732 19.7665L25.8197 10.8553C25.9053 10.24 25.7646 9.72872 25.4337 9.45317C25.068 9.1485 24.4615 9.11496 23.7255 9.35881C20.3031 10.4913 17.0004 11.0178 13.6252 10.9686C10.2522 11.018 6.94723 10.4913 3.52509 9.35888C3.19996 9.25109 2.89994 9.19751 2.63493 9.19751Z" fill="#171717"/>
<path d="M13.6249 30.2793C10.1222 30.2793 7.27246 27.4296 7.27246 23.9269C7.27246 23.1834 7.39952 22.4562 7.65011 21.7654C7.75101 21.4872 8.01518 21.302 8.31106 21.302H8.31155C8.60764 21.3022 8.87187 21.4879 8.97235 21.7663C9.67717 23.7182 11.5468 25.0296 13.6248 25.0296C15.7029 25.0296 17.5725 23.7182 18.2773 21.7663C18.3778 21.4879 18.6421 21.3022 18.9381 21.302H18.9386C19.2345 21.302 19.4987 21.4872 19.5995 21.7654C19.8501 22.4562 19.9772 23.1834 19.9772 23.9269C19.9773 27.4296 17.1276 30.2793 13.6249 30.2793ZM8.68076 24.0715C8.75768 26.7321 10.946 28.8731 13.6248 28.8731C16.3037 28.8731 18.492 26.7321 18.5689 24.0715C17.3838 25.5355 15.5757 26.4358 13.6248 26.4358C11.6739 26.4358 9.86596 25.5355 8.68076 24.0715Z" fill="#171717"/>
<path d="M11.7378 18.0106H5.00879C4.62052 18.0106 4.30566 17.6958 4.30566 17.3075C4.30566 15.064 6.13084 13.2388 8.3743 13.2388C10.6167 13.2388 12.441 15.0639 12.441 17.3075C12.441 17.6958 12.1261 18.0106 11.7378 18.0106ZM5.80606 16.6043H10.9406C10.6316 15.4763 9.59816 14.645 8.3743 14.645C7.14952 14.645 6.11523 15.4763 5.80606 16.6043Z" fill="#171717"/>
<path d="M22.2417 18.0106H15.5127C15.1244 18.0106 14.8096 17.6958 14.8096 17.3075C14.8096 15.064 16.6347 13.2388 18.8782 13.2388C21.1206 13.2388 22.9449 15.0639 22.9449 17.3075C22.9449 17.6958 22.63 18.0106 22.2417 18.0106ZM16.31 16.6043H21.4444C21.1354 15.4763 20.102 14.645 18.8781 14.645C17.6534 14.645 16.6191 15.4763 16.31 16.6043Z" fill="#171717"/>
</g>
<defs>
<clipPath id="clip0_2842_7429">
<rect width="36" height="36" fill="white"/>
</clipPath>
</defs>
</svg>
