<svg width="36" height="36" viewBox="0 0 36 36" fill="none" xmlns="http://www.w3.org/2000/svg">
<g clip-path="url(#clip0_364_5387)">
<path d="M8.46628 2.10938C8.46628 0.946266 7.52002 0 6.35691 0H4.9392C4.55093 0 4.23607 0.314789 4.23607 0.703125V1.41202H4.23319C2.67766 1.41202 1.41211 2.67757 1.41211 4.23309V12.705C1.41211 13.0933 1.72697 13.4082 2.11523 13.4082C2.5035 13.4082 2.81836 13.0933 2.81836 12.705V4.23309C2.81836 3.45291 3.453 2.81827 4.23319 2.81827H4.23607V3.52709C4.23607 3.91535 4.55093 4.23021 4.9392 4.23021H6.35691C7.52002 4.23021 8.46628 3.28395 8.46628 2.12084V2.10938ZM7.06003 2.12084C7.06003 2.50854 6.74461 2.82396 6.35691 2.82396H5.64232V1.40625H6.35691C6.74461 1.40625 7.06003 1.72167 7.06003 2.10938V2.12084Z" fill="#171717"/>
<path d="M15.5234 4.23021H16.9411C17.3294 4.23021 17.6443 3.91535 17.6443 3.52709V2.81827H17.6472C18.4273 2.81827 19.062 3.45291 19.062 4.23309V12.705C19.062 13.0933 19.3768 13.4082 19.7651 13.4082C20.1534 13.4082 20.4682 13.0933 20.4682 12.705V4.23309C20.4682 2.67757 19.2027 1.41202 17.6472 1.41202H17.6443V0.703125C17.6443 0.314789 17.3294 0 16.9411 0H15.5234C14.3603 0 13.4141 0.946266 13.4141 2.10938V2.12084C13.4141 3.28395 14.3603 4.23021 15.5234 4.23021ZM14.8203 2.10938C14.8203 1.72167 15.1357 1.40625 15.5234 1.40625H16.238V2.82396H15.5234C15.1357 2.82396 14.8203 2.50854 14.8203 2.12084V2.10938Z" fill="#171717"/>
<path d="M31.7642 24.0546V16.235C31.7642 13.9009 29.8652 12.002 27.5311 12.002C25.197 12.002 23.298 13.9009 23.298 16.235V28.7664C23.298 31.9796 20.6838 34.5938 17.4707 34.5938C14.2575 34.5938 11.6433 31.9796 11.6433 28.7664V28.2341H13.0582C13.4464 28.2341 13.7613 27.9192 13.7613 27.531V24.4874C13.7613 24.0991 13.4464 23.7843 13.0582 23.7843C12.6699 23.7843 12.355 24.0991 12.355 24.4874V26.8278H9.52539V24.4874C9.52539 24.0991 9.2106 23.7843 8.82227 23.7843C8.434 23.7843 8.11914 24.0991 8.11914 24.4874V27.531C8.11914 27.9192 8.434 28.2341 8.82227 28.2341H10.2371V28.7664C10.2371 32.755 13.482 36 17.4707 36C21.4593 36 24.7042 32.755 24.7042 28.7664V16.235C24.7042 14.6763 25.9723 13.4082 27.5311 13.4082C29.0898 13.4082 30.3579 14.6763 30.3579 16.235V24.0547C27.9665 24.3972 26.122 26.4583 26.122 28.943C26.122 31.6664 28.3376 33.8821 31.0611 33.8821C33.7845 33.8821 36.0002 31.6663 36.0002 28.9429C36.0002 26.4582 34.1556 24.3971 31.7642 24.0546ZM31.0611 32.4758C29.113 32.4758 27.5282 30.8909 27.5282 28.9429C27.5282 26.9949 29.113 25.4101 31.0611 25.4101C33.0091 25.4101 34.5939 26.9949 34.5939 28.9429C34.5939 30.8909 33.0091 32.4758 31.0611 32.4758Z" fill="#171717"/>
<path d="M31.6146 30.2415C32.3351 29.9428 32.6772 29.1165 32.3785 28.396C32.0798 27.6754 31.2535 27.3334 30.533 27.632C29.8124 27.9307 29.4704 28.757 29.7691 29.4776C30.0678 30.1981 30.894 30.5401 31.6146 30.2415Z" fill="#FEDC33"/>
<path d="M10.9401 25.4101C4.90767 25.4101 0 20.5025 0 14.4701V12.002H4.23021V14.4701C4.23021 18.1698 7.24029 21.1799 10.9401 21.1799C14.6398 21.1799 17.6499 18.1698 17.6499 14.4701V12.002H21.8801V14.4701C21.8801 20.5025 16.9725 25.4101 10.9401 25.4101Z" fill="#FEDC33"/>
</g>
<defs>
<clipPath id="clip0_364_5387">
<rect width="36" height="36" fill="white"/>
</clipPath>
</defs>
</svg>
