<svg width="36" height="36" viewBox="0 0 36 36" fill="none" xmlns="http://www.w3.org/2000/svg">
<g clip-path="url(#clip0_2842_7417)">
<path fill-rule="evenodd" clip-rule="evenodd" d="M11.2242 23.6314L10.6661 16.289C10.4727 13.7458 8.65705 11.6331 6.14183 11.4817C5.00776 13.104 4.4298 15.2525 4.48956 17.5067L11.2242 23.6314Z" fill="#FEDC33"/>
<path fill-rule="evenodd" clip-rule="evenodd" d="M24.3185 20.6439C22.9074 17.9831 22.732 15.3443 22.3035 14.3198C20.9043 14.4314 19.3597 14.7842 17.8788 14.547C16.3442 20.1196 20.8365 26.8523 24.3185 28.5383C25.3709 27.0097 27.1327 26.0072 29.1298 26.0072C29.7257 26.0072 30.3017 26.0948 30.8438 26.2603C29.0639 25.5747 27.6927 24.6758 26.6264 23.6773C25.61 22.7266 24.8705 21.6842 24.3185 20.6439Z" fill="#FEDC33"/>
<path d="M33.8331 27.2771C33.2415 26.6744 32.5316 26.1906 31.7572 25.8542C31.5406 25.76 31.3167 25.6892 31.0969 25.6044C25.0714 23.2778 24.0167 18.5089 23.3865 15.6596C23.2741 15.1512 23.1794 14.7229 23.069 14.3729L30.0437 1.02888C30.1577 0.810914 30.1494 0.549281 30.022 0.338906C29.8945 0.128531 29.6665 0 29.4205 0H17.0017C16.74 0 16.4998 0.145406 16.3786 0.377438L12.4296 7.93237C10.2605 7.73255 8.31884 8.33653 6.78934 9.69427C4.95727 11.3206 3.85794 13.9759 3.78622 16.8887C2.81738 17.1238 1.97434 17.8275 1.613 18.7586C1.18944 19.85 1.50268 20.9842 2.47236 21.8704C2.47658 21.8743 2.4808 21.878 2.48509 21.8818L7.23505 26.0156H1.0332C0.644867 26.0156 0.330078 26.3304 0.330078 26.7188C0.330078 27.1071 0.644867 27.4219 1.0332 27.4219H8.85083L14.3561 32.213C15.4403 33.1979 16.6992 33.9917 18.1248 34.5938H11.1102C10.7218 34.5938 10.4071 34.9086 10.4071 35.2969C10.4071 35.6853 10.7218 36.0001 11.1102 36.0001H25.9427H31.6369C32.8636 36.0001 33.9035 35.5443 34.644 34.682C35.2849 33.9357 35.6487 32.932 35.6684 31.856C35.7001 30.1413 35.0484 28.5152 33.8331 27.2771ZM34.226 31.1397H25.8569C25.2288 31.1397 24.6293 31.1132 24.0565 31.0612C24.4295 28.5757 26.546 26.7103 29.1295 26.7103C30.5128 26.7103 31.8614 27.276 32.8295 28.2622C33.6128 29.0602 34.0953 30.0632 34.226 31.1397ZM17.4275 1.40625H28.2597L21.8571 13.6555C21.5799 13.6843 21.3006 13.7185 21.0275 13.7523C18.1217 14.1121 15.3744 14.4521 13.585 8.75728L17.4275 1.40625ZM7.7228 10.7459C8.94948 9.657 10.5216 9.17198 12.2923 9.33159C13.2209 12.1999 14.5321 13.9913 16.2926 14.8009C17.9283 15.553 19.6666 15.3378 21.2003 15.1479C21.4079 15.1222 21.6097 15.0972 21.807 15.075C21.873 15.3285 21.9404 15.6332 22.0135 15.9633C22.077 16.2506 22.1474 16.5684 22.2294 16.9092H21.2669C20.8786 16.9092 20.5638 17.224 20.5638 17.6124C20.5638 18.0007 20.8786 18.3155 21.2669 18.3155H22.6118C22.7728 18.8363 22.9668 19.3834 23.2055 19.9407H21.9963C21.608 19.9407 21.2932 20.2555 21.2932 20.6438C21.2932 21.0322 21.608 21.3469 21.9963 21.3469H23.9035C23.9383 21.4078 23.9737 21.4687 24.0099 21.5294C24.3128 22.0388 24.6484 22.5204 25.016 22.9741H24.0493C23.661 22.9741 23.3462 23.2889 23.3462 23.6772C23.3462 24.0656 23.661 24.3804 24.0493 24.3804H26.3605C26.7923 24.7654 27.2544 25.1227 27.7467 25.4519C26.5557 25.7077 25.457 26.2912 24.5657 27.1599C23.531 28.1684 22.8724 29.4656 22.6637 30.8733C20.6237 30.5004 18.9798 29.7335 17.686 28.5562L5.18811 17.1918C5.18762 14.5581 6.12432 12.1648 7.7228 10.7459ZM31.6369 34.5938H25.9427C21.3781 34.5938 17.7961 33.4409 15.2964 31.1673C15.2926 31.1638 15.2888 31.1604 15.2848 31.157L3.41497 20.8268C2.88629 20.3408 2.71641 19.8018 2.92384 19.2674C3.1283 18.7405 3.66816 18.3268 4.24051 18.231L16.7397 29.5966C18.921 31.5813 21.9033 32.546 25.8569 32.546H34.1744C33.9196 33.649 33.1041 34.5938 31.6369 34.5938Z" fill="#171717"/>
<path d="M3.14957 30.3047H1.77637C1.38803 30.3047 1.07324 30.6195 1.07324 31.0078C1.07324 31.3961 1.38803 31.7109 1.77637 31.7109H3.14957C3.53791 31.7109 3.8527 31.3961 3.8527 31.0078C3.8527 30.6195 3.53791 30.3047 3.14957 30.3047Z" fill="#171717"/>
<path d="M9.17273 30.3047H5.96191C5.57358 30.3047 5.25879 30.6195 5.25879 31.0078C5.25879 31.3961 5.57358 31.7109 5.96191 31.7109H9.17281C9.56114 31.7109 9.87593 31.3961 9.87593 31.0078C9.87593 30.6195 9.56107 30.3047 9.17273 30.3047Z" fill="#171717"/>
<path d="M6.89101 34.5938H4.68066C4.29233 34.5938 3.97754 34.9085 3.97754 35.2969C3.97754 35.6852 4.29233 36 4.68066 36H6.89101C7.27934 36 7.59413 35.6852 7.59413 35.2969C7.59413 34.9085 7.27934 34.5938 6.89101 34.5938Z" fill="#171717"/>
</g>
<defs>
<clipPath id="clip0_2842_7417">
<rect width="36" height="36" fill="white"/>
</clipPath>
</defs>
</svg>
