<svg width="142" height="40" viewBox="0 0 142 40" fill="none" xmlns="http://www.w3.org/2000/svg">
<path d="M20.4324 0.000570337C9.14418 -0.083072 0 9.04408 0 20.1783V38.1476C0 39.1703 0.840621 39.9994 1.87752 39.9994H20.0959C31.3845 39.9994 40.6381 30.9802 40.5533 19.8464C40.4701 8.9225 31.5077 0.0826285 20.4324 0.000570337Z" fill="#FEDC33"/>
<path d="M37.2001 8.98182C33.7781 22.5834 21.4715 32.6531 6.81337 32.6531C4.47344 32.6531 2.19355 32.396 0 31.9094V38.1481C0 39.1708 0.840542 40 1.87752 40H20.0959C31.3845 40 40.6381 30.9808 40.5533 19.8469C40.5227 15.8332 39.2923 12.1018 37.2001 8.98182Z" fill="#F8D422"/>
<path d="M20.9466 31.7159C14.3357 31.7159 9.23719 26.9503 9.23719 19.9521V19.8662C9.23719 13.3832 13.8605 8.05947 20.3849 8.05947C27.6438 8.05947 31.3165 13.7267 31.3165 20.2526C31.3165 20.7249 31.2733 21.1972 31.2301 21.7124H14.4654C15.0271 25.4047 17.6628 27.4655 21.033 27.4655C23.5823 27.4655 25.397 26.5209 27.2117 24.7606L30.2795 27.4655C28.1191 30.0415 25.1378 31.7159 20.9466 31.7159ZM14.4222 18.2777H26.1315C25.7859 14.9289 23.7983 12.3099 20.3417 12.3099C17.1443 12.3099 14.8974 14.7571 14.4222 18.2777Z" fill="#171717"/>
<path fill-rule="evenodd" clip-rule="evenodd" d="M16.7859 31.032C18.0708 31.4785 19.4708 31.7159 20.9462 31.7159C25.1374 31.7159 28.1187 30.0415 30.2791 27.4655L27.4062 24.9324C24.335 27.614 20.7362 29.706 16.7859 31.032ZM31.2952 20.8711C31.0678 21.1556 30.8355 21.4361 30.5984 21.7124H31.2297C31.2331 21.6725 31.2364 21.6329 31.2397 21.5935C31.2607 21.3449 31.2809 21.1058 31.2952 20.8711Z" fill="black"/>
<path d="M68.1779 22.4849L71.4049 27.0772H75.0331L70.01 20.0963L68.3095 22.2947L68.1779 22.4849Z" fill="#171717"/>
<path d="M69.9955 19.1854L74.8132 12.5643H71.2675L68.2438 16.8767L68.4011 17.1026L69.9955 19.1854Z" fill="#171717"/>
<path d="M60.8909 27.0772L66.2232 19.7108L61.0833 12.5643H64.7115L68.0648 17.347L69.824 19.6283L67.9824 21.9922L64.4366 27.0772H60.8909Z" fill="#171717"/>
<path d="M54.7617 27.3379C50.5563 27.3379 47.3129 24.2869 47.3129 19.8066V19.7516C47.3129 15.6012 50.254 12.1929 54.4044 12.1929C59.0222 12.1929 61.3585 15.8211 61.3585 19.999C61.3585 20.3014 61.331 20.6037 61.3035 20.9336H50.6388C50.9961 23.2974 52.6728 24.6168 54.8167 24.6168C56.4384 24.6168 57.5929 24.0121 58.7473 22.8851L60.6988 24.6168C59.3245 26.2659 57.4279 27.3379 54.7617 27.3379ZM50.6113 18.7346H58.0601C57.8402 16.5907 56.5759 14.914 54.3769 14.914C52.3429 14.914 50.9136 16.4807 50.6113 18.7346Z" fill="#171717"/>
<path d="M76.5124 31.4059V12.4952H79.8382V14.914C80.9102 13.4023 82.422 12.1929 84.7583 12.1929C88.1941 12.1929 91.52 14.914 91.52 19.7242V19.7791C91.52 24.5893 88.2216 27.3104 84.7583 27.3104C82.367 27.3104 80.8552 26.101 79.8382 24.7542V31.4059H76.5124ZM83.9887 24.4243C86.2701 24.4243 88.1392 22.6377 88.1392 19.7791V19.7242C88.1392 16.9205 86.2426 15.0789 83.9887 15.0789C81.7348 15.0789 79.7558 16.948 79.7558 19.7242V19.7791C79.7558 22.5828 81.7348 24.4243 83.9887 24.4243Z" fill="#171717"/>
<path d="M99.9287 27.3379C95.7233 27.3379 92.4799 24.2869 92.4799 19.8066V19.7516C92.4799 15.6012 95.4209 12.1929 99.5714 12.1929C104.189 12.1929 106.525 15.8211 106.525 19.999C106.525 20.3014 106.498 20.6037 106.471 20.9336H95.8058C96.1631 23.2974 97.8398 24.6168 99.9837 24.6168C101.605 24.6168 102.76 24.0121 103.914 22.8851L105.866 24.6168C104.491 26.2659 102.595 27.3379 99.9287 27.3379ZM95.7783 18.7346H103.227C103.007 16.5907 101.743 14.914 99.5439 14.914C97.5099 14.914 96.0806 16.4807 95.7783 18.7346Z" fill="#171717"/>
<path d="M108.216 27.0081V12.4952H111.542V15.7661C112.449 13.5947 114.126 12.1104 116.682 12.2203V15.7386H116.49C113.576 15.7386 111.542 17.6352 111.542 21.4833V27.0081H108.216Z" fill="#171717"/>
<path d="M123.886 27.2555C121.44 27.2555 119.708 26.1835 119.708 22.9951V15.3538H117.866V12.4952H119.708V8.50966H123.034V12.4952H126.937V15.3538H123.034V22.4728C123.034 23.7647 123.694 24.2869 124.821 24.2869C125.563 24.2869 126.222 24.122 126.882 23.7922V26.5133C126.057 26.9806 125.123 27.2555 123.886 27.2555Z" fill="#171717"/>
<path d="M141.921 27.0081H138.623V25.2215C137.634 26.4034 136.122 27.3104 133.923 27.3104C131.174 27.3104 128.755 25.7437 128.755 22.8301V22.7752C128.755 19.5592 131.257 18.02 134.638 18.02C136.397 18.02 137.524 18.2674 138.651 18.6247V18.3498C138.651 16.3433 137.386 15.2439 135.077 15.2439C133.456 15.2439 132.246 15.6012 130.927 16.1509L130.02 13.4847C131.614 12.7701 133.181 12.2753 135.545 12.2753C139.832 12.2753 141.921 14.5292 141.921 18.4048V27.0081ZM138.706 21.7582V20.9336C137.853 20.6037 136.672 20.3563 135.38 20.3563C133.291 20.3563 132.054 21.2084 132.054 22.6102V22.6652C132.054 24.0395 133.291 24.8092 134.857 24.8092C137.056 24.8092 138.706 23.5723 138.706 21.7582Z" fill="#171717"/>
</svg>
