<svg width="48" height="48" viewBox="0 0 48 48" fill="none" xmlns="http://www.w3.org/2000/svg">
<path d="M6.66667 13.2011H13.9556L16.4889 8.66116C16.7273 8.25181 17.1678 7.99974 17.6444 8H30.3111C30.7878 7.99974 31.2283 8.25181 31.4667 8.66116L34.0444 13.2011H41.3333C42.8061 13.2011 44 14.3852 44 15.8457V37.3554C44 38.8159 42.8061 40 41.3333 40H6.66667C5.19392 40 4 38.8159 4 37.3554V15.8457C4 14.3852 5.19392 13.2011 6.66667 13.2011ZM24 34.9311C29.4492 34.9311 33.8667 30.5502 33.8667 25.146C33.8667 19.7418 29.4492 15.3609 24 15.3609C18.5508 15.3609 14.1333 19.7418 14.1333 25.146C14.1576 30.5401 18.5609 34.907 24 34.9311Z" fill="#95A4B7"/>
<path d="M24 30C21.7909 30 20 27.7614 20 25C20 22.2386 21.7909 20 24 20C26.2091 20 28 22.2386 28 25C28 27.7614 26.2091 30 24 30Z" fill="#95A4B7"/>
</svg>
