<svg width="18" height="18" viewBox="0 0 18 18" fill="none" xmlns="http://www.w3.org/2000/svg">
<path d="M10.8971 7.06978C10.7479 7.06978 10.5896 6.95467 10.5434 6.81283L9.08349 2.31991C9.03728 2.17803 8.96272 2.17803 8.91652 2.31991L7.45687 6.81283C7.41066 6.9547 7.25234 7.06978 7.10318 7.06978H2.37897C2.22982 7.06978 2.20658 7.14085 2.32735 7.22867L6.1491 10.005C6.26987 10.0928 6.3304 10.279 6.28419 10.4208L4.82458 14.9135C4.77837 15.0554 4.83891 15.0994 4.95967 15.0116L8.78142 12.2353C8.90219 12.1474 9.09785 12.1474 9.21861 12.2353L13.0404 15.0119C13.1611 15.0997 13.2217 15.0556 13.1755 14.9138L11.7158 10.4211C11.6696 10.2792 11.7301 10.0931 11.8509 10.0053L15.6727 7.22894C15.7934 7.14112 15.7702 7.07005 15.621 7.07005H10.8971V7.06978Z" fill="#FEDC33"/>
</svg>
