<svg width="20" height="20" viewBox="0 0 20 20" fill="none" xmlns="http://www.w3.org/2000/svg">
<path d="M11 10L16.9286 4.07146C17.2143 3.78575 17.2143 3.35718 16.9286 3.07146C16.6429 2.78575 16.2143 2.78575 15.9286 3.07146L10 9.00004L4.07146 3.07146C3.78575 2.78575 3.35718 2.78575 3.07146 3.07146C2.78575 3.35718 2.78575 3.78575 3.07146 4.07146L9.00004 10L3.07146 15.9286C2.78575 16.2143 2.78575 16.6429 3.07146 16.9286C3.35718 17.2143 3.78575 17.2143 4.07146 16.9286L10 11L15.9286 16.9286C16.2143 17.2143 16.6429 17.2143 16.9286 16.9286C17.2143 16.6429 17.2143 16.2143 16.9286 15.9286L11 10Z" fill="white"/>
</svg>
