<svg width="44" height="44" viewBox="0 0 44 44" fill="none" xmlns="http://www.w3.org/2000/svg">
<g clip-path="url(#clip0_495_7105)">
<rect x="0.5" y="0.5" width="57" height="57" rx="9.5" fill="#0B0B0C" stroke="#121214"/>
<mask id="path-3-inside-1_495_7105" fill="white">
<path d="M9.0625 19.0625C9.0625 13.5396 13.5397 9.0625 19.0625 9.0625H57.3958V43.3958C57.3958 51.1278 51.1278 57.3958 43.3958 57.3958H9.0625V19.0625Z"/>
</mask>
<path d="M9.0625 19.0625C9.0625 13.5396 13.5397 9.0625 19.0625 9.0625H57.3958V43.3958C57.3958 51.1278 51.1278 57.3958 43.3958 57.3958H9.0625V19.0625Z" fill="#232525"/>
<path d="M8.0625 19.0625C8.0625 12.9874 12.9874 8.0625 19.0625 8.0625H57.3958V10.0625H19.0625C14.0919 10.0625 10.0625 14.0919 10.0625 19.0625H8.0625ZM57.3958 57.3958H9.0625H57.3958ZM8.0625 57.3958V19.0625C8.0625 12.9874 12.9874 8.0625 19.0625 8.0625V10.0625C14.0919 10.0625 10.0625 14.0919 10.0625 19.0625V57.3958H8.0625ZM57.3958 9.0625V57.3958V9.0625Z" fill="#5C5C5C" mask="url(#path-3-inside-1_495_7105)"/>
<path d="M20.0538 21.8702L19.6478 20.6522H16.9508L16.5448 21.8702H15.1045L17.4728 15.1035H19.1258L21.5038 21.8702H20.0538ZM17.3762 19.4052H19.2322L18.3042 16.6405L17.3762 19.4052Z" fill="white"/>
<path d="M25.644 17.0368H26.891V21.8702H25.644V21.2998C25.2703 21.7703 24.745 22.0055 24.0684 22.0055C23.4239 22.0055 22.8697 21.7606 22.4057 21.2708C21.9481 20.7746 21.7194 20.1688 21.7194 19.4535C21.7194 18.7382 21.9481 18.1356 22.4057 17.6458C22.8697 17.1496 23.4239 16.9015 24.0684 16.9015C24.745 16.9015 25.2703 17.1367 25.644 17.6072V17.0368ZM23.3434 20.4395C23.5947 20.6908 23.9137 20.8165 24.3004 20.8165C24.687 20.8165 25.006 20.6908 25.2574 20.4395C25.5151 20.1817 25.644 19.8531 25.644 19.4535C25.644 19.054 25.5151 18.7285 25.2574 18.4772C25.006 18.2194 24.687 18.0905 24.3004 18.0905C23.9137 18.0905 23.5947 18.2194 23.3434 18.4772C23.092 18.7285 22.9664 19.054 22.9664 19.4535C22.9664 19.8531 23.092 20.1817 23.3434 20.4395Z" fill="white"/>
</g>
<defs>
<clipPath id="clip0_495_7105">
<rect width="44" height="44" rx="22" fill="white"/>
</clipPath>
</defs>
</svg>
