<svg width="28" height="28" viewBox="0 0 28 28" fill="none" xmlns="http://www.w3.org/2000/svg">
<path d="M7.5425 19.355C8.435 18.6725 9.4325 18.1344 10.535 17.7406C11.6375 17.3469 12.7925 17.15 14 17.15C15.2075 17.15 16.3625 17.3469 17.465 17.7406C18.5675 18.1344 19.565 18.6725 20.4575 19.355C21.07 18.6375 21.5469 17.8237 21.8881 16.9137C22.2294 16.0037 22.4 15.0325 22.4 14C22.4 11.6725 21.5819 9.69062 19.9456 8.05437C18.3094 6.41812 16.3275 5.6 14 5.6C11.6725 5.6 9.69062 6.41812 8.05437 8.05437C6.41812 9.69062 5.6 11.6725 5.6 14C5.6 15.0325 5.77062 16.0037 6.11187 16.9137C6.45312 17.8237 6.93 18.6375 7.5425 19.355ZM14 15.05C12.9675 15.05 12.0969 14.6956 11.3881 13.9869C10.6794 13.2781 10.325 12.4075 10.325 11.375C10.325 10.3425 10.6794 9.47187 11.3881 8.76312C12.0969 8.05437 12.9675 7.7 14 7.7C15.0325 7.7 15.9031 8.05437 16.6119 8.76312C17.3206 9.47187 17.675 10.3425 17.675 11.375C17.675 12.4075 17.3206 13.2781 16.6119 13.9869C15.9031 14.6956 15.0325 15.05 14 15.05ZM14 24.5C12.5475 24.5 11.1825 24.2244 9.905 23.6731C8.6275 23.1219 7.51625 22.3737 6.57125 21.4287C5.62625 20.4837 4.87812 19.3725 4.32687 18.095C3.77562 16.8175 3.5 15.4525 3.5 14C3.5 12.5475 3.77562 11.1825 4.32687 9.905C4.87812 8.6275 5.62625 7.51625 6.57125 6.57125C7.51625 5.62625 8.6275 4.87812 9.905 4.32687C11.1825 3.77562 12.5475 3.5 14 3.5C15.4525 3.5 16.8175 3.77562 18.095 4.32687C19.3725 4.87812 20.4837 5.62625 21.4287 6.57125C22.3737 7.51625 23.1219 8.6275 23.6731 9.905C24.2244 11.1825 24.5 12.5475 24.5 14C24.5 15.4525 24.2244 16.8175 23.6731 18.095C23.1219 19.3725 22.3737 20.4837 21.4287 21.4287C20.4837 22.3737 19.3725 23.1219 18.095 23.6731C16.8175 24.2244 15.4525 24.5 14 24.5ZM14 22.4C14.9275 22.4 15.8025 22.2644 16.625 21.9931C17.4475 21.7219 18.2 21.3325 18.8825 20.825C18.2 20.3175 17.4475 19.9281 16.625 19.6569C15.8025 19.3856 14.9275 19.25 14 19.25C13.0725 19.25 12.1975 19.3856 11.375 19.6569C10.5525 19.9281 9.8 20.3175 9.1175 20.825C9.8 21.3325 10.5525 21.7219 11.375 21.9931C12.1975 22.2644 13.0725 22.4 14 22.4ZM14 12.95C14.455 12.95 14.8312 12.8012 15.1287 12.5037C15.4262 12.2063 15.575 11.83 15.575 11.375C15.575 10.92 15.4262 10.5437 15.1287 10.2462C14.8312 9.94875 14.455 9.8 14 9.8C13.545 9.8 13.1687 9.94875 12.8713 10.2462C12.5737 10.5437 12.425 10.92 12.425 11.375C12.425 11.83 12.5737 12.2063 12.8713 12.5037C13.1687 12.8012 13.545 12.95 14 12.95Z" fill="#171717"/>
</svg>
