<svg width="24" height="24" viewBox="0 0 24 24" fill="none" xmlns="http://www.w3.org/2000/svg">
<g clip-path="url(#clip0_0_42)">
<path d="M24 4.00012H0V19.9998H24V4.00012Z" fill="#F0F0F0"/>
<path d="M24 4.00012H0V9.33333H24V4.00012Z" fill="#FF9811"/>
<path d="M24 14.6666H0V19.9998H24V14.6666Z" fill="#6DA544"/>
<path d="M12 14.0576C13.1364 14.0576 14.0576 13.1364 14.0576 12C14.0576 10.8636 13.1364 9.94238 12 9.94238C10.8636 9.94238 9.94238 10.8636 9.94238 12C9.94238 13.1364 10.8636 14.0576 12 14.0576Z" fill="#0052B4"/>
<path d="M12 13.2859C12.7102 13.2859 13.286 12.7102 13.286 12C13.286 11.2897 12.7102 10.714 12 10.714C11.2898 10.714 10.7141 11.2897 10.7141 12C10.7141 12.7102 11.2898 13.2859 12 13.2859Z" fill="#F0F0F0"/>
<path d="M12 10.4131L12.3967 11.3129L13.3743 11.2065L12.7935 12L13.3743 12.7934L12.3967 12.6871L12 13.5869L11.6032 12.6871L10.6257 12.7934L11.2065 12L10.6257 11.2065L11.6032 11.3129L12 10.4131Z" fill="#0052B4"/>
</g>
<defs>
<clipPath id="clip0_0_42">
<rect y="4.00012" width="24" height="15.9997" rx="2" fill="white"/>
</clipPath>
</defs>
</svg>
