<svg width="18" height="18" viewBox="0 0 18 18" fill="none" xmlns="http://www.w3.org/2000/svg">
<path d="M11.1079 6.89587C10.9421 6.89587 10.7662 6.76796 10.7149 6.61036L9.09276 1.61823C9.04142 1.46059 8.95858 1.46059 8.90724 1.61823L7.28541 6.61036C7.23407 6.768 7.05815 6.89587 6.89243 6.89587H1.6433C1.47758 6.89587 1.45176 6.97483 1.58594 7.07241L5.83233 10.1572C5.96652 10.2548 6.03377 10.4616 5.98244 10.6193L4.36064 15.6111C4.3093 15.7687 4.37656 15.8176 4.51075 15.7201L8.75714 12.6353C8.89132 12.5377 9.10872 12.5377 9.2429 12.6353L13.4893 15.7204C13.6235 15.818 13.6907 15.769 13.6394 15.6114L12.0176 10.6196C11.9662 10.4619 12.0335 10.2551 12.1677 10.1575L16.4141 7.07271C16.5482 6.97513 16.5224 6.89616 16.3567 6.89616H11.1079V6.89587Z" fill="#FEDC33"/>
</svg>
