<svg width="25" height="24" viewBox="0 0 25 24" fill="none" xmlns="http://www.w3.org/2000/svg">
<path d="M21.3428 17.1449C21.0101 17.9135 20.6163 18.6211 20.16 19.2715C19.5381 20.1583 19.0288 20.7721 18.6364 21.113C18.028 21.6724 17.3762 21.959 16.6782 21.9753C16.1771 21.9753 15.5728 21.8327 14.8693 21.5434C14.1636 21.2555 13.515 21.113 12.922 21.113C12.3 21.113 11.633 21.2555 10.9195 21.5434C10.2049 21.8327 9.62928 21.9834 9.18916 21.9984C8.51981 22.0269 7.85264 21.7322 7.18668 21.113C6.76164 20.7422 6.22999 20.1067 5.59309 19.2063C4.90976 18.2449 4.34796 17.13 3.90784 15.8589C3.43648 14.486 3.2002 13.1565 3.2002 11.8694C3.2002 10.3951 3.51878 9.12345 4.15689 8.05784C4.6584 7.20191 5.32557 6.52672 6.16059 6.03105C6.99562 5.53539 7.89786 5.2828 8.86949 5.26664C9.40114 5.26664 10.0983 5.43109 10.9647 5.75429C11.8287 6.07858 12.3834 6.24303 12.6266 6.24303C12.8085 6.24303 13.4247 6.05074 14.4694 5.66738C15.4573 5.31186 16.2911 5.16466 16.9742 5.22264C18.8251 5.37202 20.2157 6.10167 21.1405 7.41619C19.4851 8.4192 18.6662 9.82403 18.6825 11.6262C18.6975 13.03 19.2067 14.1981 20.2076 15.1256C20.6611 15.5561 21.1676 15.8888 21.7312 16.1251C21.609 16.4795 21.48 16.819 21.3428 17.1449ZM17.0978 0.440369C17.0978 1.54062 16.6958 2.56792 15.8946 3.51878C14.9277 4.64917 13.7582 5.30236 12.49 5.19929C12.4738 5.06729 12.4645 4.92837 12.4645 4.78239C12.4645 3.72615 12.9243 2.59576 13.7408 1.67152C14.1485 1.20356 14.667 0.814453 15.2957 0.504058C15.9231 0.198295 16.5166 0.0292007 17.0747 0.000244141C17.091 0.147331 17.0978 0.294426 17.0978 0.440355V0.440369Z" fill="white"/>
</svg>
