<svg width="24" height="24" viewBox="0 0 24 24" fill="none" xmlns="http://www.w3.org/2000/svg">
<path d="M18 8C18 6.4087 17.3679 4.88258 16.2426 3.75736C15.1174 2.63214 13.5913 2 12 2C10.4087 2 8.88258 2.63214 7.75736 3.75736C6.63214 4.88258 6 6.4087 6 8C6 15 3 17 3 17H21C21 17 18 15 18 8Z" stroke="#EC1313" stroke-width="2" stroke-linecap="round" stroke-linejoin="round"/>
<mask id="path-2-inside-1_422_5208" fill="white">
<path d="M15.9997 18C15.9997 19.0609 15.5783 20.0783 14.8281 20.8284C14.078 21.5786 13.0606 22 11.9997 22C10.9388 22 9.92141 21.5786 9.17127 20.8284C8.42112 20.0783 7.99969 19.0609 7.99969 18L9.59969 18C9.59969 18.6365 9.85255 19.247 10.3026 19.6971C10.7527 20.1471 11.3632 20.4 11.9997 20.4C12.6362 20.4 13.2467 20.1471 13.6968 19.6971C14.1468 19.247 14.3997 18.6365 14.3997 18H15.9997Z"/>
</mask>
<path d="M15.9997 18C15.9997 19.0609 15.5783 20.0783 14.8281 20.8284C14.078 21.5786 13.0606 22 11.9997 22C10.9388 22 9.92141 21.5786 9.17127 20.8284C8.42112 20.0783 7.99969 19.0609 7.99969 18L9.59969 18C9.59969 18.6365 9.85255 19.247 10.3026 19.6971C10.7527 20.1471 11.3632 20.4 11.9997 20.4C12.6362 20.4 13.2467 20.1471 13.6968 19.6971C14.1468 19.247 14.3997 18.6365 14.3997 18H15.9997Z" stroke="#EC1313" stroke-width="4" mask="url(#path-2-inside-1_422_5208)"/>
</svg>
