<svg width="16" height="16" viewBox="0 0 16 16" fill="none" xmlns="http://www.w3.org/2000/svg">
<g clip-path="url(#clip0_456_12576)">
<path d="M8 0C3.5888 0 0 3.58885 0 8.00005C0 12.4112 3.5888 16 8 16C12.4112 16 16 12.4112 16 8.00005C16 3.58885 12.4112 0 8 0ZM8 14.5455C4.39079 14.5455 1.45455 11.6092 1.45455 8.00005C1.45455 4.39088 4.39079 1.45455 8 1.45455C11.6092 1.45455 14.5455 4.39088 14.5455 8.00005C14.5455 11.6092 11.6092 14.5455 8 14.5455Z" fill="#95A4B7"/>
<path d="M7.9999 3.39453C7.4653 3.39453 7.0304 3.82973 7.0304 4.36466C7.0304 4.89911 7.4653 5.33393 7.9999 5.33393C8.53449 5.33393 8.9694 4.89911 8.9694 4.36466C8.9694 3.82973 8.53449 3.39453 7.9999 3.39453Z" fill="#95A4B7"/>
<path d="M7.99998 6.78711C7.59833 6.78711 7.27271 7.11273 7.27271 7.51438V11.878C7.27271 12.2797 7.59833 12.6053 7.99998 12.6053C8.40163 12.6053 8.72725 12.2797 8.72725 11.878V7.51438C8.72725 7.11273 8.40163 6.78711 7.99998 6.78711Z" fill="#95A4B7"/>
</g>
<defs>
<clipPath id="clip0_456_12576">
<rect width="16" height="16" fill="white"/>
</clipPath>
</defs>
</svg>
