<svg width="36" height="36" viewBox="0 0 36 36" fill="none" xmlns="http://www.w3.org/2000/svg">
<path fill-rule="evenodd" clip-rule="evenodd" d="M16.7174 35.2969L15.3761 27.3028L15.2246 26.4019L12.6137 30.0133L13.8036 32.0164L12.5978 33.3736L13.5504 35.2969H16.7174Z" fill="#FEDC33"/>
<path fill-rule="evenodd" clip-rule="evenodd" d="M22.1964 32.0164L23.3863 30.0133L20.7754 26.4019L20.6239 27.3028L19.2826 35.2969H22.4495L23.4023 33.3736L22.1964 32.0164Z" fill="#FEDC33"/>
<path d="M16.7175 15.3057H19.2825C19.6708 15.3057 19.9857 14.9909 19.9857 14.6025C19.9857 14.2142 19.6708 13.8994 19.2825 13.8994H16.7175C16.3293 13.8994 16.0144 14.2142 16.0144 14.6025C16.0144 14.9909 16.3292 15.3057 16.7175 15.3057Z" fill="#171717"/>
<path d="M20.2281 19.5507C19.9535 19.2761 19.5084 19.2761 19.2337 19.5507C18.9039 19.8805 18.4657 20.0622 17.9999 20.0622C17.5342 20.0622 17.0961 19.8805 16.7662 19.5507C16.4917 19.2761 16.0466 19.2761 15.7717 19.5507C15.4972 19.8252 15.4972 20.2704 15.7717 20.545C16.3672 21.1405 17.1586 21.4685 17.9999 21.4685C18.8412 21.4685 19.6326 21.1405 20.228 20.545C20.5028 20.2704 20.5028 19.8253 20.2281 19.5507Z" fill="#171717"/>
<path d="M27.1116 28.2674L21.4785 25.9321V24.2685C24.1696 23.0732 26.1375 20.5356 26.5263 17.5102H26.8781C28.4088 17.5102 29.6541 16.265 29.6541 14.7343C29.6541 14.0306 29.39 13.3875 28.9562 12.898C29.4192 11.8679 29.6541 10.8299 29.6541 9.80548C29.6541 8.30051 29.2901 6.93778 28.5725 5.75505C27.9281 4.69326 27.0064 3.81886 25.8997 3.21537C25.2047 2.22656 24.0562 1.57856 22.7584 1.57856H12.2669C10.235 1.57856 8.16173 0.417633 7.87085 0.168797C7.68846 0.0128437 7.43913 -0.0393984 7.20963 0.0303515C6.98006 0.100031 6.80182 0.28193 6.73692 0.512906C6.24754 2.25427 6.36356 4.11783 7.07252 5.90208C7.11407 6.0067 7.15781 6.11027 7.20302 6.21314C6.63468 7.31226 6.34591 8.51862 6.34591 9.80548C6.34591 10.804 6.60072 11.8204 7.10247 12.834C6.63398 13.3308 6.34591 13.9994 6.34591 14.7343C6.34591 16.265 7.59121 17.5102 9.12185 17.5102H9.47369C9.86252 20.5352 11.8303 23.0725 14.5215 24.268V25.9321L8.88785 28.2677C6.70338 29.1757 5.54871 30.7662 5.54871 32.8672V35.2968C5.54871 35.6851 5.86357 35.9999 6.25183 35.9999H29.7482C30.1364 35.9999 30.4513 35.6851 30.4513 35.2968V32.8672C30.4513 30.7672 29.2967 29.1768 27.1116 28.2674ZM17.3125 34.5937L16.4607 29.5185C16.9293 29.7507 17.4532 29.8792 17.9991 29.8792C18.5456 29.8792 19.0703 29.7505 19.5394 29.5181L18.6875 34.5937H17.3125ZM26.8781 16.1039H26.5966V13.3666H26.8781C27.6333 13.3666 28.2478 13.9801 28.2478 14.7342C28.2478 15.4895 27.6334 16.1039 26.8781 16.1039ZM28.2478 9.80541C28.2478 10.5594 28.0855 11.331 27.7658 12.1067C27.4869 12.0123 27.1886 11.9603 26.8781 11.9603H26.59C26.5171 10.608 25.823 9.41869 24.7892 8.67148C25.8566 8.00309 26.573 6.82493 26.5951 5.48034C27.6609 6.57272 28.2478 8.07579 28.2478 9.80541ZM7.90242 1.82789C8.95415 2.37021 10.6242 2.98474 12.2669 2.98474H22.7585C24.0995 2.98474 25.1904 4.07571 25.1904 5.41671C25.1904 6.75771 24.0995 7.84868 22.7585 7.84868H13.7518C12.7027 7.84868 11.7393 8.22211 10.9873 8.84297C8.76726 7.09184 7.58418 4.37088 7.90242 1.82789ZM10.06 9.90321C9.68364 10.5067 9.45063 11.2083 9.41006 11.9604H9.12192C8.83645 11.9604 8.56089 12.0038 8.30151 12.0842C7.93687 11.3091 7.75223 10.545 7.75223 9.80548C7.75223 9.09377 7.85903 8.41336 8.06969 7.77063C8.61651 8.56805 9.28546 9.28615 10.06 9.90321ZM7.75216 14.7342C7.75216 13.9801 8.36662 13.3666 9.12185 13.3666H9.40331V16.1039H9.12185C8.36662 16.1039 7.75216 15.4895 7.75216 14.7342ZM10.8096 16.4085V12.1971C10.8096 10.5748 12.1294 9.25486 13.7518 9.25486H22.2482C23.8705 9.25486 25.1904 10.5747 25.1904 12.1971V16.4085C25.1904 20.3727 21.9653 23.5979 18.001 23.5979C14.0356 23.5979 10.8096 20.3727 10.8096 16.4085ZM18.001 25.0042C18.7149 25.0042 19.4086 24.9161 20.0722 24.7513V26.343L19.9426 27.1158C19.6407 27.9291 18.8662 28.4729 17.9991 28.4729C17.1331 28.4729 16.3593 27.9291 16.0575 27.1158L15.9279 26.343V24.751C16.5921 24.916 17.2864 25.0042 18.001 25.0042ZM6.95496 32.8672C6.95496 31.3376 7.76376 30.2578 9.427 29.5665L14.6774 27.3897L15.8865 34.5937H6.95496V32.8672ZM29.045 34.5937H20.1135L21.3225 27.3897L26.5722 29.5661C28.2362 30.2585 29.0451 31.3383 29.0451 32.8672V34.5937H29.045Z" fill="#171717"/>
<path fill-rule="evenodd" clip-rule="evenodd" d="M14.6387 17.2076C15.7508 17.2076 16.6617 16.2967 16.6617 15.1826V14.6026C16.6617 13.8094 16.0119 13.1597 15.2187 13.1597H14.6387C13.5246 13.1597 12.6138 14.0705 12.6138 15.1826C12.6137 16.2967 13.5245 17.2076 14.6387 17.2076Z" fill="#FEDC33"/>
<path fill-rule="evenodd" clip-rule="evenodd" d="M21.3613 17.2076C22.4754 17.2076 23.3863 16.2967 23.3863 15.1826C23.3863 14.0705 22.4754 13.1597 21.3613 13.1597H20.7813C19.9861 13.1597 19.3384 13.8094 19.3384 14.6026V15.1826C19.3384 16.2967 20.2492 17.2076 21.3613 17.2076Z" fill="#FEDC33"/>
</svg>
