<svg width="24" height="24" viewBox="0 0 24 24" fill="none" xmlns="http://www.w3.org/2000/svg">
<path d="M12.612 15.0601L10.1639 17.5082C10.1639 17.5082 10.1639 17.5083 10.1638 17.5083C10.1638 17.5083 10.1638 17.5084 10.1638 17.5084C9.15143 18.5208 7.50411 18.5208 6.49164 17.5084C6.00116 17.0179 5.73111 16.3658 5.73111 15.6722C5.73111 14.9787 6.00116 14.3268 6.49147 13.8363C6.49153 13.8362 6.49158 13.8362 6.49164 13.8361L8.93972 11.388C9.27769 11.0499 9.27769 10.5019 8.93966 10.1639C8.60169 9.82593 8.05362 9.82593 7.71559 10.1639L5.26752 12.612C5.26734 12.6122 5.26717 12.6124 5.267 12.6126C4.44997 13.4299 4 14.5165 4 15.6722C4 16.8282 4.45015 17.915 5.26758 18.7324C6.11132 19.5761 7.21952 19.998 8.32777 19.998C9.43603 19.998 10.5443 19.5761 11.3879 18.7324C11.388 18.7324 11.388 18.7323 11.388 18.7323L13.836 16.2842C14.174 15.9462 14.174 15.3981 13.836 15.0601C13.4981 14.7221 12.9501 14.7221 12.612 15.0601Z" fill="black"/>
<path d="M19.9999 8.32777C19.9999 7.17179 19.5497 6.085 18.7323 5.26757C17.0448 3.5802 14.2992 3.58026 12.6119 5.26757C12.6119 5.26769 12.6118 5.26775 12.6117 5.26786L10.1637 7.71582C9.82565 8.05379 9.82565 8.60192 10.1637 8.93989C10.3327 9.10896 10.5542 9.19344 10.7757 9.19344C10.9972 9.19344 11.2188 9.1089 11.3877 8.93989L13.8358 6.49193C13.8358 6.49181 13.8359 6.49176 13.8361 6.49164C14.8484 5.47929 16.4957 5.47923 17.5082 6.49164C17.9986 6.98212 18.2688 7.63423 18.2688 8.32777C18.2688 9.02125 17.9987 9.67324 17.5084 10.1637L17.5082 10.1639L15.0601 12.612C14.7221 12.95 14.7221 13.4981 15.0602 13.8361C15.2292 14.0051 15.4507 14.0896 15.6722 14.0896C15.8937 14.0896 16.1152 14.0051 16.2842 13.8361L18.7323 11.388C18.7325 11.3878 18.7327 11.3876 18.7328 11.3874C19.5499 10.5701 19.9999 9.48346 19.9999 8.32777Z" fill="black"/>
<path d="M8.94004 15.0601C9.10906 15.2291 9.33058 15.3137 9.55205 15.3137C9.77357 15.3137 9.9951 15.2291 10.1641 15.0601L15.0604 10.1638C15.3984 9.82587 15.3984 9.2778 15.0604 8.93977C14.7224 8.6018 14.1743 8.6018 13.8363 8.93977L8.94004 13.836C8.60202 14.1741 8.60202 14.7221 8.94004 15.0601Z" fill="black"/>
</svg>
