<svg width="24" height="24" viewBox="0 0 24 24" fill="none" xmlns="http://www.w3.org/2000/svg">
<g clip-path="url(#clip0_2811_6686)">
<circle cx="12" cy="12" r="12" fill="white"/>
<path d="M20.0008 12.1778C20.0008 11.52 19.9463 11.04 19.8285 10.5422H12.1641V13.5111H16.6629C16.5722 14.2489 16.0824 15.36 14.994 16.1066L14.9787 16.206L17.4021 18.0458L17.5699 18.0622C19.1119 16.6667 20.0008 14.6133 20.0008 12.1778Z" fill="#4285F4"/>
<path d="M12.1636 20.0001C14.3676 20.0001 16.218 19.289 17.5695 18.0623L14.9935 16.1067C14.3042 16.5778 13.379 16.9067 12.1636 16.9067C10.0049 16.9067 8.17272 15.5112 7.5196 13.5823L7.42386 13.5902L4.90405 15.5014L4.87109 15.5912C6.21348 18.2045 8.97084 20.0001 12.1636 20.0001Z" fill="#34A853"/>
<path d="M7.52021 13.5822C7.34788 13.0844 7.24815 12.551 7.24815 11.9999C7.24815 11.4488 7.34788 10.9155 7.51115 10.4177L7.50658 10.3117L4.95518 8.36987L4.8717 8.40879C4.31844 9.49324 4.00098 10.711 4.00098 11.9999C4.00098 13.2888 4.31844 14.5066 4.8717 15.591L7.52021 13.5822Z" fill="#FBBC05"/>
<path d="M12.1636 7.09331C13.6965 7.09331 14.7305 7.7422 15.3201 8.28446L17.6239 6.08C16.209 4.79111 14.3677 4 12.1636 4C8.97087 4 6.21349 5.79554 4.87109 8.40885L7.51054 10.4178C8.17274 8.48889 10.0049 7.09331 12.1636 7.09331Z" fill="#EB4335"/>
</g>
<defs>
<clipPath id="clip0_2811_6686">
<rect width="24" height="24" fill="white"/>
</clipPath>
</defs>
</svg>
