<svg width="36" height="36" viewBox="0 0 36 36" fill="none" xmlns="http://www.w3.org/2000/svg">
<g clip-path="url(#clip0_2842_7497)">
<path d="M20.9477 29.7933V12.7402C19.7873 12.7402 18.8467 11.7995 18.8467 10.6392H8.61754C8.61754 11.7995 7.6769 12.7402 6.5166 12.7402V29.7932C7.67697 29.7932 8.61754 30.7339 8.61754 31.8943H18.8467C18.8467 30.7339 19.7873 29.7933 20.9477 29.7933Z" fill="#FEDC33"/>
<path d="M30.8437 0H14.1547C12.6678 0 11.4581 1.20973 11.4581 2.6967V7.13721H5.15659C3.66969 7.13721 2.45996 8.34694 2.45996 9.83391V33.3034C2.45996 34.7903 3.66962 36.0001 5.15659 36.0001H21.8455C23.3324 36.0001 24.5422 34.7903 24.5422 33.3034V28.8628H30.8437C32.3306 28.8628 33.5403 27.6531 33.5403 26.1661V2.6967C33.5403 1.20973 32.3307 0 30.8437 0ZM23.136 33.3033C23.136 34.0149 22.5571 34.5938 21.8455 34.5938H5.15659C4.44509 34.5938 3.86621 34.0149 3.86621 33.3033V9.83391C3.86621 9.12234 4.44502 8.54346 5.15659 8.54346H21.8455C22.557 8.54346 23.136 9.12234 23.136 9.83391V33.3033ZM21.8455 7.13721H16.135V6.69248C17.0934 6.43992 17.8495 5.68371 18.1021 4.72528H26.8962C27.1488 5.68371 27.9049 6.43992 28.8634 6.69248V22.1702C27.9049 22.4228 27.1488 23.179 26.8962 24.1374H24.5422V9.83391C24.5422 8.34694 23.3325 7.13721 21.8455 7.13721ZM32.1341 26.1661C32.1341 26.8777 31.5553 27.4565 30.8437 27.4565H24.5422V25.5437H27.5086C27.8969 25.5437 28.2118 25.2289 28.2118 24.8406C28.2118 24.0936 28.8195 23.4858 29.5665 23.4858C29.9547 23.4858 30.2696 23.171 30.2696 22.7827V6.08006C30.2696 5.69173 29.9547 5.37694 29.5665 5.37694C28.8195 5.37694 28.2118 4.76916 28.2118 4.02216C28.2118 3.63382 27.8969 3.31903 27.5086 3.31903H17.4897C17.1014 3.31903 16.7866 3.63382 16.7866 4.02216C16.7866 4.76916 16.1788 5.37694 15.4319 5.37694C15.0436 5.37694 14.7288 5.69173 14.7288 6.08006V7.13721H12.8642V2.6967C12.8642 1.98513 13.4431 1.40625 14.1546 1.40625H30.8436C31.5551 1.40625 32.134 1.98513 32.134 2.6967L32.1341 26.1661Z" fill="#171717"/>
<path d="M18.0991 20.9144L17.1378 20.5352C15.9511 20.0671 15.002 19.1181 14.5339 17.9313L14.1548 16.9699C14.0488 16.7013 13.7895 16.5247 13.5007 16.5247C13.212 16.5247 12.9525 16.7012 12.8466 16.9698L12.4674 17.9312C11.9993 19.118 11.0503 20.0671 9.86356 20.5351L8.90218 20.9143C8.63359 21.0203 8.45703 21.2797 8.45703 21.5685C8.45703 21.8572 8.63359 22.1166 8.90218 22.2225L9.86356 22.6018C11.0503 23.0698 11.9993 24.0189 12.4674 25.2057L12.8466 26.1671C12.9525 26.4357 13.2119 26.6123 13.5007 26.6123C13.7895 26.6123 14.0488 26.4357 14.1548 26.167L14.5339 25.2057C15.002 24.0188 15.9511 23.0698 17.1379 22.6016L18.0992 22.2224C18.3677 22.1165 18.5443 21.8571 18.5443 21.5684C18.5443 21.2797 18.3677 21.0204 18.0991 20.9144ZM13.5008 24.0916C12.9338 23.0184 12.0509 22.1353 10.9777 21.5685C12.0509 21.0017 12.9338 20.1187 13.5007 19.0454C14.0676 20.1187 14.9505 21.0017 16.0239 21.5685C14.9505 22.1353 14.0675 23.0183 13.5008 24.0916Z" fill="#171717"/>
</g>
<defs>
<clipPath id="clip0_2842_7497">
<rect width="36" height="36" fill="white"/>
</clipPath>
</defs>
</svg>
