<svg width="24" height="24" viewBox="0 0 24 24" fill="none" xmlns="http://www.w3.org/2000/svg">
<path d="M14 20.7246V18.6746C15.5 18.2413 16.7083 17.4079 17.625 16.1746C18.5417 14.9413 19 13.5413 19 11.9746C19 10.4079 18.5417 9.00794 17.625 7.77461C16.7083 6.54128 15.5 5.70794 14 5.27461V3.22461C16.0667 3.69128 17.75 4.73711 19.05 6.36211C20.35 7.98711 21 9.85794 21 11.9746C21 14.0913 20.35 15.9621 19.05 17.5871C17.75 19.2121 16.0667 20.2579 14 20.7246ZM3 14.9996V8.99961H7L12 3.99961V19.9996L7 14.9996H3ZM14 15.9996V7.94961C14.7833 8.31628 15.3958 8.86628 15.8375 9.59961C16.2792 10.3329 16.5 11.1329 16.5 11.9996C16.5 12.8496 16.2792 13.6371 15.8375 14.3621C15.3958 15.0871 14.7833 15.6329 14 15.9996ZM10 8.84961L7.85 10.9996H5V12.9996H7.85L10 15.1496V8.84961Z" fill="white"/>
</svg>
