<svg width="24" height="24" viewBox="0 0 24 24" fill="none" xmlns="http://www.w3.org/2000/svg">
<path fill-rule="evenodd" clip-rule="evenodd" d="M15.0914 2.39811C15.0384 2.10707 14.8198 1.87424 14.5325 1.80335C12.887 1.39888 11.1676 1.39888 9.52213 1.80335C9.23482 1.87424 9.01618 2.10707 8.96319 2.39811L8.56021 4.61373C8.14231 4.80999 7.74083 5.04133 7.36173 5.3055L5.24164 4.54657C4.96255 4.44657 4.65211 4.5197 4.44689 4.73313C3.27453 5.95623 2.41485 7.445 1.94173 9.07257C1.85964 9.35615 1.95142 9.66286 2.17679 9.8539L3.89466 11.3106C3.85585 11.771 3.85585 12.2337 3.89466 12.6941L2.17679 14.1508C1.95142 14.3426 1.85964 14.6486 1.94173 14.9329C2.41485 16.5597 3.27453 18.0485 4.44689 19.2716C4.65211 19.485 4.96255 19.5581 5.24164 19.4589L7.36173 18.6992C7.74083 18.9634 8.14157 19.1947 8.56021 19.391L8.96319 21.6073C9.01618 21.8984 9.23482 22.1312 9.52213 22.2013C11.1676 22.6058 12.887 22.6058 14.5325 22.2013C14.8198 22.1312 15.0384 21.8984 15.0914 21.6073L15.4944 19.391C15.9123 19.1947 16.313 18.9634 16.6929 18.6992C16.6921 18.6992 18.8129 19.4589 18.8129 19.4589C19.0913 19.5581 19.4025 19.485 19.607 19.2716C20.7801 18.0485 21.6397 16.5597 22.1121 14.9329C22.195 14.6486 22.1032 14.3426 21.877 14.1508L20.1599 12.6941C20.1987 12.2344 20.1987 11.771 20.1599 11.3106C20.1592 11.3106 21.877 9.8539 21.877 9.8539C22.1032 9.66286 22.195 9.35615 22.1121 9.07257C21.6397 7.445 20.7801 5.95623 19.607 4.73313C19.4025 4.5197 19.0913 4.44657 18.8129 4.54657L16.6921 5.3055C16.3138 5.04133 15.9123 4.80999 15.4944 4.61373L15.0914 2.39811ZM13.7049 3.15854L14.0892 5.27416C14.1355 5.52639 14.3071 5.73833 14.5444 5.83459C15.1048 6.06369 15.6317 6.36816 16.11 6.73905C16.3123 6.89576 16.5817 6.93904 16.8227 6.85248L18.848 6.12787C19.5838 6.98233 20.1532 7.96812 20.5256 9.03302L18.8853 10.4248C18.6898 10.5904 18.5921 10.8442 18.6271 11.0986C18.7092 11.6986 18.7092 12.3068 18.6271 12.9068C18.5921 13.1605 18.6898 13.415 18.8853 13.5807L20.5256 14.9717C20.1532 16.0366 19.5838 17.0224 18.848 17.8776L16.8227 17.1522C16.5817 17.0664 16.3123 17.1089 16.11 17.2664C15.6317 17.6373 15.1048 17.941 14.5444 18.1701C14.3071 18.2671 14.1355 18.4783 14.0892 18.7305L13.7049 20.8469C12.5959 21.0566 11.4579 21.0566 10.3497 20.8469L9.96466 18.7305C9.91914 18.4783 9.7475 18.2671 9.5102 18.1701C8.94976 17.941 8.4229 17.6373 7.94456 17.2664C7.74158 17.1089 7.47293 17.0664 7.23189 17.1522L5.20657 17.8776C4.47002 17.0224 3.90138 16.0366 3.529 14.9717L5.16926 13.5807C5.36478 13.415 5.46253 13.1605 5.42746 12.9068C5.34537 12.3068 5.34537 11.6986 5.42746 11.0986C5.46253 10.8442 5.36478 10.5904 5.16926 10.4248L3.529 9.03302C3.90138 7.96812 4.47002 6.98233 5.20657 6.12787L7.23189 6.85248C7.47293 6.93904 7.74158 6.89576 7.94456 6.73905C8.4229 6.36816 8.94976 6.06369 9.5102 5.83459C9.7475 5.73833 9.91914 5.52639 9.96466 5.27416L10.3497 3.15854C11.4579 2.9481 12.5959 2.9481 13.7049 3.15854ZM12.0273 7.44873C9.51393 7.44873 7.47368 9.48973 7.47368 12.0023C7.47368 14.5157 9.51393 16.556 12.0273 16.556C14.5407 16.556 16.5809 14.5157 16.5809 12.0023C16.5809 9.48973 14.5407 7.44873 12.0273 7.44873ZM12.0273 8.94944C13.7123 8.94944 15.0802 10.3173 15.0802 12.0023C15.0802 13.6874 13.7123 15.056 12.0273 15.056C10.3423 15.056 8.97439 13.6874 8.97439 12.0023C8.97439 10.3173 10.3423 8.94944 12.0273 8.94944Z" fill="white"/>
</svg>
