<svg width="36" height="36" viewBox="0 0 36 36" fill="none" xmlns="http://www.w3.org/2000/svg">
<g clip-path="url(#clip0_2842_7442)">
<path d="M24.0343 13.8274L23.5248 14.3394L21.1813 16.6935C21.4446 17.6924 21.189 18.8027 20.4147 19.5869C19.2585 20.7559 17.3843 20.7559 16.2281 19.5869C15.0719 18.4173 15.0719 16.5213 16.2281 15.3517C17.0032 14.5681 18.1001 14.3098 19.0876 14.5766L21.4333 12.2197L21.9312 11.7193L21.8761 11.6638L21.816 11.6238C20.5379 10.7751 19.0603 10.3264 17.543 10.3264C15.5464 10.3264 13.6802 11.1018 12.2885 12.5097C11.1217 13.69 10.3931 15.214 10.1911 16.8684C9.67464 16.7839 9.15505 16.7412 8.63883 16.7412C6.27032 16.7412 4.08265 17.6347 2.47882 19.2572C-1.05574 22.8323 -0.776771 28.9317 3.10077 32.854C5.07745 34.8535 7.73891 36.0001 10.403 36.0001H10.4037C12.773 35.9999 14.9613 35.1062 16.5657 33.4836C18.5435 31.4827 19.3968 28.6157 18.9218 25.6848C20.5595 25.4796 22.0677 24.7416 23.2355 23.5603C24.4588 22.3229 25.2143 20.6718 25.3628 18.9114C25.5087 17.1826 25.0664 15.4226 24.1174 13.9559L24.0343 13.8274Z" fill="#FEDC33"/>
<path d="M35.808 2.30638L33.8911 0.227422C33.6629 -0.0199892 33.2919 -0.071942 33.0047 0.103187L28.2571 2.99744L27.6031 2.33589C27.329 2.05869 26.8822 2.05615 26.6048 2.33017C26.3276 2.60419 26.325 3.05116 26.5991 3.32843C26.7308 3.46163 27.7738 4.51678 27.9384 4.68323L18.8564 13.8089C17.7177 13.6409 16.5496 14.0233 15.7269 14.8553C14.302 16.2965 14.302 18.6417 15.727 20.0832C16.4197 20.7837 17.3414 21.1694 18.3222 21.1694C20.5727 21.1694 22.2721 19.1519 21.9479 16.9245L31.0245 7.80491C32.5462 9.34423 32.2856 9.08058 32.3556 9.15138C33.0079 9.81117 34.0157 8.82258 33.3596 8.15884L32.7334 7.52532L35.8612 3.19833C36.0578 2.92622 36.0355 2.55323 35.808 2.30638ZM18.3222 19.7577C16.3269 19.7577 15.3049 17.2903 16.7307 15.8479C17.9564 14.6088 20.0528 15.1816 20.4995 16.8737C20.8806 18.3204 19.8128 19.7577 18.3222 19.7577ZM21.4051 15.4687C21.1274 15.0333 20.7709 14.6606 20.3027 14.357L28.931 5.6872L30.0321 6.80087L21.4051 15.4687ZM31.7271 6.50751L29.277 4.02916L33.2455 1.60989L34.3789 2.83911L31.7271 6.50751Z" fill="#171717"/>
<path d="M27.4131 22.1616C26.9715 21.7149 26.2053 22.027 26.2053 22.6579V30.2213C24.342 29.1274 21.9551 30.4785 21.9551 32.6902C21.9551 34.265 23.2248 35.5462 24.7857 35.5462C26.3466 35.5462 27.617 34.265 27.617 32.6903V24.376L29.9512 26.7371C30.2253 27.0144 30.6722 27.0169 30.9494 26.7428C31.2267 26.4687 31.2292 26.0218 30.9551 25.7445L27.4131 22.1616ZM24.7856 34.1344C24.0033 34.1344 23.3668 33.4864 23.3668 32.6901C23.3668 31.8942 24.0033 31.2466 24.7856 31.2466C25.5683 31.2466 26.2051 31.8942 26.2051 32.6901C26.2051 33.4865 25.5683 34.1344 24.7856 34.1344Z" fill="#171717"/>
<path d="M10.9658 20.6695C10.6915 20.3923 10.2448 20.3898 9.96744 20.6638C9.69017 20.9378 9.68763 21.3848 9.96173 21.6621L14.1476 25.8967C14.2857 26.0363 14.4676 26.1063 14.6496 26.1063C15.273 26.1063 15.5913 25.349 15.1516 24.9042L10.9658 20.6695Z" fill="#171717"/>
<path d="M8.34851 23.3165C8.07442 23.0393 7.62739 23.0368 7.35026 23.3108C7.07299 23.5849 7.07045 24.0319 7.34454 24.3091L11.5311 28.5436C11.6692 28.6833 11.8511 28.7533 12.0331 28.7533C12.657 28.7533 12.9743 27.9954 12.535 27.5512L8.34851 23.3165Z" fill="#171717"/>
<path d="M5.73231 25.963C5.45822 25.6858 5.0114 25.6833 4.73405 25.9573C4.45678 26.2313 4.45424 26.6783 4.72827 26.9556L8.91499 31.1908C9.05306 31.3305 9.23496 31.4005 9.41694 31.4005C10.0409 31.4005 10.358 30.6426 9.91896 30.1984L5.73231 25.963Z" fill="#171717"/>
<path d="M8.4907 11.0958V2.78184L10.8249 5.14301C11.0991 5.42035 11.5459 5.42282 11.8232 5.14873C12.1004 4.87464 12.103 4.42774 11.8289 4.15047L8.28677 0.56742C7.84468 0.120244 7.07894 0.433585 7.07894 1.06365V8.62675C5.2157 7.53305 2.82812 8.88418 2.82812 11.0958C2.82812 12.6706 4.09822 13.9518 5.65941 13.9518C7.22061 13.9518 8.4907 12.6705 8.4907 11.0958ZM4.23989 11.0958C4.23989 10.2998 4.87666 9.65225 5.65941 9.65225C6.44216 9.65225 7.07894 10.2998 7.07894 11.0958C7.07894 11.8921 6.44209 12.54 5.65941 12.54C4.87673 12.54 4.23989 11.8921 4.23989 11.0958Z" fill="#171717"/>
</g>
<defs>
<clipPath id="clip0_2842_7442">
<rect width="36" height="36" fill="white"/>
</clipPath>
</defs>
</svg>
