<svg width="24" height="24" viewBox="0 0 24 24" fill="none" xmlns="http://www.w3.org/2000/svg">
<g clip-path="url(#clip0_422_5202)">
<path d="M13.8621 16.7306C13.4288 16.312 12.7382 16.324 12.3196 16.7574C11.9113 17.1801 11.9113 17.8503 12.3196 18.2731L15.5923 21.5458C16.0054 21.9589 16.6705 21.9734 17.101 21.5785L23.6465 15.5786C24.0905 15.1713 24.1203 14.4811 23.713 14.0371C23.3057 13.5931 22.6156 13.5633 22.1716 13.9706L16.3963 19.2648L13.8621 16.7306Z" fill="#171717"/>
<path d="M1.09089 21.8659H9.81815C10.4206 21.8659 10.909 21.3775 10.909 20.775C10.909 20.1725 10.4206 19.6841 9.81815 19.6841H2.25925C2.8064 15.9293 6.02369 13.1434 9.81815 13.1387C12.857 13.165 15.3418 10.7229 15.3682 7.68407C15.3946 4.64525 12.9524 2.16034 9.91357 2.134C6.87475 2.10766 4.38989 4.54972 4.36355 7.58859C4.3501 9.14114 4.99314 10.6272 6.13414 11.6801C2.43045 13.1826 0.0053693 16.7781 0 20.775C0 21.3775 0.488402 21.8659 1.09089 21.8659ZM9.81815 4.4114C11.6256 4.4114 13.0909 5.87666 13.0909 7.68412C13.0909 9.49158 11.6256 10.9568 9.81815 10.9568C8.01069 10.9568 6.54543 9.49158 6.54543 7.68412C6.54543 5.87666 8.01069 4.4114 9.81815 4.4114Z" fill="#171717"/>
</g>
<defs>
<clipPath id="clip0_422_5202">
<rect width="24" height="24" fill="white"/>
</clipPath>
</defs>
</svg>
