<svg width="16" height="16" viewBox="0 0 16 16" fill="none" xmlns="http://www.w3.org/2000/svg">
<path d="M14.1246 6.67117C13.9081 6.5453 13.7136 6.38497 13.5486 6.1965C13.5653 5.93411 13.6278 5.67667 13.7333 5.43584C13.9273 4.8885 14.1466 4.2685 13.7946 3.7865C13.4426 3.3045 12.778 3.31984 12.1946 3.33317C11.9369 3.35969 11.6765 3.34211 11.4246 3.28117C11.2905 3.06284 11.1946 2.82316 11.1413 2.5725C10.976 2.00917 10.7873 1.3725 10.208 1.18184C9.6493 1.00184 9.13197 1.39784 8.67463 1.74584C8.47729 1.92605 8.24864 2.06862 7.99997 2.1665C7.7487 2.06942 7.51749 1.92681 7.31797 1.74584C6.86197 1.39984 6.34663 0.999837 5.7853 1.1825C5.2073 1.3705 5.01863 2.00917 4.85197 2.5725C4.79872 2.82235 4.70384 3.06146 4.5713 3.27984C4.31898 3.34061 4.05825 3.35864 3.79997 3.33317C3.21463 3.31717 2.5553 3.29984 2.19997 3.7865C1.84463 4.27317 2.06663 4.8885 2.2613 5.43517C2.36826 5.67564 2.43169 5.93319 2.44863 6.19584C2.28402 6.38455 2.08968 6.54511 1.8733 6.67117C1.3853 7.0045 0.831299 7.38384 0.831299 7.99984C0.831299 8.61584 1.3853 8.99384 1.8733 9.3285C2.08963 9.45436 2.28397 9.61469 2.44863 9.80317C2.43347 10.0657 2.37185 10.3235 2.26663 10.5645C2.0733 11.1112 1.85463 11.7312 2.20597 12.2132C2.5573 12.6952 3.21997 12.6798 3.80597 12.6665C4.06394 12.64 4.32456 12.6575 4.57663 12.7185C4.71022 12.9371 4.8058 13.1767 4.8593 13.4272C5.02463 13.9905 5.2133 14.6272 5.79263 14.8178C5.88551 14.8476 5.98243 14.8629 6.07997 14.8632C6.54877 14.7959 6.98449 14.5827 7.3253 14.2538C7.52264 14.0736 7.75129 13.9311 7.99997 13.8332C8.25124 13.9303 8.48244 14.0729 8.68197 14.2538C9.13863 14.6025 9.65597 15.0005 10.2153 14.8172C10.7933 14.6292 10.982 13.9905 11.1486 13.4278C11.2021 13.1775 11.2976 12.9381 11.4313 12.7198C11.6827 12.6586 11.9426 12.6406 12.2 12.6665C12.7853 12.6805 13.4446 12.6998 13.8 12.2132C14.1553 11.7265 13.9333 11.1112 13.7386 10.5638C13.6324 10.3236 13.569 10.0666 13.5513 9.8045C13.716 9.61562 13.9106 9.45504 14.1273 9.32917C14.6153 8.99584 15.1693 8.61584 15.1693 7.99984C15.1693 7.38384 14.6133 7.00517 14.1246 6.67117Z" fill="#9271D9"/>
<path d="M7.1905 10C7.1115 10.0002 7.03326 9.98297 6.9603 9.9494C6.88734 9.91583 6.82111 9.86656 6.76544 9.80444L5.16144 8.02667C5.05519 7.90029 4.99734 7.73314 5.00009 7.56043C5.00284 7.38771 5.06597 7.22293 5.17618 7.10078C5.28638 6.97864 5.43506 6.90867 5.59089 6.90562C5.74672 6.90258 5.89753 6.96669 6.01156 7.08445L7.24664 8.45333L10.0376 6.13334C10.1652 6.02725 10.3256 5.9817 10.4836 6.0067C10.6415 6.03171 10.784 6.12522 10.8797 6.26667C10.9754 6.40812 11.0165 6.58592 10.994 6.76095C10.9714 6.93598 10.887 7.09392 10.7594 7.2L7.5514 9.86667C7.44725 9.95316 7.32063 9.99994 7.1905 10Z" fill="white"/>
</svg>
