<svg width="28" height="28" viewBox="0 0 28 28" fill="none" xmlns="http://www.w3.org/2000/svg">
<path fill-rule="evenodd" clip-rule="evenodd" d="M10.1609 5.3014C9.86985 5.3014 9.60991 5.31274 9.37188 5.3425C9.36025 5.34395 9.34858 5.34517 9.3369 5.34617C7.88546 5.47027 6.92276 5.94655 6.30906 6.66842C5.68551 7.40187 5.30909 8.52137 5.30909 10.1532V14.9569C5.30909 17.2813 5.78195 18.3811 6.44045 18.9561C7.12922 19.5576 8.26017 19.8087 10.1609 19.8087H10.6412C10.9567 19.8087 11.2508 19.9092 11.4723 20.0211C11.6944 20.1333 11.942 20.3069 12.1253 20.5465L12.1304 20.5533L13.5727 22.4764C13.7481 22.7113 13.9132 22.754 14.0039 22.754C14.0945 22.754 14.2596 22.7113 14.435 22.4764L14.4362 22.4747L15.8773 20.5533C16.2275 20.0862 16.7827 19.8087 17.3665 19.8087H17.8468C19.4801 19.8087 20.5994 19.4346 21.3322 18.8126C22.0531 18.201 22.5296 17.2392 22.6538 15.7811C22.6548 15.7693 22.6561 15.7577 22.6575 15.7459C22.6873 15.5079 22.6986 15.2479 22.6986 14.9569V10.1532C22.6986 8.37724 22.2539 7.20833 21.5228 6.47721C20.7916 5.74609 19.6228 5.3014 17.8468 5.3014H10.1609ZM9.16621 3.55281C9.49879 3.51226 9.83323 3.5 10.1609 3.5H17.8468C19.9019 3.5 21.6092 4.01605 22.7966 5.20343C23.984 6.39081 24.5 8.09813 24.5 10.1532V14.9569C24.5 15.2845 24.4878 15.619 24.4472 15.9515C24.2927 17.7281 23.6765 19.1859 22.4978 20.1862C21.3271 21.1795 19.7323 21.6101 17.8468 21.6101H17.3665C17.3602 21.6101 17.3507 21.6116 17.3399 21.617C17.3292 21.6224 17.3221 21.6292 17.3184 21.6341L15.8785 23.5539C15.4175 24.1713 14.7476 24.5554 14.0039 24.5554C13.2601 24.5554 12.5909 24.172 12.1298 23.5547L10.7069 21.6575C10.6966 21.6498 10.6803 21.6391 10.6598 21.6288C10.6413 21.6194 10.6255 21.6134 10.6149 21.6101H10.1609C8.2306 21.6101 6.4853 21.3868 5.25558 20.3129C3.99559 19.2128 3.50769 17.4362 3.50769 14.9569V10.1532C3.50769 8.26625 3.9419 6.67164 4.93661 5.50162C5.93793 4.32382 7.39492 3.70743 9.16621 3.55281Z" fill="#171717"/>
</svg>
