<svg width="28" height="28" viewBox="0 0 28 28" fill="none" xmlns="http://www.w3.org/2000/svg">
<path d="M14 3.5C8.20106 3.5 3.5 8.20095 3.5 14C3.5 19.7989 8.20106 24.5 14 24.5C19.7989 24.5 24.5 19.7989 24.5 14C24.5 8.20095 19.7989 3.5 14 3.5ZM15.05 19.0869C15.05 19.6673 14.5803 20.1369 14 20.1369C13.4197 20.1369 12.95 19.6673 12.95 19.0869V12.9971C12.95 12.4168 13.4197 11.9471 14 11.9471C14.5803 11.9471 15.05 12.4168 15.05 12.9971V19.0869ZM14.7455 9.4955C14.5455 9.69437 14.283 9.8 14 9.8C13.716 9.8 13.4535 9.69437 13.2545 9.4955C13.1602 9.38987 13.0863 9.275 13.034 9.14889C12.9817 9.02279 12.95 8.88639 12.95 8.75C12.95 8.47721 13.0649 8.20347 13.2545 8.0045C13.6431 7.61589 14.3568 7.61589 14.7454 8.0045C14.9341 8.20347 15.05 8.47721 15.05 8.75C15.05 9.03297 14.9444 9.29548 14.7455 9.4955Z" fill="#9271D9"/>
</svg>
