<svg width="28" height="28" viewBox="0 0 28 28" fill="none" xmlns="http://www.w3.org/2000/svg">
<path d="M21.8323 6.22642C20.549 6.08464 19.286 5.78824 18.0687 5.34319C16.9516 4.9334 15.8801 4.4004 14.8725 3.75332C14.6096 3.58762 14.3079 3.5 14.0003 3.5C13.6927 3.5 13.3911 3.58762 13.1281 3.75332L13.1272 3.75432C12.1198 4.40086 11.0486 4.93353 9.93195 5.34319C8.71496 5.78814 7.45224 6.08455 6.16927 6.22645C5.75714 6.27027 5.37534 6.47133 5.09781 6.79068C4.82028 7.11003 4.66676 7.52495 4.66699 7.95509V13.1188C4.66767 15.024 5.15871 16.8943 6.08931 18.5363C7.01991 20.1783 8.35624 21.5323 9.96 22.458L13.1861 24.3196C13.4345 24.4647 13.7148 24.5409 13.9999 24.5409C14.2849 24.5409 14.5652 24.4647 14.8136 24.3196L18.0407 22.458C19.6444 21.5323 20.9807 20.1783 21.9113 18.5363C22.8419 16.8943 23.333 15.024 23.3337 13.1188V7.95509C23.3339 7.5251 23.1806 7.11028 22.9032 6.79094C22.6259 6.47161 22.2443 6.27045 21.8323 6.22642ZM17.8098 12.1919L14.22 16.1675C14.0496 16.3567 13.8146 16.4692 13.5654 16.481C13.3161 16.4928 13.0723 16.4029 12.886 16.2306L10.7322 14.2428C10.5425 14.0677 10.4276 13.8216 10.4127 13.5586C10.3978 13.2956 10.4841 13.0372 10.6527 12.8403C10.8213 12.6433 11.0583 12.524 11.3117 12.5085C11.565 12.4931 11.8139 12.5827 12.0035 12.7578L13.4609 14.1021L16.4131 10.833C16.5027 10.7339 16.6109 10.6549 16.731 10.6008C16.8511 10.5467 16.9805 10.5187 17.1114 10.5185C17.2981 10.5186 17.4806 10.5753 17.6366 10.6817C17.7925 10.7881 17.9152 10.9395 17.9894 11.1173C18.0635 11.2951 18.0861 11.4915 18.0542 11.6824C18.0223 11.8733 17.9373 12.0504 17.8098 12.1919Z" fill="#64C361"/>
</svg>
