<svg width="28" height="28" viewBox="0 0 28 28" fill="none" xmlns="http://www.w3.org/2000/svg">
<path fill-rule="evenodd" clip-rule="evenodd" d="M13.8497 21.1554V22.2019C13.8497 23.0412 13.4315 23.7657 12.7046 24.1853C12.3549 24.3872 11.9646 24.4998 11.56 24.5C11.1549 24.5002 10.7647 24.3874 10.4148 24.1853L5.76133 21.4986C5.03441 21.079 4.61621 20.3546 4.61621 19.5152V5.79023C4.61621 4.52732 5.64357 3.5 6.90644 3.5H17.1551C18.418 3.5 19.4455 4.52724 19.4455 5.79023V8.68343C19.4455 9.09847 19.1085 9.43545 18.6934 9.43545C18.2783 9.43545 17.9416 9.09851 17.9416 8.68343V5.79023C17.9416 5.35657 17.5887 5.00371 17.1551 5.00371H8.1746L12.7046 7.61957C13.4312 8.03916 13.8497 8.76349 13.8497 9.60255V19.6515H17.1551C17.5887 19.6515 17.9416 19.2989 17.9416 18.8652V16.3289C17.9416 15.9136 18.2781 15.5769 18.6934 15.5769C19.1086 15.5769 19.4455 15.9137 19.4455 16.3289V18.8652C19.4455 20.1281 18.418 21.1554 17.1551 21.1554H13.8497ZM20.8176 13.0795L19.9894 13.9077C19.6958 14.2013 19.6959 14.6773 19.9894 14.971C20.1308 15.1124 20.3213 15.191 20.5211 15.191C20.7212 15.191 20.9115 15.1126 21.053 14.971L23.1645 12.8592C23.458 12.5656 23.4581 12.0898 23.1645 11.7962L21.053 9.68475C20.7593 9.39107 20.2833 9.3912 19.9895 9.68471C19.6959 9.97805 19.696 10.4543 19.9895 10.7477L20.8176 11.5756H15.2698C14.8544 11.5756 14.518 11.9123 14.518 12.3277C14.518 12.7431 14.8544 13.0796 15.2698 13.0796H20.8176V13.0795Z" fill="#EC1313"/>
</svg>
