<svg width="28" height="28" viewBox="0 0 28 28" fill="none" xmlns="http://www.w3.org/2000/svg">
<path d="M22.2066 18.2989C20.8836 17.1806 20.125 15.5461 20.125 13.8145V11.375C20.125 8.29588 17.8378 5.747 14.875 5.32V4.375C14.875 3.89113 14.483 3.5 14 3.5C13.517 3.5 13.125 3.89113 13.125 4.375V5.32C10.1614 5.747 7.875 8.29588 7.875 11.375V13.8145C7.875 15.5461 7.11638 17.1806 5.7855 18.3059C5.44513 18.5972 5.25 19.0208 5.25 19.4688C5.25 20.3131 5.93688 21 6.78125 21H21.2188C22.0631 21 22.75 20.3131 22.75 19.4688C22.75 19.0208 22.5549 18.5972 22.2066 18.2989Z" fill="#EC1313"/>
<path d="M13.9999 24.5C15.5845 24.5 16.9102 23.3704 17.2147 21.875H10.7852C11.0897 23.3704 12.4153 24.5 13.9999 24.5Z" fill="#EC1313"/>
</svg>
