<svg width="150" height="115" viewBox="0 0 150 115" fill="none" xmlns="http://www.w3.org/2000/svg">
<path d="M74.2602 0.00090049C56.4375 -0.13116 42 14.2795 42 31.8589V60.2302C42 61.845 43.3272 63.1541 44.9644 63.1541H73.729C91.5522 63.1541 106.162 48.9139 106.029 31.3349C105.897 14.0875 91.7467 0.13046 74.2602 0.00090049Z" fill="#FEDC33"/>
<path d="M100.734 14.1802C95.3314 35.6554 75.9007 51.5541 52.7574 51.5541C49.063 51.5541 45.4633 51.1482 42 50.3799V60.2301C42 61.8448 43.3271 63.1539 44.9644 63.1539H73.729C91.5522 63.1539 106.162 48.9138 106.029 31.3348C105.98 24.9977 104.038 19.1062 100.734 14.1802Z" fill="#F8D422"/>
<path d="M75.0716 50.0741C64.634 50.0741 56.584 42.5498 56.584 31.5006V31.365C56.584 21.1292 63.8835 12.7236 74.1848 12.7236C85.6457 12.7236 91.4445 21.6715 91.4445 31.9751C91.4445 32.7207 91.3762 33.4664 91.308 34.2798H64.8386C65.7255 40.1095 69.8869 43.3632 75.2081 43.3632C79.2331 43.3632 82.0983 41.8719 84.9635 39.0927L89.8072 43.3632C86.3962 47.4305 81.689 50.0741 75.0716 50.0741ZM64.7704 28.8569H83.258C82.7123 23.5695 79.5742 19.4345 74.1166 19.4345C69.0683 19.4345 65.5208 23.2984 64.7704 28.8569Z" fill="#171717"/>
<path fill-rule="evenodd" clip-rule="evenodd" d="M68.5041 48.9944C70.5327 49.6994 72.7432 50.0742 75.0726 50.0742C81.6899 50.0742 86.3971 47.4305 89.8081 43.3633L85.2721 39.364C80.4231 43.5979 74.741 46.9009 68.5041 48.9944ZM91.4124 32.9516C91.0533 33.4008 90.6865 33.8437 90.3123 34.2799H91.3089C91.3142 34.2169 91.3195 34.1544 91.3247 34.0923C91.3579 33.6998 91.3897 33.3222 91.4124 32.9516Z" fill="#171717"/>
<path d="M32.9434 100.221L38.0384 107.472H43.7669L35.836 96.4497L33.1512 99.9207L32.9434 100.221Z" fill="#171717"/>
<path d="M35.8132 95.0115L43.4197 84.5576H37.8214L33.0475 91.3664L33.2957 91.723L35.8132 95.0115Z" fill="#171717"/>
<path d="M21.4375 107.471L29.8567 95.8408L21.7413 84.5574H27.4698L32.7643 92.1086L35.5418 95.7106L32.6341 99.4428L27.0358 107.471H21.4375Z" fill="#171717"/>
<path d="M11.7608 107.882C5.12093 107.882 0 103.065 0 95.9908V95.904C0 89.3509 4.64356 83.9696 11.1966 83.9696C18.4874 83.9696 22.1762 89.6981 22.1762 96.2945C22.1762 96.7719 22.1328 97.2493 22.0894 97.7701H5.25113C5.8153 101.502 8.46256 103.585 11.8476 103.585C14.408 103.585 16.2308 102.631 18.0535 100.851L21.1347 103.585C18.9648 106.189 15.9704 107.882 11.7608 107.882ZM5.20773 94.2983H16.9685C16.6213 90.9132 14.625 88.266 11.1532 88.266C7.94178 88.266 5.6851 90.7396 5.20773 94.2983Z" fill="#171717"/>
<path d="M46.1023 114.305V84.447H51.3534V88.266C53.0459 85.8791 55.4328 83.9696 59.1216 83.9696C64.5463 83.9696 69.7975 88.266 69.7975 95.8606V95.9474C69.7975 103.542 64.5897 107.838 59.1216 107.838C55.346 107.838 52.9591 105.929 51.3534 103.802V114.305H46.1023ZM57.9065 103.282C61.5085 103.282 64.4595 100.461 64.4595 95.9474V95.8606C64.4595 91.434 61.4651 88.5264 57.9065 88.5264C54.3479 88.5264 51.2232 91.4774 51.2232 95.8606V95.9474C51.2232 100.374 54.3479 103.282 57.9065 103.282Z" fill="#171717"/>
<path d="M83.0738 107.882C76.4339 107.882 71.313 103.065 71.313 95.9908V95.904C71.313 89.3509 75.9565 83.9696 82.5096 83.9696C89.8004 83.9696 93.4892 89.6981 93.4892 96.2945C93.4892 96.7719 93.4458 97.2493 93.4024 97.7701H76.5641C77.1283 101.502 79.7755 103.585 83.1606 103.585C85.721 103.585 87.5437 102.631 89.3664 100.851L92.4477 103.585C90.2778 106.189 87.2833 107.882 83.0738 107.882ZM76.5207 94.2983H88.2815C87.9343 90.9132 85.938 88.266 82.4662 88.266C79.2548 88.266 76.9981 90.7396 76.5207 94.2983Z" fill="#171717"/>
<path d="M96.1589 107.361V84.447H101.41V89.6113C102.842 86.1829 105.489 83.8394 109.525 84.013V89.5679H109.222C104.621 89.5679 101.41 92.5623 101.41 98.638V107.361H96.1589Z" fill="#171717"/>
<path d="M120.899 107.752C117.037 107.752 114.303 106.059 114.303 101.025V88.9603H111.395V84.447H114.303V78.1543H119.554V84.447H125.716V88.9603H119.554V100.2C119.554 102.24 120.596 103.065 122.375 103.065C123.547 103.065 124.588 102.804 125.63 102.283V106.58C124.328 107.318 122.852 107.752 120.899 107.752Z" fill="#171717"/>
<path d="M149.375 107.361H144.167V104.54C142.605 106.406 140.218 107.838 136.746 107.838C132.406 107.838 128.587 105.365 128.587 100.765V100.678C128.587 95.6002 132.537 93.1699 137.875 93.1699C140.652 93.1699 142.431 93.5605 144.211 94.1247V93.6907C144.211 90.5227 142.214 88.7867 138.569 88.7867C136.008 88.7867 134.099 89.3509 132.016 90.2189L130.584 86.0093C133.101 84.8809 135.575 84.0998 139.307 84.0998C146.077 84.0998 149.375 87.6584 149.375 93.7775V107.361ZM144.297 99.072V97.7701C142.952 97.2493 141.086 96.8587 139.046 96.8587C135.748 96.8587 133.795 98.204 133.795 100.417V100.504C133.795 102.674 135.748 103.889 138.222 103.889C141.694 103.889 144.297 101.936 144.297 99.072Z" fill="#171717"/>
</svg>
