<svg width="15" height="15" viewBox="0 0 15 15" fill="none" xmlns="http://www.w3.org/2000/svg">
<g clip-path="url(#clip0_7783_6100)">
<path fill-rule="evenodd" clip-rule="evenodd" d="M1.85467 6.74962C1.77073 6.59939 1.79678 6.41172 1.91846 6.29004L6.26986 1.93863C6.39154 1.81696 6.57923 1.79092 6.72945 1.87485L11.661 4.63076C11.8067 4.71217 11.8833 4.87826 11.8505 5.04195L10.7627 10.4812C10.7474 10.5573 10.7101 10.6251 10.6575 10.6777C10.6049 10.7303 10.5371 10.7677 10.461 10.7829L5.0217 11.8708C4.85804 11.9035 4.69194 11.8269 4.61051 11.6812L1.85467 6.74962Z" fill="url(#paint0_linear_7783_6100)"/>
<path fill-rule="evenodd" clip-rule="evenodd" d="M1.85467 6.74962C1.77073 6.59939 1.79678 6.41172 1.91846 6.29004L6.26986 1.93863C6.39154 1.81696 6.57923 1.79092 6.72945 1.87485L11.661 4.63076C11.8067 4.71217 11.8833 4.87826 11.8505 5.04195L10.7627 10.4812C10.7474 10.5573 10.7101 10.6251 10.6575 10.6777C10.6049 10.7303 10.5371 10.7677 10.461 10.7829L5.0217 11.8708C4.85804 11.9035 4.69194 11.8269 4.61051 11.6812L1.85467 6.74962ZM6.537 3.84712C6.65884 3.72528 6.84688 3.69934 6.99715 3.78365L9.93255 5.43046C10.0779 5.51201 10.1542 5.67791 10.1215 5.84132L9.45519 9.17366C9.43997 9.2498 9.40261 9.31762 9.35001 9.37022C9.29741 9.42282 9.22958 9.46019 9.15345 9.4754L5.82111 10.1417C5.65768 10.1744 5.49178 10.0981 5.41024 9.95277L3.76345 7.01734C3.67914 6.86707 3.70509 6.67904 3.82693 6.5572L6.537 3.84712Z" fill="url(#paint1_linear_7783_6100)"/>
</g>
<defs>
<linearGradient id="paint0_linear_7783_6100" x1="4.09413" y1="4.11437" x2="11.9796" y2="11.9999" gradientUnits="userSpaceOnUse">
<stop offset="0.32" stop-color="white"/>
<stop offset="0.635" stop-color="#FEDC33"/>
</linearGradient>
<linearGradient id="paint1_linear_7783_6100" x1="4.09413" y1="4.11437" x2="10.6575" y2="10.6777" gradientUnits="userSpaceOnUse">
<stop stop-color="#FEDC33"/>
<stop offset="1" stop-color="white"/>
</linearGradient>
<clipPath id="clip0_7783_6100">
<rect width="10" height="10" fill="white" transform="translate(0.263672 7.35522) rotate(-45)"/>
</clipPath>
</defs>
</svg>
