<svg width="28" height="28" viewBox="0 0 28 28" fill="none" xmlns="http://www.w3.org/2000/svg">
<path d="M11.7176 12.6304C14.2389 12.6304 16.2828 10.5865 16.2828 8.06522C16.2828 5.54392 14.2389 3.5 11.7176 3.5C9.19626 3.5 7.15234 5.54392 7.15234 8.06522C7.15234 10.5865 9.19626 12.6304 11.7176 12.6304Z" fill="#171717"/>
<path d="M17.0083 14.7284C16.5373 14.5527 16.0279 14.4565 15.4964 14.4565H7.83696C5.4457 14.4565 3.5 16.4022 3.5 18.7935V21.9892C3.5 22.3672 3.80678 22.6739 4.18478 22.6739H14.7372C14.2676 21.8333 14 20.8646 14 19.8333C14 17.6365 15.2143 15.7233 17.0083 14.7284Z" fill="#171717"/>
<path d="M19.8337 15.1665C17.2581 15.1665 15.167 17.2576 15.167 19.8332C15.167 22.4087 17.2581 24.4998 19.8337 24.4998C22.4092 24.4998 24.5003 22.4135 24.5003 19.8332C24.5003 17.2528 22.414 15.1665 19.8337 15.1665ZM22.7114 18.8356L19.5171 22.0298C19.1862 22.3607 18.649 22.3607 18.3181 22.0298L16.956 20.6677C16.625 20.3368 16.625 19.7996 16.956 19.4687C17.2869 19.1377 17.8241 19.1377 18.155 19.4687L18.9176 20.2313L21.5075 17.6365C21.8385 17.3056 22.3756 17.3056 22.7066 17.6365C23.0423 17.9675 23.0423 18.5046 22.7114 18.8356Z" fill="#171717"/>
</svg>
