<svg width="24" height="24" viewBox="0 0 24 24" fill="none" xmlns="http://www.w3.org/2000/svg">
<path fill-rule="evenodd" clip-rule="evenodd" d="M2.66667 24H21.3333C22.8061 24 24 22.8061 24 21.3333V2.66667C24 1.19391 22.8061 0 21.3333 0H2.66667C1.19391 0 0 1.19391 0 2.66667V21.3333C0 22.8061 1.19391 24 2.66667 24Z" fill="#171717"/>
<path fill-rule="evenodd" clip-rule="evenodd" d="M20.6663 20.6666H17.1049V14.6007C17.1049 12.9376 16.4729 12.0082 15.1566 12.0082C13.7245 12.0082 12.9764 12.9754 12.9764 14.6007V20.6666H9.54412V9.11109H12.9764V10.6676C12.9764 10.6676 14.0084 8.75805 16.4605 8.75805C18.9116 8.75805 20.6663 10.2548 20.6663 13.3504V20.6666ZM5.44946 7.59798C4.28036 7.59798 3.33301 6.6432 3.33301 5.46565C3.33301 4.2881 4.28036 3.33331 5.44946 3.33331C6.61855 3.33331 7.56534 4.2881 7.56534 5.46565C7.56534 6.6432 6.61855 7.59798 5.44946 7.59798ZM3.67719 20.6666H7.25614V9.11109H3.67719V20.6666Z" fill="white"/>
</svg>
