<svg width="297" height="258" viewBox="0 0 297 258" fill="none" xmlns="http://www.w3.org/2000/svg">
<path d="M203.474 91.876L210.764 104.503L259.166 76.5576C261.491 75.2151 261.744 71.3035 259.73 67.8143C257.716 64.3272 254.201 62.5884 251.876 63.931L203.474 91.876Z" fill="#C7CDD7"/>
<path d="M149.799 86.3877L169.791 74.8452C187.805 64.4448 210.842 70.6175 221.242 88.6315L222.457 90.736C232.858 108.75 226.685 131.787 208.671 142.187L188.679 153.73L149.799 86.3877Z" fill="#FEDC33"/>
<path d="M147.694 87.6034C155.83 82.9062 171.128 94.1725 181.865 112.769C192.602 131.366 194.71 150.248 186.574 154.946C178.438 159.643 163.14 148.376 152.403 129.779C141.666 111.183 139.558 92.3006 147.694 87.6034Z" fill="#E1E4E7"/>
<path d="M151.34 93.9162C157.15 90.5616 168.933 100.089 177.657 115.199C186.38 130.309 188.74 145.277 182.93 148.632C177.119 151.986 165.336 142.459 156.612 127.349C147.889 112.239 145.529 97.2708 151.34 93.9162Z" fill="#C7CDD7"/>
<path d="M156.524 107.759L160.733 105.329C161.895 104.658 163.382 105.056 164.053 106.218C164.723 107.38 164.325 108.867 163.163 109.538L158.954 111.968C157.793 112.638 156.306 112.24 155.635 111.078C154.964 109.916 155.363 108.429 156.524 107.759Z" fill="#525B6C"/>
<path d="M171.104 133.011L175.313 130.581C176.475 129.91 177.962 130.308 178.633 131.47C179.303 132.632 178.905 134.119 177.743 134.789L173.534 137.219C172.373 137.89 170.886 137.492 170.215 136.33C169.544 135.168 169.943 133.681 171.104 133.011Z" fill="#525B6C"/>
<path d="M140.504 150.196C139.34 150.868 138.944 152.354 139.614 153.516C140.286 154.679 141.77 155.077 142.934 154.405L170.292 138.61C171.453 137.939 171.853 136.454 171.181 135.291C170.51 134.129 169.023 133.73 167.862 134.401L140.504 150.196Z" fill="#C7CDD7"/>
<path d="M125.924 124.943C124.76 125.615 124.364 127.101 125.034 128.263C125.705 129.424 127.19 129.824 128.354 129.152L155.712 113.357C156.873 112.686 157.272 111.199 156.601 110.038C155.93 108.876 154.443 108.478 153.282 109.148L125.924 124.943Z" fill="#C7CDD7"/>
<path d="M90.9968 120.337L113.093 107.58C121.229 102.883 136.528 114.149 147.265 132.746C158.001 151.343 160.109 170.225 151.973 174.922L129.877 187.68C111.861 198.081 88.827 191.909 78.4254 173.893L77.2104 171.789C66.8088 153.773 72.9807 130.739 90.9968 120.337Z" fill="#FEDC33"/>
<path d="M40.4997 185.969C38.1764 187.31 37.9247 191.224 39.938 194.711C41.9524 198.2 45.4664 199.937 47.7897 198.595L87.7741 175.51C90.1017 174.167 90.3534 170.253 88.3401 166.766C86.3269 163.279 82.8117 161.54 80.4841 162.884L40.4997 185.969Z" fill="#C7CDD7"/>
<path d="M41.7167 188.072C42.8784 187.401 44.9086 188.741 46.2512 191.066C47.5938 193.391 47.7384 195.819 46.5767 196.49C45.4151 197.161 43.3849 195.821 42.0423 193.496C40.6997 191.171 40.5551 188.743 41.7167 188.072Z" fill="#525B6C"/>
<path d="M177.793 58.5797C177.703 58.4109 177.572 58.2663 177.413 58.1603C177.254 58.0544 177.071 57.9896 176.881 57.9723L168.026 57.1109L167.321 46.323C167.305 46.0735 167.209 45.8368 167.048 45.6453C166.885 45.4541 166.667 45.3197 166.423 45.2629C166.178 45.2053 165.919 45.2301 165.691 45.3355C165.462 45.4402 165.274 45.6187 165.156 45.8419L154.002 66.7978C153.909 66.9652 153.86 67.1521 153.859 67.3427C153.858 67.5335 153.905 67.7233 153.996 67.8919C154.087 68.059 154.218 68.2025 154.377 68.3084C154.536 68.4143 154.718 68.4806 154.908 68.5015L163.763 69.3618L164.467 80.1475C164.483 80.397 164.579 80.6348 164.741 80.8263C164.903 81.0175 165.121 81.1519 165.366 81.2098C165.547 81.2474 165.735 81.2426 165.916 81.1966C166.068 81.157 166.209 81.0867 166.333 80.9889C166.457 80.8923 166.558 80.7704 166.633 80.632L177.787 59.676C177.88 59.5086 177.928 59.3195 177.929 59.1278C177.93 58.9369 177.883 58.7483 177.793 58.5797Z" fill="#FFD900"/>
<path d="M177.793 58.5797C177.703 58.4109 177.572 58.2663 177.413 58.1603C177.254 58.0544 177.071 57.9896 176.881 57.9723L168.026 57.1109L167.321 46.323C167.305 46.0735 167.209 45.8368 167.048 45.6453C166.885 45.4541 166.667 45.3197 166.423 45.2629C166.178 45.2053 165.919 45.2301 165.691 45.3355C165.462 45.4402 165.274 45.6187 165.156 45.8419L154.002 66.7978C153.909 66.9652 153.86 67.1521 153.859 67.3427C153.858 67.5335 153.905 67.7233 153.996 67.8919C154.087 68.059 154.218 68.2025 154.377 68.3084C154.536 68.4143 154.718 68.4806 154.908 68.5015L163.763 69.3618L164.467 80.1475C164.483 80.397 164.579 80.6348 164.741 80.8263C164.903 81.0175 165.121 81.1519 165.366 81.2098C165.547 81.2474 165.735 81.2426 165.916 81.1966C166.068 81.157 166.209 81.0867 166.333 80.9889C166.457 80.8923 166.558 80.7704 166.633 80.632L177.787 59.676C177.88 59.5086 177.928 59.3195 177.929 59.1278C177.93 58.9369 177.883 58.7483 177.793 58.5797Z" fill="#171717"/>
<path d="M78.1535 86.9739C78.0313 87.0207 77.922 87.0976 77.8367 87.1969C77.7515 87.2961 77.6921 87.4149 77.6645 87.5428L76.3397 93.491L68.9466 93.0695C68.7756 93.0599 68.6067 93.1053 68.4631 93.1991C68.3195 93.2937 68.2099 93.4308 68.1509 93.5919C68.0913 93.7539 68.0866 93.9315 68.1393 94.0953C68.1912 94.2601 68.2969 94.4029 68.4388 94.5014L81.7547 103.834C81.8608 103.911 81.9837 103.96 82.1132 103.976C82.2429 103.993 82.3758 103.977 82.498 103.93C82.6193 103.881 82.7277 103.804 82.813 103.705C82.8983 103.606 82.9585 103.488 82.9886 103.36L84.3126 97.4123L91.7041 97.834C91.8751 97.8436 92.0448 97.7981 92.1884 97.7043C92.332 97.6097 92.4416 97.4727 92.5014 97.3114C92.5421 97.1912 92.5545 97.0631 92.5383 96.9365C92.5241 96.8296 92.4881 96.7275 92.4319 96.6353C92.3766 96.5431 92.3022 96.4639 92.2143 96.4018L78.8984 87.0693C78.7923 86.9921 78.6678 86.9432 78.5375 86.9271C78.4079 86.9101 78.2757 86.9263 78.1535 86.9739Z" fill="#FFD900"/>
<path d="M78.1535 86.9739C78.0313 87.0207 77.922 87.0976 77.8367 87.1969C77.7515 87.2961 77.6921 87.4149 77.6645 87.5428L76.3397 93.491L68.9466 93.0695C68.7756 93.0599 68.6067 93.1053 68.4631 93.1991C68.3195 93.2937 68.2099 93.4308 68.1509 93.5919C68.0913 93.7539 68.0866 93.9315 68.1393 94.0953C68.1912 94.2601 68.2969 94.4029 68.4388 94.5014L81.7547 103.834C81.8608 103.911 81.9837 103.96 82.1132 103.976C82.2429 103.993 82.3758 103.977 82.498 103.93C82.6193 103.881 82.7277 103.804 82.813 103.705C82.8983 103.606 82.9585 103.488 82.9886 103.36L84.3126 97.4123L91.7041 97.834C91.8751 97.8436 92.0448 97.7981 92.1884 97.7043C92.332 97.6097 92.4416 97.4727 92.5014 97.3114C92.5421 97.1912 92.5545 97.0631 92.5383 96.9365C92.5241 96.8296 92.4881 96.7275 92.4319 96.6353C92.3766 96.5431 92.3022 96.4639 92.2143 96.4018L78.8984 87.0693C78.7923 86.9921 78.6678 86.9432 78.5375 86.9271C78.4079 86.9101 78.2757 86.9263 78.1535 86.9739Z" fill="#171717"/>
<path d="M182.969 174.546C182.844 174.402 182.684 174.29 182.505 174.223C182.327 174.156 182.134 174.133 181.945 174.159L173.123 175.312L170.01 164.959C169.937 164.72 169.791 164.511 169.59 164.36C169.389 164.211 169.146 164.129 168.896 164.128C168.644 164.127 168.398 164.21 168.199 164.364C167.999 164.517 167.856 164.734 167.792 164.977L161.637 187.905C161.585 188.089 161.578 188.283 161.621 188.468C161.662 188.655 161.751 188.829 161.877 188.973C162.004 189.115 162.164 189.226 162.342 189.293C162.521 189.36 162.713 189.384 162.903 189.362L171.724 188.208L174.837 198.559C174.909 198.798 175.056 199.008 175.256 199.159C175.458 199.308 175.701 199.39 175.952 199.392C176.137 199.388 176.319 199.341 176.484 199.255C176.624 199.182 176.746 199.082 176.845 198.959C176.943 198.837 177.015 198.695 177.056 198.544L183.21 175.616C183.263 175.432 183.268 175.236 183.225 175.05C183.184 174.863 183.096 174.69 182.969 174.546Z" fill="#FFD900"/>
<path d="M182.969 174.546C182.844 174.402 182.684 174.29 182.505 174.223C182.327 174.156 182.134 174.133 181.945 174.159L173.123 175.312L170.01 164.959C169.937 164.72 169.791 164.511 169.59 164.36C169.389 164.211 169.146 164.129 168.896 164.128C168.644 164.127 168.398 164.21 168.199 164.364C167.999 164.517 167.856 164.734 167.792 164.977L161.637 187.905C161.585 188.089 161.578 188.283 161.621 188.468C161.662 188.655 161.751 188.829 161.877 188.973C162.004 189.115 162.164 189.226 162.342 189.293C162.521 189.36 162.713 189.384 162.903 189.362L171.724 188.208L174.837 198.559C174.909 198.798 175.056 199.008 175.256 199.159C175.458 199.308 175.701 199.39 175.952 199.392C176.137 199.388 176.319 199.341 176.484 199.255C176.624 199.182 176.746 199.082 176.845 198.959C176.943 198.837 177.015 198.695 177.056 198.544L183.21 175.616C183.263 175.432 183.268 175.236 183.225 175.05C183.184 174.863 183.096 174.69 182.969 174.546Z" fill="#171717"/>
<path d="M227.923 139.229C227.801 139.276 227.692 139.353 227.606 139.452C227.521 139.551 227.462 139.67 227.434 139.798L226.109 145.746L218.716 145.324C218.545 145.315 218.376 145.36 218.233 145.454C218.089 145.549 217.979 145.686 217.92 145.847C217.861 146.009 217.856 146.186 217.909 146.35C217.961 146.515 218.066 146.658 218.208 146.756L231.524 156.089C231.63 156.166 231.753 156.215 231.883 156.231C232.012 156.248 232.145 156.232 232.268 156.184C232.389 156.136 232.497 156.059 232.583 155.96C232.668 155.861 232.728 155.743 232.758 155.615L234.082 149.667L241.474 150.089C241.645 150.098 241.814 150.053 241.958 149.959C242.102 149.865 242.211 149.728 242.271 149.566C242.312 149.446 242.324 149.318 242.308 149.191C242.294 149.085 242.258 148.982 242.201 148.89C242.146 148.798 242.072 148.719 241.984 148.657L228.668 139.324C228.562 139.247 228.437 139.198 228.307 139.182C228.177 139.165 228.045 139.181 227.923 139.229Z" fill="#FFD900"/>
<path d="M227.923 139.229C227.801 139.276 227.692 139.353 227.606 139.452C227.521 139.551 227.462 139.67 227.434 139.798L226.109 145.746L218.716 145.324C218.545 145.315 218.376 145.36 218.233 145.454C218.089 145.549 217.979 145.686 217.92 145.847C217.861 146.009 217.856 146.186 217.909 146.35C217.961 146.515 218.066 146.658 218.208 146.756L231.524 156.089C231.63 156.166 231.753 156.215 231.883 156.231C232.012 156.248 232.145 156.232 232.268 156.184C232.389 156.136 232.497 156.059 232.583 155.96C232.668 155.861 232.728 155.743 232.758 155.615L234.082 149.667L241.474 150.089C241.645 150.098 241.814 150.053 241.958 149.959C242.102 149.865 242.211 149.728 242.271 149.566C242.312 149.446 242.324 149.318 242.308 149.191C242.294 149.085 242.258 148.982 242.201 148.89C242.146 148.798 242.072 148.719 241.984 148.657L228.668 139.324C228.562 139.247 228.437 139.198 228.307 139.182C228.177 139.165 228.045 139.181 227.923 139.229Z" fill="#171717"/>
</svg>
