<svg width="16" height="16" viewBox="0 0 16 16" fill="none" xmlns="http://www.w3.org/2000/svg">
<path d="M15.3297 8.95183C15.7307 8.80856 16 8.42569 16 8C16 7.57431 15.7307 7.19144 15.3314 7.04817L13.4951 6.38617C11.682 5.73322 10.2673 4.31783 9.6135 2.50473L8.95147 0.668588C8.80737 0.269247 8.4253 0 8.00124 0C7.57635 0 7.19345 0.268423 7.04853 0.668588L6.38732 2.50473C5.73352 4.31865 4.31887 5.73322 2.50486 6.38617L0.670269 7.04817C0.269261 7.19226 0 7.57431 0 8C0 8.42569 0.269261 8.80774 0.668623 8.95183L2.50486 9.61383C4.31805 10.2668 5.7327 11.6814 6.3865 13.4953L7.04853 15.3322C7.19263 15.7316 7.57552 16 8.00041 16C8.4253 16 8.80819 15.7308 8.95147 15.3314L9.6135 13.4953C10.2665 11.6822 11.682 10.2676 13.4951 9.61383L15.3297 8.95183Z" fill="#FE7733"/>
</svg>
