<svg width="22" height="22" viewBox="0 0 22 22" fill="none" xmlns="http://www.w3.org/2000/svg">
<path d="M17.8879 2.59995H17.2159V1.59195C17.2159 1.08795 16.8799 0.751953 16.3759 0.751953C15.8719 0.751953 15.5359 1.08795 15.5359 1.59195V2.59995H13.6039V1.59195C13.6039 1.08795 13.2679 0.751953 12.7639 0.751953C12.2599 0.751953 11.9239 1.08795 11.9239 1.59195V2.59995H9.99192V1.59195C9.99192 1.08795 9.65592 0.751953 9.15192 0.751953C8.64792 0.751953 8.31192 1.08795 8.31192 1.59195V2.59995H6.46392V1.59195C6.46392 1.08795 6.12792 0.751953 5.62392 0.751953C5.11992 0.751953 4.78392 1.08795 4.78392 1.59195V2.59995H4.11192C2.34792 2.59995 0.919922 4.02795 0.919922 5.79195V18.056C0.919922 19.82 2.34792 21.248 4.11192 21.248H17.8879C19.6519 21.248 21.0799 19.82 21.0799 18.056V5.79195C21.0799 5.11995 20.9119 4.53195 20.4919 4.02795C19.9879 3.10395 18.9799 2.59995 17.8879 2.59995ZM19.3999 18.056C19.3999 18.896 18.7279 19.568 17.8879 19.568H4.11192C3.27192 19.568 2.59992 18.896 2.59992 18.056V8.31195H19.3999V18.056Z" fill="#FEDC33"/>
<path d="M5.03591 13.1839H7.21991C7.47191 13.1839 7.72391 12.9319 7.72391 12.6799V10.4959C7.72391 10.2439 7.47191 9.99194 7.21991 9.99194H5.03591C4.78391 9.99194 4.53191 10.2439 4.53191 10.4959V12.6799C4.44791 12.9319 4.69991 13.1839 5.03591 13.1839Z" fill="#FEDC33"/>
<path d="M9.9083 13.1839H12.0923C12.3443 13.1839 12.5963 12.9319 12.5963 12.6799V10.4959C12.5963 10.2439 12.3443 9.99194 12.0923 9.99194H9.9083C9.6563 9.99194 9.4043 10.2439 9.4043 10.4959V12.6799C9.4043 12.9319 9.6563 13.1839 9.9083 13.1839Z" fill="#FEDC33"/>
<path d="M14.7794 13.1838H16.9634C17.2154 13.1838 17.4674 12.9318 17.4674 12.6798V10.4958C17.4674 10.2438 17.2154 9.99182 16.9634 9.99182H14.7794C14.5274 9.99182 14.2754 10.2438 14.2754 10.4958V12.6798C14.2754 12.9318 14.5274 13.1838 14.7794 13.1838Z" fill="#FEDC33"/>
<path d="M5.03591 18.14H7.21991C7.47191 18.14 7.72391 17.888 7.72391 17.636V15.452C7.72391 15.2 7.47191 14.948 7.21991 14.948H5.03591C4.78391 14.948 4.53191 15.2 4.53191 15.452V17.636C4.44791 17.888 4.69991 18.14 5.03591 18.14Z" fill="#FEDC33"/>
<path d="M9.9083 18.14H12.0923C12.3443 18.14 12.5963 17.888 12.5963 17.636V15.452C12.5963 15.2 12.3443 14.948 12.0923 14.948H9.9083C9.6563 14.948 9.4043 15.2 9.4043 15.452V17.636C9.4043 17.888 9.6563 18.14 9.9083 18.14Z" fill="#FEDC33"/>
<path d="M14.7794 18.1399H16.9634C17.2154 18.1399 17.4674 17.8879 17.4674 17.6359V15.4519C17.4674 15.1999 17.2154 14.9479 16.9634 14.9479H14.7794C14.5274 14.9479 14.2754 15.1999 14.2754 15.4519V17.6359C14.2754 17.8879 14.5274 18.1399 14.7794 18.1399Z" fill="#FEDC33"/>
</svg>
