<svg width="22" height="22" viewBox="0 0 22 22" fill="none" xmlns="http://www.w3.org/2000/svg">
<path d="M21.0544 16.7611C20.7697 16.4432 19.8945 15.6508 19.2677 15.1787C18.6525 14.6951 17.6447 14.0409 17.2522 13.8383C16.6112 13.5048 15.6452 13.5422 15.0452 13.9454C14.552 14.2885 14.0953 14.6813 13.6822 15.1176L13.6732 15.127C13.4476 15.3654 13.1446 15.5159 12.8183 15.5515C12.492 15.5872 12.1637 15.5058 11.8919 15.3218C10.8698 14.6249 9.91596 13.8329 9.04295 12.9565C8.1665 12.0835 7.37452 11.1296 6.67758 10.1075C6.4936 9.83571 6.41219 9.50736 6.44787 9.18109C6.48356 8.85481 6.63402 8.55183 6.8724 8.32621L6.88183 8.31719C7.3181 7.9041 7.7109 7.4474 8.05406 6.95424C8.45724 6.35418 8.49457 5.38826 8.16111 4.74719C7.95849 4.35508 7.30429 3.34855 6.82072 2.73168C6.34822 2.10496 5.55621 1.22969 5.23834 0.945039C4.71949 0.477461 3.84299 0.355645 3.23144 0.688692C2.71776 0.980429 2.23654 1.32594 1.7959 1.71941L1.74955 1.76043C-0.954201 4.08643 0.825877 10.5788 6.12715 15.8698C11.421 21.1719 17.9118 22.9532 20.2378 20.2495L20.2788 20.2031C20.6724 19.7626 21.0179 19.2813 21.3095 18.7676C21.6438 18.1564 21.522 17.2799 21.0544 16.7611Z" fill="#64C361"/>
</svg>
