<svg width="24" height="24" viewBox="0 0 24 24" fill="none" xmlns="http://www.w3.org/2000/svg">
<path d="M20.4837 3.5141C18.8055 1.83608 16.6675 0.693378 14.3399 0.23048C12.0122 -0.232418 9.59964 0.00528034 7.40711 0.913519C5.21459 1.82176 3.34062 3.35974 2.02217 5.333C0.703719 7.30626 0 9.62616 0 11.9994C0 14.3726 0.703719 16.6925 2.02217 18.6657C3.34062 20.639 5.21459 22.177 7.40711 23.0852C9.59964 23.9934 12.0122 24.2311 14.3399 23.7682C16.6675 23.3053 18.8055 22.1626 20.4837 20.4846C21.5981 19.3703 22.4821 18.0475 23.0852 16.5916C23.6883 15.1357 23.9987 13.5752 23.9987 11.9994C23.9987 10.4235 23.6883 8.86303 23.0852 7.40712C22.4821 5.95121 21.5981 4.62836 20.4837 3.5141ZM16.284 15.0335C16.3696 15.1136 16.4379 15.2105 16.4845 15.3182C16.5312 15.4258 16.5553 15.5419 16.5553 15.6592C16.5553 15.7765 16.5312 15.8925 16.4845 16.0001C16.4379 16.1078 16.3696 16.2047 16.284 16.2848C16.2039 16.3643 16.1089 16.4271 16.0045 16.4698C15.9 16.5124 15.7882 16.534 15.6754 16.5334C15.4506 16.5324 15.2351 16.4432 15.0755 16.2848L11.9985 13.2079L8.96436 16.2848C8.80472 16.4432 8.58924 16.5324 8.36439 16.5334C8.2516 16.534 8.13978 16.5124 8.03535 16.4698C7.93092 16.4271 7.83594 16.3643 7.75586 16.2848C7.59622 16.1242 7.50662 15.907 7.50662 15.6806C7.50662 15.4542 7.59622 15.2369 7.75586 15.0763L10.79 11.9994L7.75586 8.96523C7.61544 8.80127 7.54207 8.59036 7.5504 8.37465C7.55873 8.15894 7.64816 7.95432 7.8008 7.80167C7.95344 7.64903 8.15807 7.5596 8.37378 7.55127C8.58949 7.54294 8.8004 7.61631 8.96436 7.75673L11.9985 10.7908L15.0326 7.75673C15.112 7.67456 15.2067 7.60883 15.3115 7.56329C15.4162 7.51774 15.5289 7.49328 15.6431 7.49129C15.7573 7.4893 15.8708 7.50982 15.9771 7.55169C16.0834 7.59356 16.1804 7.65595 16.2625 7.7353C16.3447 7.81465 16.4104 7.90941 16.456 8.01416C16.5015 8.11892 16.526 8.23162 16.528 8.34583C16.53 8.46004 16.5094 8.57352 16.4676 8.6798C16.4257 8.78608 16.3633 8.88307 16.284 8.96523L13.207 11.9994L16.284 15.0335Z" fill="#95A4B7"/>
</svg>
