<svg width="16" height="16" viewBox="0 0 16 16" fill="none" xmlns="http://www.w3.org/2000/svg">
<path d="M10.5659 3.19838H13.2598L12.3134 4.67938H10.6027C10.5216 5.34063 10.3083 5.91032 9.9855 6.39558C9.15442 7.64576 7.5983 8.33737 5.70345 8.59862L11.3819 15.8409H8.92782L3.44628 8.84925V7.48578C3.91318 7.47616 4.36071 7.45833 4.78334 7.42507C6.97265 7.25256 8.49205 6.66695 8.56275 4.67938H2.94922L3.44628 3.87697L3.8797 3.19838H8.33323C7.9054 2.1776 6.91087 1.78581 5.57811 1.64026C5.36326 1.61662 5.13999 1.59978 4.9086 1.58776C4.31968 1.55591 3.67993 1.5555 3.00475 1.55981L3.89997 0.15918H13.2801L12.334 1.64017H9.92754C10.2408 2.08455 10.4599 2.60166 10.5659 3.1983V3.19838Z" fill="#FEDC33"/>
<path d="M11.7769 16H8.92402L3.36157 8.90513V7.32975L3.51399 7.3266C4.02702 7.31598 4.46149 7.29633 4.84222 7.2663C7.28018 7.07422 8.34605 6.36669 8.46855 4.83842H2.7373L3.38573 3.79168L3.86633 3.03912H8.15261C7.7517 2.3296 6.96091 1.94345 5.63236 1.79831C5.42959 1.77608 5.21345 1.75908 4.97161 1.74647C4.36226 1.71363 3.70135 1.71479 3.0766 1.71877L2.78684 1.7206L3.8866 0H13.6384L12.489 1.7993H10.2879C10.5112 2.17542 10.6709 2.59093 10.7646 3.0392H13.6182L12.4683 4.83851H10.8087C10.7152 5.44942 10.5057 6.00277 10.185 6.48504C9.42246 7.63214 8.0014 8.40038 6.06553 8.71562L11.7769 16ZM9.07328 15.6818H11.1285L5.48067 8.4785L5.75348 8.44093C7.73775 8.16741 9.1811 7.42919 9.92771 6.30615C10.2447 5.82943 10.4437 5.2755 10.5191 4.65961L10.5362 4.52028H12.3L13.043 3.35751H10.5068L10.4836 3.22681C10.385 2.6713 10.1793 2.16879 9.87217 1.73329L9.6943 1.48108H12.3207L13.0634 0.31831H4.05499L3.36425 1.39905C3.90541 1.39698 4.46417 1.40046 4.98774 1.42874C5.23526 1.44168 5.45708 1.4591 5.66552 1.48199C7.25164 1.65524 8.14036 2.16522 8.54703 3.13574L8.64002 3.3576H4.03464L3.64727 3.96403L3.30271 4.52028H8.79479L8.78887 4.68524C8.70747 6.97345 6.76017 7.4345 4.86605 7.58378C4.51776 7.61124 4.12617 7.63015 3.67265 7.64142V8.79333L9.07328 15.6819V15.6818Z" fill="#FEDC33"/>
<path d="M11.7066 16H8.85371L3.29126 8.90513V7.32975L3.44368 7.3266C3.95671 7.31598 4.39118 7.29633 4.7719 7.2663C7.20986 7.07422 8.27574 6.36669 8.39824 4.83842H2.66699L3.31542 3.79168L3.79602 3.03912H8.08229C7.68139 2.3296 6.8906 1.94345 5.56204 1.79831C5.35928 1.77608 5.14314 1.75908 4.9013 1.74647C4.29195 1.71363 3.63104 1.71479 3.00628 1.71877L2.71653 1.7206L3.81637 0H13.5681L12.4188 1.7993H10.2177C10.441 2.17542 10.6007 2.59093 10.6943 3.0392H13.5479L12.3981 4.83851H10.7384C10.6449 5.44942 10.4355 6.00277 10.1147 6.48504C9.35223 7.63214 7.93117 8.40038 5.9953 8.71562L11.7067 16H11.7066ZM9.00296 15.6818H11.0582L5.41044 8.4785L5.68325 8.44093C7.66752 8.16741 9.11087 7.42919 9.85748 6.30615C10.1745 5.82943 10.3734 5.2755 10.4489 4.65961L10.466 4.52028H12.2298L12.9728 3.35751H10.4366L10.4134 3.22681C10.3147 2.6713 10.109 2.16879 9.80194 1.73329L9.62407 1.48108H12.2504L12.9932 0.31831H3.98468L3.29393 1.39905C3.8351 1.39698 4.39386 1.40046 4.91743 1.42874C5.16495 1.44168 5.38676 1.4591 5.5952 1.48199C7.18132 1.65524 8.07005 2.16522 8.47672 3.13574L8.56971 3.3576H3.96441L3.57704 3.96403L3.23248 4.52028H8.72456L8.71864 4.68524C8.63724 6.97345 6.68994 7.4345 4.79582 7.58378C4.44753 7.61124 4.05594 7.63015 3.60242 7.64142V8.79333L9.00305 15.6819L9.00296 15.6818Z" fill="#FEDC33"/>
</svg>
