<svg width="14" height="18" viewBox="0 0 14 18" fill="none" xmlns="http://www.w3.org/2000/svg">
<path d="M7.7695 17.0008C10.9975 16.6392 13.5845 14.0588 13.9527 10.8308C14.4359 6.61003 11.1553 3.01715 7.04303 2.97113V1.07772C7.04303 0.972527 6.91154 0.916645 6.82279 0.982388L2.9242 3.84552C2.85846 3.89483 2.85846 3.99015 2.9242 4.03946L6.82279 6.90259C6.91154 6.96833 7.04303 6.90916 7.04303 6.80726V4.91714C9.93246 4.96316 12.2466 7.42196 12.0494 10.3607C11.8818 12.8885 9.82069 14.9397 7.29286 15.1008C4.61381 15.2717 2.3358 13.3586 1.92819 10.8275C1.85258 10.3574 1.44168 10.0155 0.968331 10.0155C0.379927 10.0155 -0.0802778 10.5382 0.0117631 11.12C0.583732 14.7261 3.91364 17.4314 7.7695 17.0008Z" fill="black"/>
</svg>
