<svg width="22" height="16" viewBox="0 0 22 16" fill="none" xmlns="http://www.w3.org/2000/svg">
<path d="M21.0429 0.933441C20.9414 0.894448 20.8437 0.874869 20.7499 0.874869C20.5389 0.874869 20.3633 0.949243 20.2226 1.09758L15.4999 5.80862V3.87505C15.4999 2.94525 15.1698 2.15044 14.5096 1.49022C13.8494 0.830088 13.0547 0.5 12.1248 0.5H3.87493C2.94533 0.5 2.15036 0.830088 1.4901 1.49022C0.830088 2.15044 0.5 2.94525 0.5 3.87505V12.125C0.5 13.0548 0.830088 13.8495 1.49014 14.5097C2.1504 15.1699 2.94537 15.5 3.87497 15.5H12.1249C13.0547 15.5 13.8495 15.1699 14.5097 14.5097C15.1699 13.8495 15.5 13.0548 15.5 12.125V10.1796L20.2227 14.9023C20.3634 15.0506 20.539 15.125 20.75 15.125C20.8438 15.125 20.9415 15.1054 21.043 15.0665C21.3478 14.9337 21.5001 14.7033 21.5001 14.3752V1.62502C21.5 1.29673 21.3477 1.06631 21.0429 0.933441Z" fill="#EC1313"/>
</svg>
