<svg width="23" height="24" viewBox="0 0 23 24" fill="none" xmlns="http://www.w3.org/2000/svg">
<path fill-rule="evenodd" clip-rule="evenodd" d="M19.4589 4.00809C17.3539 1.90063 14.5545 0.739517 11.5721 0.738281C5.42662 0.738281 0.425095 5.73967 0.422623 11.8868C0.421799 13.8518 0.935135 15.7701 1.91086 17.4608L0.329102 23.2383L6.23961 21.6878C7.86819 22.5762 9.70168 23.0444 11.5676 23.0449H11.5722C17.717 23.0449 22.7191 18.0431 22.7214 11.8957C22.7227 8.9165 21.564 6.1154 19.4589 4.00809ZM11.5721 21.162H11.5683C9.90547 21.1613 8.27469 20.7144 6.85168 19.8703L6.51344 19.6694L3.00606 20.5895L3.94223 17.1698L3.72182 16.8192C2.79416 15.3438 2.30431 13.6384 2.30513 11.8875C2.30705 6.77815 6.46428 2.62134 11.5758 2.62134C14.051 2.62216 16.3778 3.58731 18.1274 5.33894C19.8769 7.09058 20.8399 9.41885 20.8391 11.895C20.8369 17.0048 16.6799 21.162 11.5721 21.162ZM16.6552 14.2215C16.3767 14.082 15.007 13.4083 14.7515 13.3152C14.4964 13.2222 14.3104 13.1759 14.1249 13.4547C13.9391 13.7335 13.4053 14.3611 13.2427 14.5469C13.0801 14.7328 12.9178 14.7561 12.6391 14.6166C12.3605 14.4772 11.4629 14.1829 10.3988 13.2339C9.57066 12.4952 9.0116 11.5829 8.849 11.3041C8.68668 11.0251 8.84763 10.8888 8.97122 10.7356C9.2728 10.3611 9.57478 9.96844 9.66762 9.78264C9.76059 9.59669 9.71404 9.43396 9.64427 9.29457C9.57478 9.15518 9.01764 7.78395 8.78555 7.22598C8.55923 6.68298 8.32976 6.75632 8.15865 6.7478C7.99632 6.7397 7.81052 6.73805 7.62471 6.73805C7.43904 6.73805 7.13719 6.80768 6.88176 7.08673C6.62646 7.36565 5.90686 8.03952 5.90686 9.41075C5.90686 10.782 6.90511 12.1067 7.04436 12.2926C7.18361 12.4785 9.00885 15.2924 11.8034 16.499C12.468 16.7863 12.9869 16.9575 13.3916 17.0859C14.059 17.298 14.6661 17.268 15.1462 17.1964C15.6815 17.1163 16.7943 16.5223 17.0267 15.8717C17.2588 15.2209 17.2588 14.6632 17.189 14.5469C17.1195 14.4307 16.9337 14.3611 16.6552 14.2215Z" fill="black"/>
</svg>
